<svg width="40" height="40" viewBox="0 0 40 40" fill="none" xmlns="http://www.w3.org/2000/svg">
<g id="CheckCircle">
<path id="Vector" d="M20 3.75C16.7861 3.75 13.6443 4.70305 10.972 6.48862C8.29969 8.27419 6.21689 10.8121 4.98696 13.7814C3.75704 16.7507 3.43524 20.018 4.06225 23.1702C4.68926 26.3224 6.23692 29.2179 8.50952 31.4905C10.7821 33.7631 13.6776 35.3107 16.8298 35.9378C19.982 36.5648 23.2493 36.243 26.2186 35.013C29.1879 33.7831 31.7258 31.7003 33.5114 29.028C35.297 26.3557 36.25 23.2139 36.25 20C36.2455 15.6916 34.5319 11.561 31.4855 8.51454C28.439 5.46806 24.3084 3.75455 20 3.75ZM27.1344 17.1344L18.3844 25.8844C18.2683 26.0006 18.1304 26.0928 17.9787 26.1557C17.8269 26.2186 17.6643 26.251 17.5 26.251C17.3357 26.251 17.1731 26.2186 17.0213 26.1557C16.8696 26.0928 16.7317 26.0006 16.6156 25.8844L12.8656 22.1344C12.6311 21.8998 12.4993 21.5817 12.4993 21.25C12.4993 20.9183 12.6311 20.6002 12.8656 20.3656C13.1002 20.1311 13.4183 19.9993 13.75 19.9993C14.0817 19.9993 14.3998 20.1311 14.6344 20.3656L17.5 23.2328L25.3656 15.3656C25.4818 15.2495 25.6196 15.1574 25.7714 15.0945C25.9231 15.0317 26.0858 14.9993 26.25 14.9993C26.4143 14.9993 26.5769 15.0317 26.7286 15.0945C26.8804 15.1574 27.0182 15.2495 27.1344 15.3656C27.2505 15.4818 27.3426 15.6196 27.4055 15.7714C27.4684 15.9231 27.5007 16.0858 27.5007 16.25C27.5007 16.4142 27.4684 16.5769 27.4055 16.7286C27.3426 16.8804 27.2505 17.0182 27.1344 17.1344Z" fill="#EF036C"/>
</g>
</svg>
