<svg width="378" height="316" viewBox="0 0 378 316" fill="none" xmlns="http://www.w3.org/2000/svg">
<path d="M431.869 -79.5622L441.69 -81.4465L437.921 -101.088L428.1 -99.204L431.869 -79.5622ZM10.2847 65.2183L20.159 63.6377L10.2847 65.2183ZM432.418 91.5667L424.223 97.2966L432.418 91.5667ZM428.1 -99.204C355.825 -85.337 248.089 -61.5177 159.472 -33.6185C115.247 -19.6951 75.2583 -4.59563 46.7523 11.0114C32.5504 18.7869 20.5891 27.0118 12.3828 35.724C4.23875 44.3701 -1.48774 54.9401 0.410419 66.7988L20.159 63.6377C19.6697 60.581 20.7617 55.9977 26.9413 49.4371C33.0586 42.9427 42.9259 35.9076 56.3569 28.5542C83.1167 13.9033 121.611 -0.730966 165.478 -14.5416C253.046 -42.1105 359.936 -65.7609 431.869 -79.5622L428.1 -99.204ZM0.410419 66.7988C1.46705 73.4001 5.31474 78.4155 10.0916 82.0146C14.7206 85.5024 20.5576 87.9495 26.812 89.7587C39.3277 93.3791 56.0301 95.1365 74.9489 95.8233C112.948 97.2029 162.879 94.325 212.901 91.2571C263.222 88.1709 313.708 84.8869 353.699 85.2797C373.718 85.4763 390.626 86.5958 403.336 88.9835C409.688 90.1769 414.644 91.6253 418.277 93.2435C421.988 94.8964 423.601 96.4075 424.223 97.2966L440.614 85.8368C437.118 80.8366 431.899 77.4169 426.414 74.9739C420.852 72.4962 414.248 70.6836 407.029 69.3273C392.595 66.6157 374.31 65.4812 353.895 65.2806C313.019 64.8792 261.675 68.2282 211.677 71.2946C161.379 74.3793 112.501 77.1735 75.6745 75.8365C57.1805 75.165 42.4658 73.467 32.3696 70.5464C27.3179 69.0851 24.0501 67.4902 22.1268 66.0411C20.3512 64.7033 20.1989 63.8869 20.159 63.6377L0.410419 66.7988ZM424.223 97.2966C424.333 97.4551 424.315 97.4749 424.288 97.3747C424.26 97.2732 424.272 97.2253 424.266 97.2987C424.247 97.5288 424.08 98.447 423.002 100.226C420.743 103.955 416.216 108.729 409.347 114.926C396.424 126.585 376.208 142.271 360.145 160.216C343.878 178.389 329.842 200.913 330.085 227.938C330.33 255.171 345.019 284.17 379.86 315.36L393.2 300.459C360.643 271.314 350.26 247.234 350.084 227.757C349.907 208.071 360.102 190.251 375.047 173.555C390.194 156.633 408.169 142.926 422.745 129.775C429.625 123.568 436.174 117.083 440.108 110.588C442.128 107.255 443.837 103.32 444.198 98.9409C444.581 94.2965 443.385 89.8002 440.614 85.8368L424.223 97.2966Z" fill="white"/>
</svg>
