<svg width="16" height="17" viewBox="0 0 16 17" fill="none" xmlns="http://www.w3.org/2000/svg">
<path d="M11.354 8.85403L6.35403 13.854C6.30757 13.9005 6.25242 13.9373 6.19173 13.9625C6.13103 13.9876 6.06598 14.0006 6.00028 14.0006C5.93458 14.0006 5.86953 13.9876 5.80883 13.9625C5.74813 13.9373 5.69298 13.9005 5.64653 13.854C5.60007 13.8076 5.56322 13.7524 5.53808 13.6917C5.51294 13.631 5.5 13.566 5.5 13.5003C5.5 13.4346 5.51294 13.3695 5.53808 13.3088C5.56322 13.2481 5.60007 13.193 5.64653 13.1465L10.2934 8.50028L5.64653 3.85403C5.55271 3.76021 5.5 3.63296 5.5 3.50028C5.5 3.3676 5.55271 3.24035 5.64653 3.14653C5.74035 3.05271 5.8676 3 6.00028 3C6.13296 3 6.26021 3.05271 6.35403 3.14653L11.354 8.14653C11.4005 8.19296 11.4374 8.24811 11.4626 8.30881C11.4877 8.36951 11.5007 8.43457 11.5007 8.50028C11.5007 8.56599 11.4877 8.63105 11.4626 8.69175C11.4374 8.75245 11.4005 8.80759 11.354 8.85403Z" fill="#14004E"/>
</svg>
