<svg width="24" height="24" viewBox="0 0 24 24" fill="none" xmlns="http://www.w3.org/2000/svg">
<g id="Flag">
<path id="Vector" d="M3.25875 3.93751C3.17806 4.00744 3.11324 4.0938 3.06862 4.19081C3.024 4.28781 3.0006 4.39323 3 4.50001V20.25C3 20.4489 3.07902 20.6397 3.21967 20.7803C3.36032 20.921 3.55109 21 3.75 21C3.94891 21 4.13968 20.921 4.28033 20.7803C4.42098 20.6397 4.5 20.4489 4.5 20.25V16.1034C7.01156 14.1197 9.17531 15.1894 11.6672 16.4231C13.2047 17.1834 14.8603 18.0028 16.6359 18.0028C17.9419 18.0028 19.3116 17.5575 20.7441 16.3153C20.8247 16.2454 20.8896 16.159 20.9342 16.062C20.9788 15.965 21.0022 15.8596 21.0028 15.7528V4.50001C21.0025 4.35605 20.9607 4.21523 20.8825 4.09437C20.8043 3.9735 20.693 3.87769 20.5618 3.81838C20.4306 3.75908 20.2852 3.73877 20.1428 3.75989C20.0004 3.78102 19.8671 3.84267 19.7587 3.93751C17.1337 6.20907 14.91 5.10844 12.3328 3.83251C9.66281 2.50876 6.63562 1.01157 3.25875 3.93751ZM19.5 15.3984C16.9884 17.3822 14.8247 16.3116 12.3328 15.0788C9.98906 13.9209 7.38187 12.6291 4.5 14.2913V4.85532C7.01156 2.87157 9.17531 3.94126 11.6672 5.17407C14.0109 6.33188 16.6191 7.62376 19.5 5.96157V15.3984Z" fill="#6200EA"/>
</g>
</svg>
