<svg width="24" height="24" viewBox="0 0 24 24" fill="none" xmlns="http://www.w3.org/2000/svg">
<g id="HandsClapping">
<path id="Vector" d="M15.7501 2.25V0.75C15.7501 0.551088 15.8291 0.360322 15.9698 0.21967C16.1104 0.0790176 16.3012 0 16.5001 0C16.699 0 16.8898 0.0790176 17.0304 0.21967C17.1711 0.360322 17.2501 0.551088 17.2501 0.75V2.25C17.2501 2.44891 17.1711 2.63968 17.0304 2.78033C16.8898 2.92098 16.699 3 16.5001 3C16.3012 3 16.1104 2.92098 15.9698 2.78033C15.8291 2.63968 15.7501 2.44891 15.7501 2.25ZM19.1091 3.84375C19.2271 3.9147 19.3625 3.95139 19.5001 3.94969C19.6288 3.94989 19.7554 3.91697 19.8677 3.85408C19.98 3.7912 20.0742 3.70047 20.1413 3.59062L20.8913 2.36156C20.9435 2.27746 20.9786 2.18385 20.9944 2.08615C21.0102 1.98844 21.0066 1.88856 20.9836 1.79228C20.9607 1.69599 20.9189 1.6052 20.8607 1.52513C20.8025 1.44507 20.7291 1.37731 20.6445 1.32578C20.56 1.27424 20.4662 1.23995 20.3683 1.22487C20.2705 1.20979 20.1707 1.21422 20.0746 1.23791C19.9785 1.2616 19.888 1.30408 19.8084 1.3629C19.7288 1.42172 19.6616 1.49572 19.6107 1.58062L18.8607 2.80875C18.8087 2.89292 18.7739 2.98655 18.7582 3.08424C18.7426 3.18193 18.7464 3.28176 18.7695 3.37796C18.7926 3.47416 18.8345 3.56485 18.8928 3.64479C18.9511 3.72473 19.0246 3.79235 19.1091 3.84375ZM23.5566 5.02406C23.5264 4.9303 23.478 4.84342 23.4142 4.76836C23.3504 4.69331 23.2725 4.63155 23.1848 4.58663C23.0972 4.54171 23.0015 4.5145 22.9033 4.50655C22.8051 4.4986 22.7063 4.51008 22.6126 4.54031L21.2063 4.995C21.0358 5.04951 20.8905 5.16319 20.7965 5.31552C20.7025 5.46784 20.6661 5.64876 20.6938 5.82559C20.7215 6.00242 20.8116 6.1635 20.9477 6.27973C21.0838 6.39596 21.257 6.45968 21.436 6.45937C21.5143 6.45908 21.5921 6.44674 21.6666 6.42281L23.0729 5.96812C23.1671 5.93793 23.2544 5.88941 23.3297 5.82535C23.4051 5.76129 23.467 5.68296 23.512 5.59487C23.5569 5.50678 23.584 5.41066 23.5917 5.31205C23.5994 5.21345 23.5875 5.1143 23.5566 5.02031V5.02406ZM20.7441 8.76844C21.5734 10.1948 21.9073 11.8554 21.6938 13.4914C21.4803 15.1274 20.7314 16.6468 19.5638 17.8125C19.1587 19.2282 18.3459 20.4933 17.2266 21.4501C16.1074 22.4069 14.7312 23.013 13.2698 23.193C11.8083 23.3729 10.3262 23.1187 9.00831 22.462C7.69039 21.8052 6.59493 20.7751 5.85852 19.5L2.57727 13.8159C2.37693 13.4684 2.26544 13.0769 2.2527 12.676C2.23995 12.275 2.32634 11.8772 2.5042 11.5177C2.68206 11.1581 2.94589 10.8481 3.27231 10.6149C3.59872 10.3818 3.97762 10.2328 4.3754 10.1812L4.0004 9.53062C3.80317 9.18899 3.6918 8.80458 3.67586 8.41042C3.65992 8.01626 3.73989 7.62411 3.90889 7.26767C4.0779 6.91122 4.33089 6.60111 4.64614 6.36398C4.9614 6.12685 5.3295 5.96978 5.71884 5.90625C5.52356 5.36855 5.52361 4.7793 5.719 4.24165C5.91439 3.70399 6.29265 3.25218 6.78759 2.96531C7.24142 2.70425 7.76714 2.59595 8.2872 2.65638C8.80726 2.71681 9.29414 2.94277 9.67602 3.30094C9.90992 2.9633 10.2253 2.69025 10.593 2.50713C10.9607 2.32401 11.3686 2.23678 11.779 2.25352C12.1894 2.27026 12.589 2.39044 12.9405 2.60289C13.292 2.81534 13.5842 3.11318 13.7898 3.46875L14.9148 5.41781C15.1583 5.09886 15.4769 4.84499 15.8422 4.67873C16.2074 4.51247 16.6081 4.43897 17.0086 4.46475C17.4091 4.49054 17.797 4.61481 18.1379 4.82653C18.4789 5.03826 18.7622 5.33089 18.9629 5.67844L20.7441 8.76844ZM10.8676 5.15625L11.4235 6.11906C11.6091 6.28859 11.7673 6.48595 11.8923 6.70406L13.0173 8.64937C13.387 8.16915 13.9213 7.8426 14.5173 7.7325L12.4913 4.21875C12.367 4.00343 12.1622 3.84632 11.9221 3.78197C11.6819 3.71762 11.426 3.75131 11.2107 3.87562C10.9954 3.99995 10.8383 4.20471 10.7739 4.44488C10.7096 4.68504 10.7433 4.94093 10.8676 5.15625ZM7.19446 5.54531L7.7504 6.50906L7.7804 6.53625C7.96228 6.2729 8.19438 6.04806 8.46337 5.87463C8.73236 5.7012 9.03296 5.5826 9.3479 5.52562L8.81821 4.60781C8.72552 4.44722 8.58729 4.31772 8.42099 4.23568C8.2547 4.15365 8.06782 4.12278 7.88397 4.14696C7.70013 4.17115 7.52759 4.2493 7.38817 4.37155C7.24875 4.4938 7.14871 4.65465 7.10071 4.83375C7.06842 4.95265 7.06008 5.07679 7.07618 5.19894C7.09227 5.32109 7.13248 5.43883 7.19446 5.54531ZM18.1491 17.3034C18.3551 16.5425 18.4081 15.7482 18.3051 14.9666C18.2021 14.1851 17.9452 13.4317 17.5491 12.75L15.7679 9.66469C15.6468 9.45699 15.4504 9.30379 15.2195 9.23673C14.9886 9.16968 14.7408 9.19391 14.5272 9.30442C14.3137 9.41492 14.1508 9.60326 14.0721 9.83048C13.9935 10.0577 14.0052 10.3065 14.1048 10.5253L15.1754 12.375C15.2749 12.5474 15.3017 12.7523 15.2501 12.9446C15.1985 13.1368 15.0727 13.3007 14.9002 13.4002C14.7278 13.4996 14.5229 13.5265 14.3307 13.4749C14.1384 13.4233 13.9745 13.2974 13.8751 13.125L10.5938 7.45594C10.4651 7.25209 10.2628 7.10568 10.0289 7.04711C9.79506 6.98854 9.54762 7.02232 9.33801 7.14142C9.1284 7.26053 8.97273 7.45581 8.90334 7.68669C8.83395 7.91758 8.85617 8.16632 8.9654 8.38125L11.2745 12.375C11.3268 12.4604 11.3616 12.5554 11.3766 12.6544C11.3917 12.7534 11.3867 12.8544 11.3621 12.9515C11.3375 13.0486 11.2936 13.1398 11.2332 13.2196C11.1728 13.2995 11.097 13.3665 11.0102 13.4165C10.9235 13.4666 10.8276 13.4989 10.7283 13.5113C10.6289 13.5237 10.528 13.5161 10.4316 13.489C10.3352 13.4618 10.2453 13.4156 10.167 13.3531C10.0888 13.2906 10.0238 13.213 9.97602 13.125L6.92258 7.84312C6.86148 7.73564 6.77971 7.64131 6.682 7.56556C6.58428 7.48981 6.47255 7.43413 6.35323 7.40174C6.23392 7.36935 6.10937 7.36087 5.98676 7.37681C5.86416 7.39275 5.74591 7.43278 5.63884 7.4946C5.53177 7.55642 5.43798 7.6388 5.36288 7.73702C5.28778 7.83523 5.23284 7.94733 5.20124 8.06686C5.16964 8.18639 5.16199 8.31099 5.17874 8.43349C5.19549 8.55599 5.23631 8.67396 5.29884 8.78062L8.67383 14.6269C8.72308 14.7122 8.75504 14.8064 8.76789 14.904C8.78073 15.0017 8.77422 15.101 8.74871 15.1961C8.7232 15.2913 8.67921 15.3805 8.61923 15.4586C8.55925 15.5367 8.48447 15.6023 8.39915 15.6516C8.31383 15.7008 8.21965 15.7328 8.12198 15.7456C8.02431 15.7585 7.92507 15.7519 7.82991 15.7264C7.73476 15.7009 7.64557 15.6569 7.56742 15.597C7.48927 15.537 7.42371 15.4622 7.37446 15.3769L5.49946 12.1294C5.37426 11.9158 5.16966 11.7604 4.93032 11.6972C4.69098 11.6339 4.43633 11.6678 4.22193 11.7916C4.00754 11.9154 3.85081 12.119 3.78595 12.3579C3.72108 12.5968 3.75335 12.8517 3.87571 13.0669L7.15696 18.7509C7.75028 19.7788 8.63509 20.6076 9.69949 21.1325C10.7639 21.6575 11.9601 21.855 13.1367 21.7C14.3134 21.5451 15.4176 21.0447 16.3098 20.2621C17.2021 19.4795 17.8421 18.4498 18.1491 17.3034ZM19.4448 9.51469L17.6635 6.42937C17.5383 6.21581 17.3337 6.06043 17.0944 5.99715C16.855 5.93387 16.6004 5.96783 16.386 6.09162C16.1716 6.2154 16.0149 6.41896 15.95 6.65788C15.8851 6.89679 15.9174 7.15166 16.0398 7.36687L16.5938 8.32781C16.7794 8.49811 16.9375 8.69607 17.0626 8.91469L18.8438 12C19.3443 12.865 19.6672 13.8212 19.7935 14.8125C20.147 13.9622 20.2995 13.0417 20.239 12.1228C20.1785 11.2039 19.9067 10.3114 19.4448 9.51469Z" fill="#FF6F00"/>
</g>
</svg>
