<svg width="24" height="24" viewBox="0 0 24 24" fill="none" xmlns="http://www.w3.org/2000/svg">
<path d="M23.4897 11.5648C23.4712 11.5298 23.4296 11.5158 23.3926 11.5275C23.4111 11.5018 23.4134 11.4669 23.3972 11.4389C23.3764 11.404 23.3325 11.3877 23.2955 11.404C23.277 11.4063 23.1128 11.4249 22.537 11.129C22.308 11.0125 22.1045 10.7981 21.8895 10.5721C21.7623 10.4393 21.6258 10.2948 21.4709 10.1573C21.5796 10.2482 21.6813 10.3391 21.7785 10.43C22.019 10.649 22.2456 10.8564 22.5092 10.9682C23.1914 11.2572 23.381 11.2106 23.4296 11.1756C23.4666 11.15 23.4758 11.0987 23.4527 11.0614C23.4296 11.0265 23.3856 11.0148 23.3486 11.0335C23.3301 11.0381 23.1683 11.0684 22.5716 10.8168C22.4953 10.7841 22.4213 10.7422 22.3473 10.6933C22.3866 10.7119 22.426 10.7306 22.4676 10.7469C23.159 11.0078 23.3463 10.9543 23.3949 10.9193C23.4319 10.8937 23.4388 10.8424 23.4134 10.8051C23.3903 10.7725 23.344 10.7608 23.3093 10.7818C23.2908 10.7865 23.1313 10.8238 22.5254 10.5954C22.2849 10.5045 22.0606 10.3158 21.8224 10.1131C21.3691 9.73091 20.8049 9.25322 19.8521 9.23924C19.8406 9.23924 19.829 9.23924 19.8174 9.23924C19.2278 9.23924 18.6704 9.48391 18.201 9.94529C18.0253 10.1177 17.8934 10.2925 17.8032 10.4253C17.7107 10.395 17.6275 10.367 17.5442 10.3391C16.7279 10.0641 16.3556 9.93829 14.1726 10.7189C13.4234 10.9939 12.9077 10.9659 12.466 10.7748C12.4799 10.7772 12.4914 10.7795 12.5053 10.7841C12.5492 10.7935 12.5932 10.7678 12.6024 10.7236C12.6117 10.6793 12.5862 10.635 12.5423 10.6257C12.5284 10.6234 12.5169 10.621 12.503 10.6164C12.533 10.6117 12.5631 10.6001 12.5932 10.5791C12.6302 10.5535 12.6394 10.5022 12.6163 10.4649C12.6117 10.4579 12.6047 10.4509 12.6001 10.4463C12.6001 10.4463 12.6024 10.4463 12.6024 10.4439C12.644 10.4253 12.6602 10.3764 12.6417 10.3368C12.6279 10.3065 12.5978 10.2902 12.5677 10.2902C12.6024 10.2878 12.6371 10.2808 12.6718 10.2715C12.7157 10.2599 12.7412 10.2156 12.7296 10.1713C12.718 10.127 12.6741 10.1014 12.6302 10.1131C12.5562 10.1317 12.4937 10.1317 12.4244 10.1247C12.4937 10.1177 12.577 10.1037 12.681 10.0758C12.725 10.0641 12.7504 10.0199 12.7389 9.97558C12.7273 9.9313 12.6834 9.90567 12.6394 9.91732C12.3434 9.99655 12.2625 9.95927 12.1862 9.92198C12.1492 9.90334 12.1052 9.8847 12.0474 9.87771C11.9804 9.87072 11.8763 9.8847 11.7722 9.90334C11.7676 9.88004 11.763 9.85441 11.7584 9.83111C11.8347 9.79848 11.9272 9.77285 12.0243 9.77984C12.126 9.78683 12.2047 9.81713 12.281 9.84975C12.4082 9.90101 12.5423 9.95461 12.7435 9.87538C12.7851 9.85907 12.8059 9.81247 12.7897 9.77052C12.7735 9.72858 12.7273 9.70761 12.6857 9.72392C12.5423 9.77984 12.459 9.74489 12.3411 9.69829C12.2579 9.66333 12.1607 9.62605 12.0335 9.61673C11.9202 9.60974 11.8162 9.63304 11.726 9.66799C11.7214 9.64469 11.7167 9.62139 11.7121 9.59576C11.8023 9.57479 11.8832 9.56314 11.941 9.56547C12.0104 9.5678 12.0659 9.58877 12.133 9.61207C12.2579 9.65634 12.3966 9.70528 12.6487 9.64702C12.6926 9.6377 12.7204 9.59343 12.7088 9.54916C12.6995 9.50488 12.6556 9.47692 12.6117 9.48857C12.4059 9.53517 12.2995 9.49789 12.1862 9.45828C12.1145 9.43265 12.0428 9.40701 11.948 9.40235C11.8763 9.40002 11.7815 9.41401 11.6844 9.43498C11.6797 9.40468 11.6728 9.37439 11.6682 9.34177C11.7514 9.32779 11.8324 9.31847 11.8948 9.3208C11.9595 9.32313 12.0035 9.3441 12.059 9.36973C12.1376 9.40701 12.2347 9.45129 12.4035 9.45129C12.4521 9.45129 12.5076 9.44663 12.5677 9.43964C12.6117 9.43265 12.644 9.39303 12.6371 9.34876C12.6302 9.30449 12.5909 9.27186 12.5469 9.27885C12.3157 9.31148 12.2209 9.2672 12.1284 9.22293C12.0636 9.19264 11.9989 9.16235 11.9017 9.15769C11.8277 9.15536 11.7352 9.16468 11.6404 9.18099C11.6381 9.16701 11.6358 9.1507 11.6335 9.13671C11.7237 9.11341 11.8185 9.0971 11.8994 9.10642C12.0058 9.11807 12.0729 9.14603 12.1422 9.17633C12.2463 9.2206 12.355 9.26953 12.5677 9.23924C12.6117 9.23225 12.6417 9.19264 12.6371 9.14603C12.6325 9.11108 12.607 9.08545 12.577 9.07846C12.5978 9.07846 12.6186 9.08079 12.6417 9.08079C12.6857 9.08079 12.7227 9.04351 12.7227 8.99923C12.7227 8.95496 12.6857 8.91768 12.6417 8.91768C12.4984 8.91768 12.4082 8.89205 12.3064 8.86175C12.2093 8.83379 12.0983 8.80117 11.9272 8.78719C11.9017 8.78486 11.8763 8.78486 11.8509 8.78486C11.948 8.76622 12.0405 8.7499 12.1122 8.74757C12.2301 8.74058 12.2694 8.76389 12.3157 8.79651C12.3758 8.83612 12.4521 8.88506 12.6417 8.86874C12.6857 8.86408 12.718 8.82447 12.7157 8.7802C12.7111 8.73592 12.6718 8.7033 12.6279 8.70563C12.4937 8.71728 12.4544 8.69165 12.4059 8.65903C12.348 8.62174 12.274 8.57281 12.1029 8.58446C11.9989 8.59145 11.8624 8.61475 11.726 8.64505C11.8462 8.61009 11.9734 8.58213 12.0821 8.57747C12.2394 8.57281 12.3365 8.59844 12.422 8.61941C12.503 8.64039 12.5793 8.66136 12.6787 8.64971C12.7227 8.64505 12.755 8.60543 12.7504 8.56116C12.7458 8.51689 12.7065 8.48426 12.6625 8.48892C12.5909 8.49591 12.5377 8.48193 12.4637 8.46329C12.3712 8.43999 12.2579 8.4097 12.0775 8.41436C12.0359 8.41669 11.9896 8.42135 11.9434 8.42834C11.9965 8.41436 12.052 8.40504 12.1029 8.40038C12.3041 8.38174 12.3758 8.40038 12.4405 8.41669C12.5169 8.43533 12.5909 8.45397 12.7967 8.41669C12.8406 8.4097 12.8707 8.36543 12.8614 8.32115C12.8522 8.27688 12.8105 8.24659 12.7666 8.25591C12.5955 8.2862 12.5423 8.27455 12.4775 8.25824C12.4059 8.2396 12.3157 8.21862 12.0867 8.23727C11.8902 8.25358 11.6797 8.33047 11.504 8.41203C11.4994 8.38873 11.4947 8.3631 11.4901 8.33979C11.6797 8.26057 11.9087 8.17668 12.0613 8.16736C12.17 8.1627 12.2625 8.16736 12.355 8.17435C12.5307 8.186 12.6972 8.19532 12.9192 8.11843C12.9609 8.10445 12.984 8.05784 12.9678 8.01357C12.9539 7.97163 12.9077 7.94832 12.8637 7.96463C12.6741 8.03221 12.5307 8.02289 12.3642 8.01357C12.2694 8.00658 12.17 8.00192 12.052 8.00658C11.8855 8.0159 11.652 8.09746 11.4554 8.17901C11.4462 8.13707 11.4369 8.09512 11.4277 8.05318C11.5826 7.99959 11.763 7.95065 11.8948 7.95531C11.9665 7.95764 12.0405 7.9623 12.1214 7.96697C12.3943 7.98328 12.6787 7.99959 12.8637 7.92036C12.9054 7.90405 12.9239 7.85512 12.9077 7.81317C12.8915 7.77123 12.8429 7.75259 12.8013 7.7689C12.6487 7.83415 12.3735 7.81783 12.1307 7.80385C12.0497 7.79919 11.9711 7.79453 11.8994 7.7922C11.7491 7.78754 11.5572 7.83648 11.3907 7.8924C11.3884 7.88308 11.386 7.87609 11.3837 7.86677C11.46 7.84813 11.5456 7.82715 11.6358 7.80385C11.8 7.76191 11.9873 7.71298 12.0451 7.71997C12.089 7.72463 12.1399 7.73395 12.1908 7.74094C12.3596 7.7689 12.5354 7.79686 12.6579 7.72929C12.6972 7.70599 12.7111 7.65705 12.688 7.61744C12.6649 7.57783 12.6163 7.56384 12.577 7.58715C12.5053 7.62909 12.3527 7.60346 12.2162 7.58016C12.163 7.57083 12.1099 7.56151 12.059 7.55685C11.978 7.54986 11.83 7.58482 11.5942 7.6454C11.5271 7.66171 11.4369 7.68501 11.3444 7.70599C11.3421 7.69666 11.3398 7.68734 11.3375 7.67802C11.5826 7.61511 11.8624 7.54287 11.9526 7.51957C12.0104 7.50326 12.126 7.51724 12.2394 7.52889C12.422 7.54986 12.6117 7.57083 12.7389 7.50559C12.7782 7.48462 12.7944 7.43568 12.7759 7.39607C12.755 7.35646 12.7065 7.34015 12.6672 7.35879C12.5816 7.40073 12.4105 7.38209 12.2579 7.36578C12.1191 7.34947 11.9989 7.33782 11.911 7.36112C11.8231 7.38442 11.5433 7.45666 11.2982 7.51957C11.5271 7.43801 11.7954 7.34714 11.9017 7.32384C11.9942 7.30286 12.1075 7.31452 12.2185 7.32384C12.3457 7.33549 12.4799 7.34714 12.5932 7.31452C12.6371 7.30286 12.6602 7.25626 12.6487 7.21432C12.6371 7.17004 12.5909 7.14674 12.5492 7.15839C12.4637 7.18403 12.3504 7.17237 12.2324 7.16305C12.1099 7.1514 11.985 7.14208 11.8694 7.16771C11.756 7.19335 11.4878 7.28422 11.2565 7.36578C11.2496 7.34481 11.245 7.32151 11.238 7.30053C11.3675 7.28189 11.5248 7.25393 11.5895 7.23296C11.6265 7.22131 11.6844 7.19568 11.7491 7.17004C11.8717 7.11878 12.0752 7.03256 12.1492 7.03256C12.1908 7.03256 12.2602 7.04188 12.3342 7.04888C12.5192 7.07218 12.6464 7.08383 12.725 7.05587C12.7666 7.03955 12.7897 6.99295 12.7735 6.95101C12.7574 6.90906 12.7111 6.88576 12.6695 6.90207C12.6232 6.91839 12.459 6.89974 12.3527 6.88576C12.274 6.87644 12.2 6.86712 12.1492 6.86712C12.0497 6.86712 11.8879 6.93237 11.6867 7.01858C11.6242 7.04422 11.571 7.06752 11.5387 7.07684C11.4878 7.09315 11.356 7.11645 11.2311 7.13509C11.4809 6.99761 11.8277 6.81586 11.9619 6.81586C12.0682 6.81586 12.1422 6.83217 12.2232 6.84848C12.3342 6.87178 12.4498 6.89508 12.6394 6.87178C12.6834 6.86712 12.7157 6.82518 12.7111 6.7809C12.7065 6.73663 12.6649 6.70401 12.6209 6.70867C12.6001 6.711 12.5793 6.71333 12.5585 6.71566C12.5677 6.71566 12.5747 6.71333 12.5839 6.71333C12.6279 6.70867 12.6602 6.66673 12.6533 6.62245C12.6487 6.57818 12.607 6.54556 12.5631 6.55255C12.4799 6.5642 12.422 6.56653 12.3781 6.56886C12.4012 6.55255 12.4151 6.52225 12.4128 6.48963C12.4059 6.44536 12.3665 6.41507 12.3203 6.41973C12.2116 6.43604 12.1237 6.41973 12.0289 6.40342C11.904 6.38244 11.7769 6.36147 11.6196 6.41507C11.6173 6.41507 11.6127 6.4174 11.6104 6.41973C11.4508 6.49662 11.2195 6.56187 11.0322 6.61546C11.0207 6.61779 11.0091 6.62245 10.9975 6.62478C10.9952 6.62012 10.9952 6.61779 10.9929 6.61313C11.2311 6.47099 11.5155 6.31487 11.6381 6.28225C11.7306 6.25661 11.7745 6.26594 11.8439 6.27759C11.9387 6.2939 12.0544 6.31254 12.3087 6.26594C12.3527 6.25661 12.3804 6.21467 12.3735 6.1704C12.3642 6.12612 12.3226 6.09816 12.2787 6.10515C12.0544 6.1471 11.9572 6.13079 11.8717 6.1168C11.7954 6.10282 11.7214 6.09117 11.5965 6.12612C11.4554 6.16341 11.1617 6.32652 10.9259 6.464C10.912 6.43371 10.8981 6.40342 10.8819 6.37312C11.0438 6.25661 11.2681 6.12146 11.4924 6.07952C11.7029 6.03991 11.83 6.0469 11.9341 6.05389C12.0451 6.06088 12.1399 6.06787 12.2717 6.00729C12.3134 5.98864 12.3295 5.93971 12.311 5.9001C12.2925 5.85815 12.244 5.84184 12.2047 5.86048C12.1122 5.90243 12.0497 5.9001 11.9457 5.89311C11.8393 5.88612 11.6959 5.8768 11.4647 5.92107C11.2195 5.96767 10.9814 6.10515 10.8102 6.22865C10.801 6.21234 10.794 6.19603 10.7848 6.18205C10.9883 6.07253 11.2427 5.94437 11.3999 5.90243C11.5433 5.86281 11.6381 5.87214 11.7306 5.87913C11.8208 5.88845 11.9156 5.89544 12.0359 5.85349C12.0775 5.83951 12.1006 5.79291 12.0844 5.74864C12.0705 5.70669 12.0243 5.68339 11.9804 5.6997C11.9064 5.72533 11.8462 5.72533 11.7792 5.72067C11.867 5.71135 11.9549 5.69504 12.0405 5.65543C12.0821 5.63679 12.1006 5.59018 12.0821 5.54824C12.0682 5.51562 12.0335 5.49698 12.0012 5.49931C12.0243 5.48067 12.0359 5.45037 12.0289 5.41775C12.0197 5.37348 11.9757 5.34552 11.9318 5.35717C11.837 5.38047 11.7468 5.37348 11.6335 5.36882C11.4855 5.3595 11.3028 5.35018 11.0415 5.39911C10.8264 5.43872 10.609 5.55756 10.4356 5.6764C10.4171 5.65543 10.3986 5.63446 10.3801 5.61582C10.5304 5.51096 10.7131 5.39212 10.8125 5.35484C10.8958 5.32454 11.0322 5.31988 11.1617 5.31522C11.3213 5.30823 11.4878 5.30357 11.6127 5.25231C11.6543 5.236 11.6751 5.18939 11.6589 5.14745C11.6427 5.10551 11.5965 5.08454 11.5549 5.10085C11.4554 5.14046 11.3051 5.14512 11.1571 5.15211C11.0068 5.15677 10.8657 5.16376 10.7594 5.20104C10.6322 5.24765 10.4171 5.38979 10.2622 5.49931C10.2575 5.49465 10.2506 5.48999 10.246 5.48533C10.4009 5.34785 10.5767 5.21503 10.7108 5.17308C10.8565 5.12648 10.9906 5.11483 11.0993 5.10551C11.2427 5.09153 11.3467 5.08221 11.3976 4.99832C11.4207 4.95871 11.4092 4.90977 11.3699 4.88647C11.3305 4.86317 11.282 4.87482 11.2589 4.9121C11.2427 4.92841 11.1502 4.9354 11.0831 4.94239C10.9675 4.95405 10.8241 4.9657 10.6622 5.01696C10.4934 5.07055 10.2853 5.23134 10.1188 5.38047C10.1142 5.37581 10.1095 5.37348 10.1049 5.36882C10.2552 5.21037 10.4356 5.04259 10.5628 5.00298C10.6645 4.97269 10.7617 4.95638 10.8472 4.94006C10.9952 4.91443 11.1247 4.89346 11.2149 4.80724C11.2473 4.77695 11.2496 4.72569 11.2195 4.69307C11.1895 4.66044 11.1386 4.65811 11.1062 4.68841C11.053 4.73734 10.9605 4.75598 10.8426 4.77695C10.8912 4.76064 10.9397 4.73734 10.9929 4.70472C11.0299 4.67908 11.0415 4.63015 11.016 4.59287C10.9906 4.55559 10.942 4.54393 10.905 4.56957C10.8565 4.59986 10.8125 4.6185 10.764 4.63248C10.7848 4.61151 10.794 4.58122 10.7848 4.55092C10.7732 4.50665 10.727 4.48335 10.6854 4.495C10.5535 4.53228 10.4772 4.53461 10.3963 4.53694C10.2668 4.5416 10.1442 4.54393 9.85516 4.68608C9.8066 4.70938 9.76035 4.73501 9.7141 4.76064C9.71641 4.75831 9.71873 4.75598 9.72335 4.75365C9.73491 4.742 9.74879 4.73035 9.76266 4.71637C9.85748 4.62316 10.0032 4.48335 10.2552 4.47636C10.2992 4.47403 10.3362 4.43675 10.3339 4.39247C10.3315 4.3482 10.2945 4.31325 10.2506 4.31325C10.1257 4.31791 10.0217 4.3482 9.93379 4.39014C9.96848 4.35286 9.99854 4.32257 10.024 4.31791C10.0679 4.31092 10.098 4.26897 10.091 4.2247C10.0841 4.18043 10.0425 4.15013 9.99854 4.15713C9.91529 4.17111 9.85516 4.23402 9.79966 4.29461C9.7511 4.34587 9.70254 4.39946 9.63316 4.43442C9.55454 4.47403 9.46204 4.49733 9.37185 4.52063C9.36029 4.52296 9.35104 4.52529 9.33947 4.52995C9.36722 4.50898 9.39497 4.48568 9.42272 4.46005C9.5106 4.38548 9.6031 4.30859 9.70254 4.27596C9.74416 4.26198 9.7696 4.21538 9.75573 4.17344C9.74185 4.13149 9.6956 4.10586 9.65398 4.11984C9.52216 4.16179 9.41579 4.25266 9.31866 4.33422C9.25622 4.38781 9.1961 4.43908 9.14754 4.45772C8.99491 4.52063 8.90241 4.57423 8.71972 4.71171C8.61335 4.79093 8.54628 4.93074 8.50466 5.04958C8.47228 5.05191 8.43991 5.05657 8.40753 5.06123C8.43297 4.96803 8.46072 4.87715 8.48616 4.82589C8.52778 4.74666 8.6781 4.67442 8.79604 4.61617C8.87235 4.57889 8.94404 4.54393 8.99491 4.50665L8.99722 4.50432C9.18222 4.35985 9.31172 4.25033 9.31172 4.13615C9.31172 4.09188 9.27472 4.0546 9.23079 4.0546C9.18685 4.0546 9.14985 4.08955 9.14985 4.13615C9.1406 4.18742 8.96254 4.32723 8.89779 4.37849L8.89547 4.38082C8.85847 4.40878 8.79372 4.44141 8.72666 4.47403C8.57866 4.54626 8.41216 4.62782 8.3451 4.75365C8.30347 4.83521 8.26416 4.97269 8.2341 5.09386C8.18322 5.10318 8.13235 5.11483 8.08378 5.12415C8.16703 4.92841 8.28035 4.71637 8.41678 4.59986C8.56247 4.47403 8.67116 4.4251 8.76135 4.38315C8.86079 4.33655 8.94866 4.29694 9.01804 4.18043C9.04116 4.14081 9.0296 4.09188 8.99029 4.06858C8.95097 4.04528 8.90241 4.05693 8.87929 4.09654C8.83535 4.17111 8.78447 4.19441 8.69429 4.23635C8.60178 4.27829 8.4746 4.33655 8.31272 4.47636C8.12541 4.63714 7.98203 4.93773 7.88953 5.17541C7.85253 5.18473 7.81784 5.19638 7.78084 5.20803C7.86872 4.97968 7.98666 4.71637 8.09535 4.60685C8.1786 4.52296 8.2711 4.46471 8.34972 4.41344C8.48153 4.32956 8.60641 4.25033 8.62722 4.09421C8.63416 4.04994 8.6041 4.00799 8.56016 4.001C8.51622 3.99401 8.4746 4.0243 8.46766 4.06858C8.4561 4.14547 8.38672 4.19441 8.26185 4.27363C8.17397 4.32956 8.07453 4.39247 7.97972 4.49034C7.82016 4.65112 7.66753 5.03793 7.58197 5.27561C7.51028 5.30357 7.44091 5.33153 7.37153 5.36183C7.45941 5.27328 7.54959 5.17075 7.59353 5.05191C7.60509 5.02162 7.61666 4.99133 7.62591 4.96337C7.71378 4.72103 7.76234 4.58588 8.07453 4.3482C8.10922 4.32024 8.11616 4.26897 8.09072 4.23402C8.06297 4.19907 8.0121 4.19208 7.97741 4.21771C7.62591 4.48568 7.56578 4.65345 7.47328 4.90744C7.46403 4.9354 7.45247 4.96337 7.44091 4.99366C7.40391 5.09619 7.31141 5.18939 7.22122 5.28027C7.14491 5.35717 7.05934 5.44338 7.01772 5.53892C6.99228 5.5529 6.96915 5.56688 6.94603 5.58086C6.95297 5.55057 6.96222 5.51562 6.97609 5.47834C7.01309 5.42707 7.08016 5.36416 7.14491 5.30124C7.21197 5.236 7.27672 5.17541 7.32066 5.11716C7.35534 5.07055 7.38772 4.989 7.42934 4.88181C7.49872 4.70472 7.59353 4.46238 7.70916 4.38781C7.74616 4.36451 7.75772 4.31325 7.73459 4.27596C7.71147 4.23868 7.66059 4.22703 7.62359 4.25033C7.46634 4.35053 7.36228 4.61151 7.28134 4.82123C7.24897 4.90278 7.21428 4.989 7.19347 5.01696C7.15878 5.06356 7.09634 5.12182 7.03622 5.18007C6.9599 5.25231 6.88359 5.32687 6.83734 5.39445C6.83272 5.40144 6.8304 5.4061 6.82809 5.41309C6.79109 5.52494 6.77259 5.61815 6.76797 5.69504C6.74253 5.71368 6.71478 5.72999 6.69165 5.74864C6.68009 5.75796 6.66622 5.76728 6.65465 5.7766C6.70784 5.53892 6.89284 5.21969 7.01078 5.0892C7.12178 4.96803 7.19809 4.80491 7.25822 4.67209C7.28828 4.60452 7.32991 4.51364 7.35072 4.49733C7.38772 4.4717 7.39697 4.42044 7.37153 4.38315C7.34609 4.34587 7.29522 4.33655 7.25822 4.36218C7.20272 4.39946 7.16341 4.48568 7.11022 4.60219C7.05472 4.72336 6.98534 4.87249 6.89053 4.97502C6.8674 5.00065 6.84197 5.03094 6.81653 5.06589C6.86278 4.97269 6.89515 4.8655 6.90209 4.7187C6.90441 4.67442 6.86972 4.63481 6.82578 4.63481C6.78184 4.63248 6.74253 4.66743 6.74253 4.71171C6.73328 4.9354 6.65465 5.04026 6.54828 5.18473C6.51822 5.22435 6.48815 5.26629 6.45578 5.31522C6.28234 5.57853 6.21528 5.81621 6.25922 6.02127C6.26153 6.03292 6.26384 6.04457 6.26847 6.05622C6.25459 6.0702 6.2384 6.08418 6.22222 6.09816C6.18753 5.9467 6.16672 5.74165 6.2199 5.53892C6.27772 5.32221 6.37715 5.22435 6.47197 5.12881C6.5529 5.04725 6.63615 4.9657 6.67547 4.82356C6.68703 4.77928 6.66159 4.73501 6.61765 4.72336C6.57372 4.71171 6.52978 4.73734 6.51822 4.78161C6.49278 4.87948 6.43265 4.94006 6.35865 5.0123C6.2569 5.1125 6.13203 5.236 6.06265 5.49698C5.98865 5.78126 6.03721 6.05855 6.08809 6.23331C5.99328 6.33351 5.88459 6.464 5.76203 6.63177C5.74815 6.65041 5.74353 6.67372 5.74815 6.69469C5.75278 6.71566 5.76434 6.73663 5.78515 6.74828C5.85221 6.79256 5.9609 6.76925 6.18984 6.70634C6.02796 6.84149 5.88228 7.02557 5.86146 7.05354C5.84065 7.07917 5.83834 7.11645 5.85684 7.14441C5.87071 7.17004 5.89846 7.18403 5.92621 7.18403C5.93084 7.18403 5.93315 7.18403 5.93778 7.18403C6.03953 7.17004 6.14822 7.15606 6.24534 7.14907V7.1514C6.49972 7.82016 6.61997 8.59378 6.70784 9.16002C6.79109 9.70062 6.83272 9.94063 6.92753 10.0199C6.9414 10.0315 6.95528 10.0432 6.97147 10.0525C6.97378 10.0548 6.97609 10.0595 6.9784 10.0618C7.00384 10.0967 7.04084 10.1177 7.08247 10.1247C7.08941 10.1247 7.09634 10.127 7.10328 10.127C7.24203 10.19 7.39697 10.2202 7.49178 10.2086C7.54034 10.2016 7.57734 10.183 7.59816 10.1527C7.60972 10.1364 7.61666 10.1177 7.62128 10.0921C7.64209 10.1317 7.67216 10.1643 7.70916 10.1806C7.77391 10.2086 7.84791 10.19 7.92422 10.127C8.1971 9.908 8.13928 9.42799 8.07685 8.92234C8.06297 8.80816 8.0491 8.69165 8.03753 8.57747C8.24797 8.51223 8.4376 8.31416 8.55091 8.03454C8.56247 8.00425 8.57403 7.97163 8.5856 7.939C8.7336 8.6031 8.31272 9.91266 8.09303 10.4696C8.00747 10.5302 7.68834 10.7748 7.39466 11.1756C7.14491 11.5182 6.98534 11.884 6.92059 12.2615C6.28003 11.9842 5.53771 11.8071 5.17928 11.7209C5.0914 11.6999 5.02202 11.6836 4.98965 11.6743C4.91334 11.651 4.86709 11.623 4.81621 11.5881C4.72602 11.5298 4.62659 11.4646 4.37683 11.4226C4.06696 11.3714 3.41714 11.8956 2.77658 12.4386C2.66327 12.5341 2.57308 12.611 2.52914 12.6413C2.41583 12.7229 2.23545 12.8114 2.0782 12.8906C1.95333 12.9535 1.84695 13.0071 1.78914 13.0491C1.66426 13.1376 1.47233 13.4708 1.41683 13.571C1.34976 13.62 1.06995 13.832 0.896512 13.9998C0.847949 14.0464 0.804012 14.093 0.773949 14.1373C0.510323 14.5334 0.477948 14.6499 0.510323 14.7245C0.526511 14.7594 0.556573 14.7827 0.593574 14.7874L0.602824 14.7897H0.612074C1.60876 14.6872 1.88858 14.326 1.90014 14.312L1.92326 14.2817L1.91402 14.2445C1.91402 14.2445 1.8932 14.1606 1.90014 14.0534V14.0511C1.90245 13.9975 1.9117 13.9439 1.92789 13.8926C1.94639 13.8344 1.98108 13.7971 2.01345 13.7761L2.00189 13.8716C1.99958 13.8996 2.01114 13.9276 2.03195 13.9439C2.05277 13.9625 2.08283 13.9672 2.10827 13.9579C2.13833 13.9462 2.41583 13.8483 2.51758 13.7062C2.97314 13.0701 3.70621 12.3384 4.29127 12.3384C4.29821 12.3384 4.30283 12.3384 4.30977 12.3384C4.67746 12.4456 5.16309 12.8184 5.58859 13.1493C5.6279 13.1796 5.66721 13.2099 5.70653 13.2402C5.64178 13.2402 5.5909 13.2402 5.56546 13.2355C5.51459 13.2285 5.43596 13.2099 5.34578 13.1889C5.07059 13.126 4.72834 13.0468 4.53871 13.098C4.30746 13.1586 4.15715 13.4639 4.08546 13.6107C4.0739 13.634 4.06233 13.6549 4.05771 13.6642C4.0554 13.6666 4.05308 13.6736 4.04846 13.6806C3.91433 13.9206 3.69927 14.2188 3.43796 14.5171C2.80202 15.2464 2.48289 15.7241 2.33027 15.9525C2.31639 15.9735 2.30483 15.9898 2.29558 16.0061C2.28402 16.0224 2.27477 16.0387 2.2632 16.055C2.26089 16.0597 2.25627 16.0643 2.25395 16.069L2.23314 16.1016C2.07589 16.3463 1.97645 16.549 1.92095 16.6772C1.80764 16.9288 1.82383 16.9684 1.83308 16.9917C1.84695 17.0267 1.87933 17.0477 1.91864 17.05C1.92095 17.05 1.92326 17.05 1.92558 17.05C2.00883 17.05 2.2262 16.9661 2.5777 16.8007C3.11189 16.549 3.13733 16.5001 3.14658 16.4838V16.4814C3.16277 16.4488 3.16046 16.4115 3.15352 16.337C3.14889 16.2787 3.14427 16.2088 3.14889 16.1366C3.15814 16.0037 3.19514 15.9245 3.26452 15.8919C3.31077 15.8686 3.33158 15.8802 3.33852 15.8826C3.39402 15.9129 3.43333 16.0434 3.44258 16.1249C3.44489 16.1575 3.46802 16.1832 3.49808 16.1925C3.50964 16.1972 3.60446 16.2251 3.7039 16.1645C3.7964 16.1086 3.85652 15.9968 3.88427 15.8313C3.89352 15.7731 3.90277 15.7148 3.91202 15.6542C4.00915 15.0367 4.11783 14.3353 4.80002 14.2025C5.17696 14.1303 5.87765 14.2841 6.55522 14.4355C7.32528 14.6056 7.9936 14.7548 8.27803 14.6103C8.3266 14.594 8.37053 14.5777 8.40985 14.559C9.1591 14.9668 10.3616 15.3443 12.1006 15.1229C12.1029 15.1229 12.1029 15.1229 12.1052 15.1229C12.8337 14.9878 13.3679 14.7688 13.8373 14.5707C14.0292 14.813 14.3345 15.1229 14.723 15.2697C15.0028 15.3769 15.2826 15.4422 15.5786 15.5097C15.9787 15.603 16.4296 15.7078 16.9592 15.9385C17.6506 16.2391 18.4276 17.7094 18.7606 18.3386C18.8924 18.5856 18.9387 18.6741 18.9711 18.7068C19.0358 18.7743 19.1306 18.8209 19.2185 18.8652C19.3041 18.9095 19.3943 18.9538 19.4567 19.0143C19.5608 19.1751 19.6694 19.3196 19.7758 19.4454L19.7943 19.4664C20.1319 19.8509 20.4326 19.993 20.5875 20C20.5898 20 20.5921 20 20.5944 20C20.6314 20 20.6592 19.9907 20.68 19.9697C20.7124 19.9371 20.7124 19.8951 20.6939 19.7856C20.6523 19.5456 20.4118 18.5436 20.0672 18.3805C20.0603 18.3759 20.051 18.3735 20.0441 18.3689C20.0348 18.3479 20.0163 18.3293 19.9932 18.3223C19.94 18.306 19.8938 18.3013 19.8544 18.299L19.7966 18.2803V18.299C19.7643 18.3013 19.7388 18.306 19.7157 18.3106C19.6949 18.313 19.6694 18.3176 19.6602 18.3153C19.6278 18.2873 19.5631 18.2081 19.4937 18.1172C19.5538 18.1382 19.6116 18.1568 19.6579 18.1662C19.6926 18.1731 19.7273 18.1568 19.7434 18.1242C19.7527 18.1056 19.755 18.0846 19.7504 18.066C19.7643 18.0427 19.7689 18.0147 19.7573 17.9891C19.7481 17.9681 19.7365 17.9238 19.7249 17.8795C19.6903 17.7537 19.6602 17.6512 19.6209 17.5953C19.5631 17.516 19.4382 17.4391 19.3064 17.3576C19.2185 17.304 19.1283 17.2481 19.089 17.2084C19.0844 17.2038 19.0821 17.2015 19.0774 17.1991C19.0081 17.1455 18.8115 16.6632 18.6681 16.3113C18.3629 15.5633 18.2126 15.2255 18.0831 15.1649C17.9929 15.1136 17.9628 15.1113 17.8657 15.1206C17.8264 15.1253 17.7755 15.1299 17.6922 15.1323C17.4679 15.1323 17.3037 15.0088 17.1812 14.848C17.4795 14.8829 17.7616 14.9039 18.016 14.9225C18.5964 14.9645 19.0983 15.0018 19.4798 15.1859C20.0926 15.4795 20.9737 17.05 21.0778 17.2923C21.1263 17.4042 21.1448 17.5067 21.1633 17.6046C21.1818 17.7024 21.2003 17.8026 21.2466 17.9075C21.3206 18.0636 21.4616 18.1452 21.5472 18.1941C21.5611 18.2034 21.5796 18.2128 21.5888 18.2197C21.6351 18.3153 21.7969 18.504 21.9773 18.6788L22.0143 18.7137C22.2178 18.9048 22.4791 19.1029 22.6757 19.1029C22.7289 19.1029 22.7775 19.0889 22.8191 19.0539C22.9601 18.9374 22.9255 18.6834 22.7127 18.25C22.5763 17.9727 22.4167 17.7257 22.3959 17.6931C22.3774 17.6605 22.2964 17.5417 22.0652 17.5347H22.0536L22.0421 17.537C22.0282 17.5417 22.012 17.5417 21.9958 17.544H21.9935C21.8409 17.551 21.7322 17.3669 21.6767 17.2481C21.7114 17.2457 21.753 17.2434 21.7923 17.2387C22.0166 17.2201 22.0814 17.2061 22.0976 17.1362C22.1045 17.1083 22.0976 17.0663 22.056 17.0407C21.0893 16.3533 20.4488 14.0697 20.4418 14.0464C20.4349 14.0184 20.4141 13.9951 20.3863 13.9881C20.3586 13.9812 20.3308 13.9881 20.31 14.0068C20.2961 14.0161 20.1273 14.1256 19.6394 14.0487C19.1144 13.9625 19.089 13.1539 19.0936 12.9093C19.0983 12.7089 19.0636 12.2405 18.9133 11.7652C18.7814 11.3457 18.5918 11.0148 18.349 10.7725C18.7999 10.5861 19.3179 10.4067 19.4844 10.4393C19.5654 10.4556 19.6486 10.4905 19.7319 10.5395C19.866 10.6863 20.0071 10.8913 20.1481 11.0941C20.4256 11.4949 20.7101 11.9073 21.013 11.9935C21.0639 12.0075 21.1217 12.0191 21.1841 12.0308C21.6628 12.4176 22.3311 12.4432 22.3612 12.4432H22.3635C22.4051 12.4432 22.4375 12.4129 22.4445 12.3733C22.4745 12.3687 22.5023 12.3477 22.5115 12.3151C22.5161 12.3011 22.5161 12.2871 22.5138 12.2755C22.7844 12.3221 22.9763 12.3197 22.9925 12.3174C23.0365 12.3151 23.0735 12.2778 23.0711 12.2335C23.0711 12.2195 23.0665 12.2056 23.0596 12.1939C23.1313 12.1962 23.1752 12.1962 23.1845 12.1962C23.2284 12.1962 23.2654 12.159 23.2631 12.1124C23.2631 12.1007 23.2608 12.089 23.2561 12.0797C23.3001 12.0821 23.3255 12.0751 23.3394 12.0681C23.3695 12.0541 23.3856 12.0238 23.3856 11.9935C23.3856 11.9819 23.3833 11.9702 23.3787 11.9586C23.3602 11.9213 23.3186 11.9026 23.2816 11.9143C23.277 11.9143 23.2561 11.9166 23.2145 11.9073C23.2978 11.905 23.351 11.9026 23.3602 11.9003C23.4041 11.8956 23.4388 11.856 23.4342 11.8118C23.4296 11.7675 23.3926 11.7325 23.3463 11.7372C23.3417 11.7372 23.0943 11.7558 22.7775 11.7186C22.7659 11.7116 22.752 11.7046 22.7405 11.6976C22.8168 11.7046 22.8838 11.7046 22.937 11.6906C22.9763 11.6813 23.0041 11.644 22.9995 11.602C23.3232 11.7279 23.4365 11.7046 23.4758 11.6813C23.4966 11.6533 23.5105 11.6044 23.4897 11.5648ZM12.2602 9.01554C12.348 9.04118 12.4336 9.06681 12.5492 9.0738H12.5469C12.3781 9.0971 12.3041 9.06448 12.207 9.02254C12.1515 8.99923 12.0914 8.97127 12.0081 8.95496C12.1122 8.97127 12.1885 8.99457 12.2602 9.01554ZM11.9526 10.4579C11.9503 10.4556 11.9503 10.4556 11.948 10.4533C11.9619 10.4509 11.9757 10.4486 11.9896 10.4463C11.9757 10.4486 11.9642 10.4533 11.9526 10.4579ZM9.20304 5.03094C9.21691 5.00764 9.2331 4.98667 9.24929 4.97269C9.2886 4.9354 9.38341 4.90045 9.46898 4.86783C9.52216 4.84686 9.57304 4.82822 9.61929 4.80724C9.4921 4.8888 9.39035 4.97269 9.30941 5.04492C9.27472 5.03793 9.24004 5.03327 9.20304 5.03094ZM12.1122 10.5791C12.1307 10.5744 12.1492 10.5721 12.1654 10.5721C12.2024 10.5698 12.2463 10.5814 12.2949 10.5931C12.2972 10.5931 12.2995 10.5931 12.3018 10.5954C12.2509 10.5977 12.2047 10.6047 12.1677 10.614C12.1492 10.6024 12.1307 10.5907 12.1122 10.5791ZM12.2301 10.2505C12.3388 10.2762 12.4452 10.2995 12.5608 10.2902C12.5515 10.2902 12.5446 10.2925 12.5354 10.2971C12.4475 10.3391 12.3781 10.3204 12.2925 10.2971C12.2555 10.2878 12.2162 10.2762 12.1723 10.2715C12.1006 10.2622 11.985 10.2808 11.8786 10.3041C11.874 10.2902 11.8694 10.2738 11.8624 10.2575C11.9503 10.2319 12.0428 10.2133 12.1099 10.2272C12.1515 10.2319 12.1908 10.2412 12.2301 10.2505ZM12.0289 10.0385C12.0544 10.0408 12.0729 10.0478 12.096 10.0595C12.0081 10.0525 11.9087 10.0711 11.8185 10.0991C11.8162 10.0874 11.8139 10.0758 11.8092 10.0641C11.8994 10.0432 11.9827 10.0338 12.0289 10.0385ZM11.7422 8.94797C11.6982 8.95496 11.652 8.96428 11.608 8.9736C11.608 8.97127 11.608 8.96894 11.608 8.96661C11.6497 8.95962 11.6959 8.95263 11.7422 8.94797ZM11.6797 6.55954C11.7468 6.53857 11.8069 6.53391 11.867 6.53857C11.8509 6.5409 11.8347 6.5409 11.8185 6.54323C11.7676 6.54789 11.7167 6.55721 11.6682 6.56653C11.6705 6.5642 11.6751 6.56187 11.6797 6.55954ZM11.6404 6.73663C11.4924 6.80188 11.3213 6.89275 11.1432 6.98829C11.1363 6.96499 11.127 6.94169 11.1178 6.91839C11.2681 6.85314 11.4508 6.7809 11.6404 6.73663ZM11.3606 5.72999C11.1872 5.77893 10.9189 5.91408 10.7062 6.02593C10.6992 6.01428 10.6923 6.00263 10.6854 5.99097C10.8865 5.87447 11.1224 5.74631 11.2265 5.71834C11.2935 5.6997 11.3791 5.70203 11.4693 5.70436C11.4346 5.71368 11.3999 5.72067 11.3606 5.72999ZM11.0739 5.54591C11.319 5.49931 11.4832 5.50863 11.6289 5.51795C11.7375 5.52494 11.8324 5.5296 11.9341 5.51096C11.8 5.55523 11.6543 5.55057 11.5155 5.54591C11.3976 5.54125 11.2866 5.53892 11.1872 5.56455C11.0577 5.5995 10.7964 5.74165 10.5952 5.86048C10.579 5.83718 10.5605 5.81388 10.5443 5.79291C10.6992 5.68339 10.8889 5.58086 11.0739 5.54591ZM10.5859 4.81424C10.5628 4.82123 10.5397 4.82589 10.5142 4.83288C10.3408 4.88647 10.1257 5.09153 9.96616 5.26396C9.93148 5.24299 9.89679 5.22435 9.8621 5.2057C9.98004 5.07055 10.135 4.92375 10.2922 4.87715C10.4102 4.84453 10.5027 4.82822 10.5859 4.81424ZM9.92454 4.8189C10.172 4.69773 10.2737 4.69074 10.3847 4.68608C10.3408 4.6954 10.2945 4.70705 10.2437 4.72336C10.0355 4.78627 9.83898 4.97968 9.70485 5.14046C9.64241 5.11716 9.57998 5.09619 9.51523 5.07988C9.6216 4.99366 9.76035 4.90045 9.92454 4.8189ZM9.20997 4.73035C9.25622 4.70472 9.33022 4.68608 9.41116 4.6651C9.48285 4.64646 9.56379 4.62549 9.6401 4.5952C9.63085 4.60452 9.6216 4.61151 9.61466 4.62083C9.57997 4.65112 9.4921 4.68608 9.41348 4.71637C9.31172 4.75598 9.20535 4.79559 9.14291 4.85385C9.09666 4.89812 9.05504 4.96104 9.02497 5.02162C8.99954 5.02162 8.9741 5.01929 8.95097 5.01929C8.98566 4.94006 9.05966 4.83987 9.20997 4.73035ZM8.81454 4.83055C8.87697 4.78161 8.92785 4.74666 8.9741 4.71637C8.85847 4.82822 8.80297 4.93074 8.77522 5.01929C8.74285 5.01929 8.71279 5.02162 8.68041 5.02395C8.7151 4.94473 8.75904 4.87249 8.81454 4.83055ZM6.58759 5.39678C6.61765 5.35251 6.6454 5.31289 6.67547 5.27328C6.68009 5.26862 6.6824 5.26163 6.68703 5.25697C6.5714 5.45969 6.47197 5.70902 6.47659 5.89544C6.4604 5.90243 6.43959 5.91641 6.40953 5.93505C6.39565 5.81155 6.43034 5.63446 6.58759 5.39678ZM23.0295 12.0168C22.974 12.0145 22.9023 12.0075 22.8214 11.9982C22.826 11.9865 22.8283 11.9749 22.826 11.9632C22.826 11.9469 22.8191 11.9306 22.8098 11.9189C22.8954 11.9632 22.9694 11.9958 23.0295 12.0168ZM19.8244 10.402C19.7804 10.3554 19.7388 10.3158 19.6949 10.2808C19.9354 10.4113 20.2198 10.7049 20.5204 11.0125C20.5574 11.0521 20.5968 11.0894 20.6338 11.129C20.643 11.143 20.6523 11.157 20.6615 11.171C20.7124 11.2479 20.7633 11.3224 20.8118 11.3923C20.8049 11.383 20.7979 11.3737 20.7887 11.3644C20.5066 11.0218 20.1713 10.614 19.8244 10.402ZM20.3146 11.0568C20.4372 11.1919 20.5551 11.3364 20.6638 11.4669C20.7471 11.5694 20.8303 11.6673 20.9066 11.7558C20.7147 11.6253 20.5135 11.3434 20.3146 11.0568ZM20.7586 11.0242C20.5944 10.7818 20.421 10.5255 20.2291 10.3298C20.5204 10.5278 20.6962 10.8191 20.8581 11.0847C20.8789 11.1197 20.8997 11.1546 20.9228 11.1896C20.8673 11.1337 20.8141 11.0801 20.7586 11.0242ZM21.0986 11.164C21.1564 11.2432 21.2119 11.3201 21.272 11.3923C21.2119 11.3317 21.1564 11.2525 21.0986 11.164ZM21.5403 12.0611C21.5564 12.0611 21.5726 12.0634 21.5888 12.0634C21.7021 12.1147 21.8178 12.159 21.9241 12.2009C21.8039 12.1683 21.6698 12.124 21.5403 12.0611ZM21.6513 11.7885C21.6698 11.7954 21.6883 11.8001 21.7068 11.8071C21.7646 11.8444 21.8224 11.877 21.8825 11.9073C21.8039 11.8723 21.7276 11.8327 21.6513 11.7885ZM21.7761 11.658C21.7461 11.637 21.716 11.616 21.6883 11.5927C21.4963 11.4413 21.3368 11.2176 21.1656 10.9799C21.1217 10.9193 21.0801 10.8587 21.0338 10.7981C21.0708 10.8424 21.1055 10.8843 21.1425 10.9286C21.3344 11.1616 21.5171 11.383 21.7368 11.5345C21.8686 11.6253 22.012 11.6929 22.1577 11.7442C22.0398 11.7232 21.9056 11.6952 21.7761 11.658ZM21.8293 11.4016C21.6281 11.2618 21.4547 11.0521 21.2697 10.8261C21.1703 10.7073 21.0685 10.5814 20.9575 10.4626C21.1171 10.6024 21.2443 10.7492 21.3622 10.8843C21.4639 11.0009 21.5611 11.1127 21.6628 11.2013C21.8293 11.3457 22.0305 11.4646 22.2248 11.5508C22.2525 11.5764 22.2803 11.5997 22.308 11.623C22.1392 11.5717 21.9727 11.5018 21.8293 11.4016ZM20.976 10.2669C21.3252 10.4999 21.5703 10.8005 21.7969 11.0778C21.8178 11.1034 21.8386 11.129 21.8594 11.1546C21.827 11.1313 21.7946 11.1057 21.7646 11.0778C21.6698 10.9962 21.5773 10.889 21.4778 10.7748C21.3391 10.614 21.1818 10.4346 20.976 10.2669ZM22.7474 11.8887C22.7451 11.8887 22.7428 11.8887 22.7405 11.8887C22.7381 11.8887 22.6942 11.891 22.6202 11.8956C22.6202 11.8933 22.6225 11.8887 22.6225 11.8863C22.6225 11.877 22.6225 11.8677 22.6202 11.8607C22.6526 11.8654 22.685 11.87 22.715 11.8747C22.7266 11.8793 22.7358 11.884 22.7474 11.8887ZM22.3126 11.411C22.1785 11.2875 22.0536 11.1337 21.9241 10.9752C21.6143 10.5977 21.2443 10.1434 20.6037 9.88936C21.1795 10.0898 21.5403 10.4696 21.864 10.8121C22.0883 11.0498 22.3011 11.2712 22.5555 11.4016C22.6572 11.4552 22.7497 11.4972 22.8306 11.5345C22.7104 11.5391 22.5184 11.4972 22.3126 11.411Z" fill="#14004E"/>
</svg>
