<svg width="288" height="32" viewBox="0 0 288 32" fill="none" xmlns="http://www.w3.org/2000/svg">
<path d="M10.2529 3.36914L4.78223 30.4316L31.9893 31.9986L37.4116 4.84173L10.2542 3.37043L10.2529 3.36914ZM22.6478 22.5994L12.3225 21.9801L14.7867 9.4935L25.1872 10.0637L22.6478 22.5994Z" fill="#D2DE26"/>
<path d="M25.1563 10.0625L30.5129 10.2538L27.4582 25.78L22.6774 22.456L25.1563 10.0625Z" fill="#8065AC"/>
<path d="M12.3171 21.9814L22.6679 22.4559L27.4487 25.7799L11.7749 24.9253L12.3171 21.9814Z" fill="#A78AC0"/>
<mask id="mask0_1636_23081" style="mask-type:luminance" maskUnits="userSpaceOnUse" x="11" y="21" width="17" height="5">
<path d="M12.3186 21.9805L22.6694 22.455L27.4502 25.7789L11.7764 24.9244L12.3186 21.9805Z" fill="white"/>
</mask>
<g mask="url(#mask0_1636_23081)">
<path d="M12.0354 21.9805H11.7764V25.7789H12.0354V21.9805Z" fill="#A78AC0"/>
<path d="M12.2935 21.9805H12.0344V25.7789H12.2935V21.9805Z" fill="#A78AC0"/>
<path d="M12.5596 21.9805H12.3005V25.7789H12.5596V21.9805Z" fill="#A78AC0"/>
<path d="M12.8096 21.9805H12.5505V25.7789H12.8096V21.9805Z" fill="#A78AC0"/>
<path d="M13.0676 21.9805H12.8086V25.7789H13.0676V21.9805Z" fill="#A78AC0"/>
<path d="M13.3257 21.9805H13.0667V25.7789H13.3257V21.9805Z" fill="#A78AC0"/>
<path d="M13.5837 21.9805H13.3247V25.7789H13.5837V21.9805Z" fill="#A78AC0"/>
<path d="M13.85 21.9805H13.5909V25.7789H13.85V21.9805Z" fill="#A78AC0"/>
<path d="M14.1 21.9805H13.8409V25.7789H14.1V21.9805Z" fill="#A78AC0"/>
<path d="M14.358 21.9805H14.099V25.7789H14.358V21.9805Z" fill="#A78AC0"/>
<path d="M14.6161 21.9805H14.3571V25.7789H14.6161V21.9805Z" fill="#A78AC0"/>
<path d="M14.8822 21.9805H14.6232V25.7789H14.8822V21.9805Z" fill="#A78AC0"/>
<path d="M15.1403 21.9805H14.8812V25.7789H15.1403V21.9805Z" fill="#A78AC0"/>
<path d="M15.3983 21.9805H15.1393V25.7789H15.3983V21.9805Z" fill="#A78AC0"/>
<path d="M15.6483 21.9805H15.3893V25.7789H15.6483V21.9805Z" fill="#A78AC0"/>
<path d="M15.9064 21.9805H15.6473V25.7789H15.9064V21.9805Z" fill="#A78AC0"/>
<path d="M16.1725 21.9805H15.9135V25.7789H16.1725V21.9805Z" fill="#A78AC0"/>
<path d="M16.4305 21.9805H16.1715V25.7789H16.4305V21.9805Z" fill="#A78AC0"/>
<path d="M16.6886 21.9805H16.4296V25.7789H16.6886V21.9805Z" fill="#A78AC0"/>
<path d="M16.9386 21.9805H16.6796V25.7789H16.9386V21.9805Z" fill="#A78AC0"/>
<path d="M17.2047 21.9805H16.9457V25.7789H17.2047V21.9805Z" fill="#A78AC0"/>
<path d="M17.4628 21.9805H17.2037V25.7789H17.4628V21.9805Z" fill="#A78AC0"/>
<path d="M17.7208 21.9805H17.4618V25.7789H17.7208V21.9805Z" fill="#A78AC0"/>
<path d="M17.9871 21.9805H17.728V25.7789H17.9871V21.9805Z" fill="#A78AC0"/>
<path d="M18.2371 21.9805H17.978V25.7789H18.2371V21.9805Z" fill="#A78AC0"/>
<path d="M18.4951 21.9805H18.2361V25.7789H18.4951V21.9805Z" fill="#A78AC0"/>
<path d="M18.7532 21.9805H18.4941V25.7789H18.7532V21.9805Z" fill="#A78AC0"/>
<path d="M19.0112 21.9805H18.7522V25.7789H19.0112V21.9805Z" fill="#A78AC0"/>
<path d="M19.2773 21.9805H19.0183V25.7789H19.2773V21.9805Z" fill="#A78AC0"/>
<path d="M19.5273 21.9805H19.2683V25.7789H19.5273V21.9805Z" fill="#A78AC0"/>
<path d="M19.7854 21.9805H19.5264V25.7789H19.7854V21.9805Z" fill="#A78AC0"/>
<path d="M20.1039 21.9805H19.7844V25.7789H20.1039V21.9805Z" fill="#A78AC0"/>
<path d="M20.4265 21.9805H20.1071V25.7789H20.4265V21.9805Z" fill="#A78AC0"/>
<path d="M20.7409 21.9805H20.4215V25.7789H20.7409V21.9805Z" fill="#A78AC0"/>
<path d="M21.0636 21.9805H20.7441V25.7789H21.0636V21.9805Z" fill="#A78AC0"/>
<path d="M21.3861 21.9805H21.0667V25.7789H21.3861V21.9805Z" fill="#A78AC0"/>
<path d="M21.7007 21.9805H21.3812V25.7789H21.7007V21.9805Z" fill="#A78AC0"/>
<path d="M22.0232 21.9805H21.7037V25.7789H22.0232V21.9805Z" fill="#A78AC0"/>
<path d="M22.3458 21.9805H22.0264V25.7789H22.3458V21.9805Z" fill="#A78AC0"/>
<path d="M22.6604 21.9805H22.3409V25.7789H22.6604V21.9805Z" fill="#A78AC0"/>
<path d="M22.9829 21.9805H22.6635V25.7789H22.9829V21.9805Z" fill="#A78AC0"/>
<path d="M23.3055 21.9805H22.9861V25.7789H23.3055V21.9805Z" fill="#A78AC0"/>
<path d="M23.62 21.9805H23.3005V25.7789H23.62V21.9805Z" fill="#A78AC0"/>
<path d="M23.9426 21.9805H23.6232V25.7789H23.9426V21.9805Z" fill="#A78AC0"/>
<path d="M24.249 21.9805H23.9296V25.7789H24.249V21.9805Z" fill="#A78AC0"/>
<path d="M24.5716 21.9805H24.2522V25.7789H24.5716V21.9805Z" fill="#A78AC0"/>
<path d="M24.8941 21.9805H24.5747V25.7789H24.8941V21.9805Z" fill="#A78AC0"/>
<path d="M25.2087 21.9805H24.8893V25.7789H25.2087V21.9805Z" fill="#A78AC0"/>
<path d="M25.5312 21.9805H25.2118V25.7789H25.5312V21.9805Z" fill="#A78AC0"/>
<path d="M25.8539 21.9805H25.5344V25.7789H25.8539V21.9805Z" fill="#A78AC0"/>
<path d="M26.1684 21.9805H25.849V25.7789H26.1684V21.9805Z" fill="#A78AC0"/>
<path d="M26.4909 21.9805H26.1715V25.7789H26.4909V21.9805Z" fill="#A78AC0"/>
<path d="M26.8136 21.9805H26.4941V25.7789H26.8136V21.9805Z" fill="#A78AC0"/>
<path d="M27.128 21.9805H26.8086V25.7789H27.128V21.9805Z" fill="#A78AC0"/>
<path d="M27.4507 21.9805H27.1312V25.7789H27.4507V21.9805Z" fill="#A78AC0"/>
</g>
<path d="M10.2476 3.37053L37.4063 4.84312L32.6255 1.42475L5.4668 0L10.2476 3.37053Z" fill="#A78AC0"/>
<mask id="mask1_1636_23081" style="mask-type:luminance" maskUnits="userSpaceOnUse" x="5" y="0" width="33" height="5">
<path d="M10.2455 3.37053L37.4043 4.84312L32.6235 1.42475L5.46472 0L10.2455 3.37053Z" fill="white"/>
</mask>
<g mask="url(#mask1_1636_23081)">
<path d="M6.23378 0H5.46472V4.84312H6.23378V0Z" fill="#A78AC0"/>
<path d="M7.00795 0H6.23889V4.84312H7.00795V0Z" fill="#A78AC0"/>
<path d="M7.77407 0H7.005V4.84312H7.77407V0Z" fill="#A78AC0"/>
<path d="M8.53212 0H7.76306V4.84312H8.53212V0Z" fill="#A78AC0"/>
<path d="M9.30642 0H8.53735V4.84312H9.30642V0Z" fill="#A78AC0"/>
<path d="M10.0792 0H9.31152V4.84312H10.0792V0Z" fill="#A78AC0"/>
<path d="M10.8467 0H10.0776V4.84312H10.8467V0Z" fill="#A78AC0"/>
<path d="M11.6034 0H10.8357V4.84312H11.6034V0Z" fill="#A78AC0"/>
<path d="M12.3789 0H11.6099V4.84312H12.3789V0Z" fill="#A78AC0"/>
<path d="M13.1518 0H12.384V4.84312H13.1518V0Z" fill="#A78AC0"/>
<path d="M13.9192 0H13.1501V4.84312H13.9192V0Z" fill="#A78AC0"/>
<path d="M14.6841 0H13.9164V4.84312H14.6841V0Z" fill="#A78AC0"/>
<path d="M15.4502 0H14.6825V4.84312H15.4502V0Z" fill="#A78AC0"/>
<path d="M16.2257 0H15.4567V4.84312H16.2257V0Z" fill="#A78AC0"/>
<path d="M16.9905 0H16.2228V4.84312H16.9905V0Z" fill="#A78AC0"/>
<path d="M17.766 0H16.9969V4.84312H17.766V0Z" fill="#A78AC0"/>
<path d="M18.5241 0H17.755V4.84312H18.5241V0Z" fill="#A78AC0"/>
<path d="M19.2984 0H18.5293V4.84312H19.2984V0Z" fill="#A78AC0"/>
<path d="M20.0645 0H19.2954V4.84312H20.0645V0Z" fill="#A78AC0"/>
<path d="M20.8386 0H20.0696V4.84312H20.8386V0Z" fill="#A78AC0"/>
<path d="M21.5967 0H20.8276V4.84312H21.5967V0Z" fill="#A78AC0"/>
<path d="M22.3709 0H21.6018V4.84312H22.3709V0Z" fill="#A78AC0"/>
<path d="M23.137 0H22.3679V4.84312H23.137V0Z" fill="#A78AC0"/>
<path d="M23.9112 0H23.1421V4.84312H23.9112V0Z" fill="#A78AC0"/>
<path d="M24.6692 0H23.9001V4.84312H24.6692V0Z" fill="#A78AC0"/>
<path d="M25.4435 0H24.6744V4.84312H25.4435V0Z" fill="#A78AC0"/>
<path d="M26.2096 0H25.4406V4.84312H26.2096V0Z" fill="#A78AC0"/>
<path d="M26.9838 0H26.2147V4.84312H26.9838V0Z" fill="#A78AC0"/>
<path d="M27.7405 0H26.9728V4.84312H27.7405V0Z" fill="#A78AC0"/>
<path d="M28.516 0H27.7469V4.84312H28.516V0Z" fill="#A78AC0"/>
<path d="M29.2808 0H28.5131V4.84312H29.2808V0Z" fill="#A78AC0"/>
<path d="M29.6256 0H29.2874V4.84312H29.6256V0Z" fill="#A78AC0"/>
<path d="M29.9561 0H29.6179V4.84312H29.9561V0Z" fill="#A78AC0"/>
<path d="M30.3029 0H29.9647V4.84312H30.3029V0Z" fill="#A78AC0"/>
<path d="M30.6336 0H30.2954V4.84312H30.6336V0Z" fill="#A78AC0"/>
<path d="M30.9803 0H30.6421V4.84312H30.9803V0Z" fill="#A78AC0"/>
<path d="M31.311 0H30.9728V4.84312H31.311V0Z" fill="#A78AC0"/>
<path d="M31.6578 0H31.3196V4.84312H31.6578V0Z" fill="#A78AC0"/>
<path d="M31.9884 0H31.6501V4.84312H31.9884V0Z" fill="#A78AC0"/>
<path d="M32.3352 0H31.9969V4.84312H32.3352V0Z" fill="#A78AC0"/>
<path d="M32.6659 0H32.3276V4.84312H32.6659V0Z" fill="#A78AC0"/>
<path d="M33.0046 0H32.6664V4.84312H33.0046V0Z" fill="#A78AC0"/>
<path d="M33.3432 0H33.005V4.84312H33.3432V0Z" fill="#A78AC0"/>
<path d="M33.6739 0H33.3357V4.84312H33.6739V0Z" fill="#A78AC0"/>
<path d="M34.0207 0H33.6825V4.84312H34.0207V0Z" fill="#A78AC0"/>
<path d="M34.3513 0H34.0131V4.84312H34.3513V0Z" fill="#A78AC0"/>
<path d="M34.6981 0H34.3599V4.84312H34.6981V0Z" fill="#A78AC0"/>
<path d="M35.0288 0H34.6906V4.84312H35.0288V0Z" fill="#A78AC0"/>
<path d="M35.3756 0H35.0374V4.84312H35.3756V0Z" fill="#A78AC0"/>
<path d="M35.7061 0H35.3679V4.84312H35.7061V0Z" fill="#A78AC0"/>
<path d="M36.0529 0H35.7147V4.84312H36.0529V0Z" fill="#A78AC0"/>
<path d="M36.3836 0H36.0454V4.84312H36.3836V0Z" fill="#A78AC0"/>
<path d="M36.7303 0H36.3921V4.84312H36.7303V0Z" fill="#A78AC0"/>
<path d="M37.061 0H36.7228V4.84312H37.061V0Z" fill="#A78AC0"/>
<path d="M37.4078 0H37.0696V4.84312H37.4078V0Z" fill="#A78AC0"/>
</g>
<path d="M5.47067 0L10.2515 3.37053L4.83046 30.3865L0 26.9203L5.47067 0Z" fill="#8065AC"/>
<path d="M56.1582 19.625C56.1582 22.1371 53.9155 23.929 51.3412 23.929C48.7669 23.929 46.5081 22.0569 46.5081 19.3858C46.5081 16.7148 46.857 13.7386 50.6768 12.8103C51.9559 12.5064 52.8686 12.3306 53.3008 12.0423L53.533 11.3545H54.7449V13.1943C53.9316 13.6907 52.8686 13.8187 51.1573 14.2505C49.3467 14.6979 48.6327 15.6262 48.3509 16.8104C49.281 15.9946 50.5265 15.3547 52.0042 15.3547C54.3302 15.3547 56.1569 16.9061 56.1569 19.6263L56.1582 19.625ZM48.1697 19.369C48.1697 21.0006 49.6809 22.3284 51.3425 22.3284C53.0041 22.3284 54.498 21.2566 54.498 19.625C54.498 17.7853 52.9531 16.9527 51.6741 16.9527C50.2956 16.9527 49.0327 17.497 48.1697 18.4563V19.3677V19.369Z" fill="#8065AC"/>
<path d="M60.7845 18.1376C62.4286 18.1376 63.4916 18.3457 64.4056 18.7775V18.2177C64.4056 17.0011 63.3265 16.3611 62.1132 16.3611C61.0999 16.3611 60.5348 16.4568 59.8704 16.793L59.7711 17.4329H58.4424V15.8647C59.5725 15.2402 60.4852 14.873 62.1132 14.873C64.4056 14.873 66.0659 16.025 66.0659 18.5203V23.8805H64.7371L64.4714 22.5527C63.5574 23.2561 62.4622 23.9284 60.7845 23.9284C58.8074 23.9284 57.629 22.6329 57.629 21.0323C57.629 19.4317 58.8088 18.1363 60.7845 18.1363V18.1376ZM61.1173 22.5049C62.43 22.5049 63.5091 21.8171 64.4056 20.9845V20.201C63.5252 19.7847 62.2635 19.561 60.9509 19.561C59.6383 19.561 59.2396 20.2967 59.2396 21.0323C59.2396 21.768 59.8543 22.5036 61.116 22.5036L61.1173 22.5049Z" fill="#8065AC"/>
<path d="M74.6756 14.9229V22.3944H78.2967V14.9229H79.9583V23.8825H67.7339V14.9229H69.3955V22.3944H73.0167V14.9229H74.6769H74.6756Z" fill="#8065AC"/>
<path d="M81.7903 23.8825V14.9229H84.8799L86.4744 19.1945H86.9066L88.5172 14.9229H91.6069V23.8825H89.9453V16.411H89.4809L87.9025 20.6826H85.4947L83.9163 16.411H83.4519V23.8825H81.7903Z" fill="#8065AC"/>
<path d="M102.561 19.3852C102.561 21.8972 100.319 23.9284 97.7444 23.9284C95.1701 23.9284 92.9113 21.896 92.9113 19.3852C92.9113 16.8744 95.154 14.873 97.7444 14.873C100.335 14.873 102.561 16.9054 102.561 19.3852ZM94.5729 19.3852C94.5729 21.0168 96.0506 22.3291 97.7457 22.3291C99.4409 22.3291 100.901 21.0168 100.901 19.3852C100.901 17.7536 99.4396 16.4736 97.7457 16.4736C96.0519 16.4736 94.5729 17.7859 94.5729 19.3852Z" fill="#8065AC"/>
<path d="M105.186 14.9202H112.693V23.8799H111.031V16.4083H107.826L106.513 22.4874C106.315 23.4312 105.252 23.9277 104.354 23.9277L103.54 23.7674V22.3271H104.354C104.619 22.3271 104.968 22.1035 105.052 21.7027L106.182 16.407H105.186V14.9189V14.9202Z" fill="#8065AC"/>
<path d="M123.989 19.3852C123.989 21.8972 121.746 23.9284 119.172 23.9284C116.598 23.9284 114.339 21.896 114.339 19.3852C114.339 16.8744 116.582 14.873 119.172 14.873C121.762 14.873 123.989 16.9054 123.989 19.3852ZM116 19.3852C116 21.0168 117.478 22.3291 119.173 22.3291C120.868 22.3291 122.329 21.0168 122.329 19.3852C122.329 17.7536 120.867 16.4736 119.173 16.4736C117.479 16.4736 116 17.7859 116 19.3852Z" fill="#8065AC"/>
<path d="M126.725 14.9229H134.398V22.3944H135.56V26.1218H134.065L133.899 23.8812H126.791L126.624 26.1218H125.129V22.3944H126.059C126.325 22.3944 126.674 22.1061 126.757 21.7066L127.887 16.3631H126.725V14.9229ZM132.738 22.3944V16.3631H129.533L128.237 22.3944H132.739H132.738Z" fill="#8065AC"/>
<path d="M144.229 21.2556L145.242 22.4877C145.043 22.7282 143.929 23.9279 141.538 23.9279C138.947 23.9279 136.871 21.9447 136.871 19.3848C136.871 16.8249 138.914 14.8726 141.505 14.8726C144.097 14.8726 146.007 16.8249 146.007 19.3848C146.007 19.5774 145.991 19.8489 145.974 19.9614H138.582C138.882 21.337 140.077 22.3778 141.539 22.3778C143.134 22.3778 143.947 21.5775 144.23 21.2582L144.229 21.2556ZM138.648 18.472H144.195C143.995 17.4002 142.866 16.4719 141.504 16.4719C140.142 16.4719 138.98 17.3201 138.647 18.472H138.648ZM139.844 12.0723C140.391 12.0723 140.824 12.4407 140.824 12.9359C140.824 13.4311 140.391 13.784 139.844 13.784C139.296 13.784 138.88 13.4324 138.88 12.9359C138.88 12.4394 139.295 12.0723 139.844 12.0723ZM143.332 12.0723C143.88 12.0723 144.312 12.4407 144.312 12.9359C144.312 13.4311 143.88 13.784 143.332 13.784C142.785 13.784 142.368 13.4324 142.368 12.9359C142.368 12.4394 142.783 12.0723 143.332 12.0723Z" fill="#8065AC"/>
<path d="M155.295 19.9599V23.8799H153.633V19.9599H151.491C151.158 19.9922 150.993 20.2159 150.827 20.5843L149.913 22.4887C149.464 23.417 148.651 23.929 147.753 23.929L147.105 23.7687V22.3284H147.753C148.019 22.3284 148.251 22.1048 148.451 21.704L149.365 19.7996C149.464 19.5759 149.829 19.2553 149.98 19.2074C149.813 19.1273 149.432 18.8079 149.332 18.5519L148.766 17.144C148.6 16.7445 148.334 16.5195 148.069 16.5195H147.42V15.0793L148.069 14.9189C148.965 14.9189 149.796 15.4309 150.228 16.3592L150.793 17.7672C150.942 18.1511 151.208 18.4395 151.457 18.4705H153.633V14.9189H155.295V18.4705H157.47C157.703 18.4382 157.986 18.1511 158.135 17.7672L158.7 16.3592C159.132 15.4309 159.961 14.9189 160.859 14.9189L161.508 15.0793V16.5195H160.859C160.594 16.5195 160.328 16.7432 160.161 17.144L159.596 18.5519C159.497 18.8079 159.098 19.1286 158.948 19.2074C159.097 19.2553 159.446 19.5759 159.563 19.7996L160.477 21.704C160.659 22.1035 160.909 22.3284 161.175 22.3284H161.823V23.7687L161.175 23.929C160.261 23.929 159.464 23.417 159.015 22.4887L158.101 20.5843C157.919 20.2159 157.703 19.9922 157.437 19.9599H155.295Z" fill="#8065AC"/>
<path d="M163.476 14.9229H165.137V18.155H169.007C170.651 18.155 171.997 19.4195 171.997 21.0033C171.997 22.587 170.652 23.8825 169.007 23.8825H163.476V14.9229ZM169.007 22.331C169.771 22.331 170.385 21.7389 170.385 21.0033C170.385 20.2676 169.771 19.7078 169.007 19.7078H165.137V22.331H169.007Z" fill="#8065AC"/>
</svg>
