<svg width="151" height="28" viewBox="0 0 151 28" fill="none" xmlns="http://www.w3.org/2000/svg">
<g clip-path="url(#clip0_1667_15765)">
<path d="M9.44281 3.26172L4.67188 26.8627L28.399 28.2293L33.1278 4.54595L9.44398 3.26285L9.44281 3.26172ZM20.2523 20.0323L11.2477 19.4922L13.3967 8.60273L22.4669 9.09996L20.2523 20.0323Z" fill="#D2DE26"/>
<path d="M22.4353 9.09961L27.1068 9.26648L24.4427 22.8067L20.2734 19.9079L22.4353 9.09961Z" fill="#8065AC"/>
<path d="M11.2385 19.4941L20.2654 19.9079L24.4347 22.8068L10.7656 22.0615L11.2385 19.4941Z" fill="#A78AC0"/>
<mask id="mask0_1667_15765" style="mask-type:luminance" maskUnits="userSpaceOnUse" x="10" y="19" width="15" height="4">
<path d="M11.2307 19.4941L20.2575 19.9079L24.4268 22.8068L10.7578 22.0615L11.2307 19.4941Z" fill="white"/>
</mask>
<g mask="url(#mask0_1667_15765)">
<path d="M10.9837 19.4941H10.7578V22.8068H10.9837V19.4941Z" fill="#A78AC0"/>
<path d="M11.2103 19.4941H10.9844V22.8068H11.2103V19.4941Z" fill="#A78AC0"/>
<path d="M11.4368 19.4941H11.2109V22.8068H11.4368V19.4941Z" fill="#A78AC0"/>
<path d="M11.6556 19.4941H11.4297V22.8068H11.6556V19.4941Z" fill="#A78AC0"/>
<path d="M11.8822 19.4941H11.6562V22.8068H11.8822V19.4941Z" fill="#A78AC0"/>
<path d="M12.1165 19.4941H11.8906V22.8068H12.1165V19.4941Z" fill="#A78AC0"/>
<path d="M12.3275 19.4941H12.1016V22.8068H12.3275V19.4941Z" fill="#A78AC0"/>
<path d="M12.5618 19.4941H12.3359V22.8068H12.5618V19.4941Z" fill="#A78AC0"/>
<path d="M12.7806 19.4941H12.5547V22.8068H12.7806V19.4941Z" fill="#A78AC0"/>
<path d="M13.0072 19.4941H12.7812V22.8068H13.0072V19.4941Z" fill="#A78AC0"/>
<path d="M13.2259 19.4941H13V22.8068H13.2259V19.4941Z" fill="#A78AC0"/>
<path d="M13.4603 19.4941H13.2344V22.8068H13.4603V19.4941Z" fill="#A78AC0"/>
<path d="M13.6947 19.4941H13.4688V22.8068H13.6947V19.4941Z" fill="#A78AC0"/>
<path d="M13.9056 19.4941H13.6797V22.8068H13.9056V19.4941Z" fill="#A78AC0"/>
<path d="M14.1243 19.4941H13.8984V22.8068H14.1243V19.4941Z" fill="#A78AC0"/>
<path d="M14.3509 19.4941H14.125V22.8068H14.3509V19.4941Z" fill="#A78AC0"/>
<path d="M14.5853 19.4941H14.3594V22.8068H14.5853V19.4941Z" fill="#A78AC0"/>
<path d="M14.8197 19.4941H14.5938V22.8068H14.8197V19.4941Z" fill="#A78AC0"/>
<path d="M15.0462 19.4941H14.8203V22.8068H15.0462V19.4941Z" fill="#A78AC0"/>
<path d="M15.265 19.4941H15.0391V22.8068H15.265V19.4941Z" fill="#A78AC0"/>
<path d="M15.4915 19.4941H15.2656V22.8068H15.4915V19.4941Z" fill="#A78AC0"/>
<path d="M15.7103 19.4941H15.4844V22.8068H15.7103V19.4941Z" fill="#A78AC0"/>
<path d="M15.9447 19.4941H15.7188V22.8068H15.9447V19.4941Z" fill="#A78AC0"/>
<path d="M16.179 19.4941H15.9531V22.8068H16.179V19.4941Z" fill="#A78AC0"/>
<path d="M16.3978 19.4941H16.1719V22.8068H16.3978V19.4941Z" fill="#A78AC0"/>
<path d="M16.6165 19.4941H16.3906V22.8068H16.6165V19.4941Z" fill="#A78AC0"/>
<path d="M16.8431 19.4941H16.6172V22.8068H16.8431V19.4941Z" fill="#A78AC0"/>
<path d="M17.0697 19.4941H16.8438V22.8068H17.0697V19.4941Z" fill="#A78AC0"/>
<path d="M17.2962 19.4941H17.0703V22.8068H17.2962V19.4941Z" fill="#A78AC0"/>
<path d="M17.515 19.4941H17.2891V22.8068H17.515V19.4941Z" fill="#A78AC0"/>
<path d="M17.7415 19.4941H17.5156V22.8068H17.7415V19.4941Z" fill="#A78AC0"/>
<path d="M18.0286 19.4941H17.75V22.8068H18.0286V19.4941Z" fill="#A78AC0"/>
<path d="M18.302 19.4941H18.0234V22.8068H18.302V19.4941Z" fill="#A78AC0"/>
<path d="M18.5755 19.4941H18.2969V22.8068H18.5755V19.4941Z" fill="#A78AC0"/>
<path d="M18.8569 19.4941H18.5784V22.8068H18.8569V19.4941Z" fill="#A78AC0"/>
<path d="M19.138 19.4941H18.8594V22.8068H19.138V19.4941Z" fill="#A78AC0"/>
<path d="M19.4114 19.4941H19.1328V22.8068H19.4114V19.4941Z" fill="#A78AC0"/>
<path d="M19.6926 19.4941H19.4141V22.8068H19.6926V19.4941Z" fill="#A78AC0"/>
<path d="M19.9817 19.4941H19.7031V22.8068H19.9817V19.4941Z" fill="#A78AC0"/>
<path d="M20.2473 19.4941H19.9688V22.8068H20.2473V19.4941Z" fill="#A78AC0"/>
<path d="M20.5364 19.4941H20.2578V22.8068H20.5364V19.4941Z" fill="#A78AC0"/>
<path d="M20.8101 19.4941H20.5315V22.8068H20.8101V19.4941Z" fill="#A78AC0"/>
<path d="M21.0833 19.4941H20.8047V22.8068H21.0833V19.4941Z" fill="#A78AC0"/>
<path d="M21.3645 19.4941H21.0859V22.8068H21.3645V19.4941Z" fill="#A78AC0"/>
<path d="M21.638 19.4941H21.3594V22.8068H21.638V19.4941Z" fill="#A78AC0"/>
<path d="M21.9192 19.4941H21.6406V22.8068H21.9192V19.4941Z" fill="#A78AC0"/>
<path d="M22.1926 19.4941H21.9141V22.8068H22.1926V19.4941Z" fill="#A78AC0"/>
<path d="M22.4661 19.4941H22.1875V22.8068H22.4661V19.4941Z" fill="#A78AC0"/>
<path d="M22.7551 19.4941H22.4766V22.8068H22.7551V19.4941Z" fill="#A78AC0"/>
<path d="M23.0364 19.4941H22.7578V22.8068H23.0364V19.4941Z" fill="#A78AC0"/>
<path d="M23.3098 19.4941H23.0312V22.8068H23.3098V19.4941Z" fill="#A78AC0"/>
<path d="M23.5911 19.4941H23.3125V22.8068H23.5911V19.4941Z" fill="#A78AC0"/>
<path d="M23.8723 19.4941H23.5938V22.8068H23.8723V19.4941Z" fill="#A78AC0"/>
<path d="M24.1458 19.4941H23.8672V22.8068H24.1458V19.4941Z" fill="#A78AC0"/>
<path d="M24.427 19.4941H24.1484V22.8068H24.427V19.4941Z" fill="#A78AC0"/>
</g>
<path d="M9.43493 3.26364L33.1199 4.54787L28.9506 1.56673L5.26562 0.324219L9.43493 3.26364Z" fill="#A78AC0"/>
<mask id="mask1_1667_15765" style="mask-type:luminance" maskUnits="userSpaceOnUse" x="5" y="0" width="29" height="5">
<path d="M9.44274 3.26364L33.1277 4.54787L28.9584 1.56673L5.27344 0.324219L9.44274 3.26364Z" fill="white"/>
</mask>
<g mask="url(#mask1_1667_15765)">
<path d="M5.94413 0.324219H5.27344V4.54787H5.94413V0.324219Z" fill="#A78AC0"/>
<path d="M6.61601 0.324219H5.94531V4.54787H6.61601V0.324219Z" fill="#A78AC0"/>
<path d="M7.28788 0.324219H6.61719V4.54787H7.28788V0.324219Z" fill="#A78AC0"/>
<path d="M7.93632 0.324219H7.26562V4.54787H7.93632V0.324219Z" fill="#A78AC0"/>
<path d="M8.62382 0.324219H7.95312V4.54787H8.62382V0.324219Z" fill="#A78AC0"/>
<path d="M9.29452 0.324219H8.625V4.54787H9.29452V0.324219Z" fill="#A78AC0"/>
<path d="M9.95976 0.324219H9.28906V4.54787H9.95976V0.324219Z" fill="#A78AC0"/>
<path d="M10.6224 0.324219H9.95288V4.54787H10.6224V0.324219Z" fill="#A78AC0"/>
<path d="M11.3035 0.324219H10.6328V4.54787H11.3035V0.324219Z" fill="#A78AC0"/>
<path d="M11.9742 0.324219H11.3047V4.54787H11.9742V0.324219Z" fill="#A78AC0"/>
<path d="M12.6473 0.324219H11.9766V4.54787H12.6473V0.324219Z" fill="#A78AC0"/>
<path d="M13.3258 0.324219H12.6562V4.54787H13.3258V0.324219Z" fill="#A78AC0"/>
<path d="M13.982 0.324219H13.3125V4.54787H13.982V0.324219Z" fill="#A78AC0"/>
<path d="M14.6551 0.324219H13.9844V4.54787H14.6551V0.324219Z" fill="#A78AC0"/>
<path d="M15.326 0.324219H14.6565V4.54787H15.326V0.324219Z" fill="#A78AC0"/>
<path d="M15.9988 0.324219H15.3281V4.54787H15.9988V0.324219Z" fill="#A78AC0"/>
<path d="M16.6629 0.324219H15.9922V4.54787H16.6629V0.324219Z" fill="#A78AC0"/>
<path d="M17.3348 0.324219H16.6641V4.54787H17.3348V0.324219Z" fill="#A78AC0"/>
<path d="M18.0144 0.324219H17.3438V4.54787H18.0144V0.324219Z" fill="#A78AC0"/>
<path d="M18.6785 0.324219H18.0078V4.54787H18.6785V0.324219Z" fill="#A78AC0"/>
<path d="M19.3348 0.324219H18.6641V4.54787H19.3348V0.324219Z" fill="#A78AC0"/>
<path d="M20.0223 0.324219H19.3516V4.54787H20.0223V0.324219Z" fill="#A78AC0"/>
<path d="M20.6863 0.324219H20.0156V4.54787H20.6863V0.324219Z" fill="#A78AC0"/>
<path d="M21.3582 0.324219H20.6875V4.54787H21.3582V0.324219Z" fill="#A78AC0"/>
<path d="M22.0223 0.324219H21.3516V4.54787H22.0223V0.324219Z" fill="#A78AC0"/>
<path d="M22.7019 0.324219H22.0312V4.54787H22.7019V0.324219Z" fill="#A78AC0"/>
<path d="M23.366 0.324219H22.6953V4.54787H23.366V0.324219Z" fill="#A78AC0"/>
<path d="M24.0379 0.324219H23.3672V4.54787H24.0379V0.324219Z" fill="#A78AC0"/>
<path d="M24.701 0.324219H24.0315V4.54787H24.701V0.324219Z" fill="#A78AC0"/>
<path d="M25.3738 0.324219H24.7031V4.54787H25.3738V0.324219Z" fill="#A78AC0"/>
<path d="M26.0367 0.324219H25.3672V4.54787H26.0367V0.324219Z" fill="#A78AC0"/>
<path d="M26.3418 0.324219H26.0469V4.54787H26.3418V0.324219Z" fill="#A78AC0"/>
<path d="M26.6387 0.324219H26.3438V4.54787H26.6387V0.324219Z" fill="#A78AC0"/>
<path d="M26.9356 0.324219H26.6406V4.54787H26.9356V0.324219Z" fill="#A78AC0"/>
<path d="M27.2247 0.324219H26.9297V4.54787H27.2247V0.324219Z" fill="#A78AC0"/>
<path d="M27.5215 0.324219H27.2266V4.54787H27.5215V0.324219Z" fill="#A78AC0"/>
<path d="M27.8184 0.324219H27.5234V4.54787H27.8184V0.324219Z" fill="#A78AC0"/>
<path d="M28.1153 0.324219H27.8203V4.54787H28.1153V0.324219Z" fill="#A78AC0"/>
<path d="M28.4043 0.324219H28.1094V4.54787H28.4043V0.324219Z" fill="#A78AC0"/>
<path d="M28.7012 0.324219H28.4062V4.54787H28.7012V0.324219Z" fill="#A78AC0"/>
<path d="M28.9903 0.324219H28.6953V4.54787H28.9903V0.324219Z" fill="#A78AC0"/>
<path d="M29.295 0.324219H29V4.54787H29.295V0.324219Z" fill="#A78AC0"/>
<path d="M29.584 0.324219H29.2891V4.54787H29.584V0.324219Z" fill="#A78AC0"/>
<path d="M29.8653 0.324219H29.5703V4.54787H29.8653V0.324219Z" fill="#A78AC0"/>
<path d="M30.1778 0.324219H29.8828V4.54787H30.1778V0.324219Z" fill="#A78AC0"/>
<path d="M30.459 0.324219H30.1641V4.54787H30.459V0.324219Z" fill="#A78AC0"/>
<path d="M30.7715 0.324219H30.4766V4.54787H30.7715V0.324219Z" fill="#A78AC0"/>
<path d="M31.0606 0.324219H30.7656V4.54787H31.0606V0.324219Z" fill="#A78AC0"/>
<path d="M31.3577 0.324219H31.0627V4.54787H31.3577V0.324219Z" fill="#A78AC0"/>
<path d="M31.6543 0.324219H31.3594V4.54787H31.6543V0.324219Z" fill="#A78AC0"/>
<path d="M31.9512 0.324219H31.6562V4.54787H31.9512V0.324219Z" fill="#A78AC0"/>
<path d="M32.2403 0.324219H31.9453V4.54787H32.2403V0.324219Z" fill="#A78AC0"/>
<path d="M32.5372 0.324219H32.2422V4.54787H32.5372V0.324219Z" fill="#A78AC0"/>
<path d="M32.834 0.324219H32.5391V4.54787H32.834V0.324219Z" fill="#A78AC0"/>
<path d="M33.1309 0.324219H32.8359V4.54787H33.1309V0.324219Z" fill="#A78AC0"/>
</g>
<path d="M5.27093 0.324219L9.44023 3.26363L4.71261 26.8241L0.5 23.8012L5.27093 0.324219Z" fill="#8065AC"/>
<path d="M49.4784 17.4392C49.4784 19.63 47.5225 21.1927 45.2775 21.1927C43.0324 21.1927 41.0625 19.5601 41.0625 17.2306C41.0625 14.9012 41.3668 12.3057 44.6981 11.4961C45.8135 11.2312 46.6095 11.0778 46.9864 10.8264L47.1889 10.2266H48.2458V11.831C47.5365 12.264 46.6095 12.3756 45.1171 12.7522C43.5381 13.1423 42.9154 13.9519 42.6696 14.9847C43.4807 14.2732 44.567 13.7151 45.8557 13.7151C47.8841 13.7151 49.4772 15.0681 49.4772 17.4404L49.4784 17.4392ZM42.5116 17.216C42.5116 18.6389 43.8295 19.7969 45.2786 19.7969C46.7277 19.7969 48.0305 18.8622 48.0305 17.4392C48.0305 15.8348 46.6832 15.1087 45.5677 15.1087C44.3656 15.1087 43.2642 15.5834 42.5116 16.42V17.2149V17.216Z" fill="#8065AC"/>
<path d="M53.5096 16.1419C54.9435 16.1419 55.8705 16.3234 56.6676 16.7V16.2118C56.6676 15.1508 55.7266 14.5927 54.6684 14.5927C53.7847 14.5927 53.2919 14.6761 52.7125 14.9693L52.6259 15.5274H51.4671V14.1597C52.4527 13.6151 53.2486 13.2949 54.6684 13.2949C56.6676 13.2949 58.1155 14.2995 58.1155 16.4756V21.1503H56.9567L56.725 19.9923C55.9279 20.6057 54.9728 21.192 53.5096 21.192C51.7855 21.192 50.7578 20.0622 50.7578 18.6664C50.7578 17.2705 51.7867 16.1408 53.5096 16.1408V16.1419ZM53.7999 19.9506C54.9447 19.9506 55.8857 19.3508 56.6676 18.6247V17.9414C55.8998 17.5783 54.7995 17.3833 53.6548 17.3833C52.51 17.3833 52.1624 18.0248 52.1624 18.6664C52.1624 19.3079 52.6985 19.9495 53.7988 19.9495L53.7999 19.9506Z" fill="#8065AC"/>
<path d="M65.6319 13.3379V19.8538H68.7899V13.3379H70.239V21.1515H59.5781V13.3379H61.0272V19.8538H64.1852V13.3379H65.6331H65.6319Z" fill="#8065AC"/>
<path d="M71.8359 21.1515V13.3379H74.5304L75.921 17.0632H76.2979L77.7025 13.3379H80.3969V21.1515H78.9479V14.6357H78.5429L77.1664 18.3609H75.0665L73.69 14.6357H73.285V21.1515H71.8359Z" fill="#8065AC"/>
<path d="M89.9471 17.2299C89.9471 19.4207 87.9912 21.192 85.7462 21.192C83.5012 21.192 81.5312 19.4196 81.5312 17.2299C81.5312 15.0403 83.4871 13.2949 85.7462 13.2949C88.0053 13.2949 89.9471 15.0674 89.9471 17.2299ZM82.9803 17.2299C82.9803 18.6528 84.269 19.7973 85.7474 19.7973C87.2257 19.7973 88.4992 18.6528 88.4992 17.2299C88.4992 15.807 87.2245 14.6908 85.7474 14.6908C84.2702 14.6908 82.9803 15.8352 82.9803 17.2299Z" fill="#8065AC"/>
<path d="M92.2319 13.3371H98.7785V21.1507H97.3294V14.6348H94.5343L93.3895 19.9364C93.2163 20.7595 92.2893 21.1924 91.5062 21.1924L90.7969 21.0526V19.7966H91.5062C91.738 19.7966 92.0423 19.6015 92.1149 19.252L93.1004 14.6337H92.2319V13.3359V13.3371Z" fill="#8065AC"/>
<path d="M108.627 17.2299C108.627 19.4207 106.671 21.192 104.426 21.192C102.181 21.192 100.211 19.4196 100.211 17.2299C100.211 15.0403 102.167 13.2949 104.426 13.2949C106.685 13.2949 108.627 15.0674 108.627 17.2299ZM101.66 17.2299C101.66 18.6528 102.949 19.7973 104.427 19.7973C105.905 19.7973 107.179 18.6528 107.179 17.2299C107.179 15.807 105.904 14.6908 104.427 14.6908C102.95 14.6908 101.66 15.8352 101.66 17.2299Z" fill="#8065AC"/>
<path d="M111.017 13.3379H117.708V19.8538H118.722V23.1044H117.418L117.273 21.1504H111.074L110.929 23.1044H109.625V19.8538H110.436C110.668 19.8538 110.972 19.6023 111.045 19.2539L112.03 14.5939H111.017V13.3379ZM116.261 19.8538V14.5939H113.465L112.336 19.8538H116.262H116.261Z" fill="#8065AC"/>
<path d="M126.284 18.8603L127.168 19.9348C126.994 20.1445 126.023 21.1908 123.937 21.1908C121.678 21.1908 119.867 19.4612 119.867 17.2288C119.867 14.9963 121.649 13.2937 123.909 13.2937C126.169 13.2937 127.835 14.9963 127.835 17.2288C127.835 17.3968 127.821 17.6335 127.805 17.7316H121.36C121.621 18.9313 122.663 19.8389 123.938 19.8389C125.329 19.8389 126.038 19.141 126.285 18.8625L126.284 18.8603ZM121.417 16.4327H126.255C126.08 15.498 125.096 14.6885 123.908 14.6885C122.72 14.6885 121.706 15.4281 121.416 16.4327H121.417ZM122.46 10.8516C122.937 10.8516 123.314 11.1729 123.314 11.6047C123.314 12.0366 122.937 12.3444 122.46 12.3444C121.982 12.3444 121.619 12.0377 121.619 11.6047C121.619 11.1718 121.981 10.8516 122.46 10.8516ZM125.502 10.8516C125.98 10.8516 126.356 11.1729 126.356 11.6047C126.356 12.0366 125.98 12.3444 125.502 12.3444C125.024 12.3444 124.662 12.0377 124.662 11.6047C124.662 11.1718 125.023 10.8516 125.502 10.8516Z" fill="#8065AC"/>
<path d="M135.931 17.7321V21.1507H134.482V17.7321H132.614C132.324 17.7603 132.18 17.9553 132.035 18.2767L131.238 19.9375C130.847 20.7471 130.137 21.1935 129.354 21.1935L128.789 21.0537V19.7977H129.354C129.586 19.7977 129.789 19.6026 129.963 19.2531L130.76 17.5923C130.847 17.3972 131.165 17.1176 131.296 17.0759C131.151 17.006 130.819 16.7275 130.731 16.5042L130.238 15.2764C130.093 14.928 129.861 14.7318 129.629 14.7318H129.064V13.4757L129.629 13.3359C130.411 13.3359 131.136 13.7824 131.513 14.592L132.006 15.8198C132.136 16.1547 132.367 16.4061 132.585 16.4332H134.482V13.3359H135.931V16.4332H137.829C138.031 16.405 138.278 16.1547 138.408 15.8198L138.901 14.592C139.278 13.7824 140.001 13.3359 140.784 13.3359L141.35 13.4757V14.7318H140.784C140.553 14.7318 140.321 14.9269 140.176 15.2764L139.683 16.5042C139.596 16.7275 139.249 17.0071 139.118 17.0759C139.247 17.1176 139.552 17.3972 139.654 17.5923L140.451 19.2531C140.61 19.6015 140.828 19.7977 141.059 19.7977H141.625V21.0537L141.059 21.1935C140.262 21.1935 139.567 20.7471 139.176 19.9375L138.379 18.2767C138.22 17.9553 138.031 17.7603 137.8 17.7321H135.931Z" fill="#8065AC"/>
<path d="M143.07 13.3379H144.519V16.1567H147.894C149.328 16.1567 150.502 17.2594 150.502 18.6406C150.502 20.0218 149.329 21.1515 147.894 21.1515H143.07V13.3379ZM147.894 19.7985C148.56 19.7985 149.096 19.2821 149.096 18.6406C149.096 17.999 148.56 17.5108 147.894 17.5108H144.519V19.7985H147.894Z" fill="#8065AC"/>
</g>
<defs>
<clipPath id="clip0_1667_15765">
<rect width="150" height="28" fill="white" transform="translate(0.5)"/>
</clipPath>
</defs>
</svg>
