<svg width="65" height="57" viewBox="0 0 65 57" fill="none" xmlns="http://www.w3.org/2000/svg">
<path d="M27.6404 47.3432C28.3017 38.1948 27.2436 20.4051 17.7205 22.4331C8.19736 24.4612 7.80057 35.9169 8.79256 41.3912C9.67433 44.5877 14.7225 43.1107 10.6663 32.794" stroke="#FF6F00" stroke-width="2" stroke-linecap="round"/>
<path d="M7.35423 31.6909C4.67218 31.6174 -1.59145 34.4019 2.17382 43.8152C7.02355 55.9397 31.9336 62.8835 39.2082 43.8152" stroke="#FF6F00" stroke-width="2" stroke-linecap="round"/>
<path d="M45.7098 37.974C43.836 35.7695 41.7418 37.974 39.7578 35.7695V41.3292C40.1105 42.2109 40.939 41.3292 41.4111 40.9499L45.7098 37.974Z" fill="#FF6F00" stroke="#FF6F00" stroke-width="1.14286" stroke-linecap="round"/>
<path d="M49.788 34.9988L40.6324 41.5385C40.2663 41.8 39.7578 41.5383 39.7578 41.0884V29.0469" stroke="#FF6F00" stroke-width="1.14286" stroke-linecap="round"/>
<path d="M44.2734 26.5132L51.4378 12.0742" stroke="white" stroke-width="1.14286" stroke-linecap="round"/>
<path d="M55.1954 12.2949L47.0391 28.9383" stroke="white" stroke-width="1.14286" stroke-linecap="round"/>
<path d="M57.8276 15.5996L50.7734 29.8182" stroke="white" stroke-width="1.14286" stroke-linecap="round"/>
<path d="M48.6919 10.75L40.0919 28.2764C40.0501 28.3618 40.1282 28.4585 40.2213 28.4388C41.6038 28.1462 43.9715 28.3004 44.1626 30.94C44.1689 31.0267 44.2665 31.0792 44.3407 31.0341C45.5581 30.294 47.6434 29.7576 47.5982 32.7602C47.5968 32.8566 47.7105 32.9159 47.7876 32.8578C48.8647 32.0452 50.6419 31.348 50.7801 33.8284C50.7867 33.947 50.9573 33.9888 51.0096 33.8821L59.9345 15.71" stroke="white" stroke-width="1.14286" stroke-linecap="round"/>
<path d="M58.8283 0.499519C55.1248 -0.117721 53.3907 1.27107 52.9865 2.04262L50.7579 6.39382C50.7193 6.46902 50.7737 6.55815 50.8581 6.55655C53.8954 6.49911 60.1031 7.62659 62.0377 11.8491C62.0772 11.9354 62.2011 11.9403 62.2436 11.8554L62.7962 10.7501L64.9814 6.27048C64.9938 6.24514 64.9964 6.21716 64.9878 6.1903C64.4544 4.52156 62.5016 1.11173 58.8283 0.499519Z" fill="#31EC56"/>
<path d="M62.0279 12.1832L60.302 15.4318C60.253 15.5242 60.1097 15.5059 60.0806 15.4055C59.4943 13.3893 56.5803 9.79072 49.4183 9.65084C49.3374 9.64926 49.2823 9.56456 49.3173 9.49163L50.5648 6.89258" stroke="white" stroke-width="1.14286" stroke-linecap="round"/>
<path d="M51.2266 8.32723C52.7329 8.1068 56.6054 8.50362 60.0443 11.8543" stroke="white" stroke-width="1.14286" stroke-linecap="round"/>
</svg>
