<svg width="64" height="38" viewBox="0 0 64 38" fill="none" xmlns="http://www.w3.org/2000/svg">
<path d="M38.6719 3.52386L38.8186 7.41196C39.3566 5.72468 41.5623 2.58485 46.0813 3.52386C45.201 1.52846 43.856 0.833975 43.2936 0.736157C39.831 0.325338 38.7697 2.42345 38.6719 3.52386Z" fill="#FF6F00" stroke="#FF6F00" stroke-width="1.12279" stroke-linecap="round"/>
<path d="M19.1612 1.68721L17.9141 3.7413C22.5504 3.15441 24.541 5.84431 24.9567 7.26262L25.1768 3.52123C25.1181 1.93665 23.7829 1.10033 23.1227 0.880244C21.0686 0.234672 19.6258 1.14923 19.1612 1.68721Z" fill="#31EC56"/>
<path d="M24.8906 27.3652H39.0492" stroke="white" stroke-width="1.12279" stroke-linecap="round"/>
<path d="M20.6172 15.6589L27.5989 14.1562" stroke="white" stroke-width="1.12279" stroke-linecap="round"/>
<path d="M43.2474 15.5149L35.8125 13.7188" stroke="white" stroke-width="1.12279" stroke-linecap="round"/>
<ellipse cx="12.8541" cy="24.87" rx="4.98851" ry="6.89589" transform="rotate(15 12.8541 24.87)" fill="#31EC56"/>
<path d="M55.2702 23.724C55.7359 25.4618 55.6411 27.1497 55.1387 28.4667C54.6359 29.7845 53.7465 30.6902 52.6334 30.9884C51.5203 31.2867 50.2973 30.9471 49.203 30.0572C48.1093 29.1678 47.1833 27.7535 46.7177 26.0156C46.252 24.2778 46.3468 22.5899 46.8492 21.2729C47.352 19.9551 48.2414 19.0494 49.3545 18.7511C50.4675 18.4529 51.6906 18.7925 52.7849 19.6824C53.8786 20.5718 54.8046 21.9861 55.2702 23.724Z" fill="#FF6F00" stroke="#FF6F00" stroke-width="1.12279"/>
<path d="M5.66406 15.6266L15.4611 4.73286C15.4832 4.70829 15.5075 4.68733 15.5356 4.66986C18.1343 3.05129 24.6678 2.83598 25.287 9.34774C25.312 9.60971 25.5879 9.78113 25.8321 9.68308C28.137 8.75758 33.0042 7.75451 37.9208 9.6542C38.1887 9.75772 38.4847 9.5363 38.4889 9.24911C38.5484 5.23571 44.0336 0.431316 49.3869 5.57614L57.3728 14.855" stroke="white" stroke-width="1.12279" stroke-linecap="round"/>
<path d="M1.74045 21.9675C6.4755 17.9958 17.6538 13.6545 24.4868 28.0624" stroke="white" stroke-width="1.12279" stroke-linecap="round"/>
<path d="M1.73611 21.9661C3.85094 27.7732 11.361 37.1221 24.4824 28.0609" stroke="white" stroke-width="1.12279" stroke-linecap="round"/>
<path d="M39.5095 28.0632C41.6244 22.2561 49.1344 12.9072 62.2559 21.9684" stroke="white" stroke-width="1.12279" stroke-linecap="round"/>
<path d="M39.5139 28.0598C44.2489 32.0315 55.4273 36.3729 62.2602 21.965" stroke="white" stroke-width="1.12279" stroke-linecap="round"/>
<circle cx="13.0715" cy="25.091" r="11.6898" stroke="white" stroke-width="1.12279"/>
<circle cx="50.9231" cy="25.091" r="11.6898" stroke="white" stroke-width="1.12279"/>
<path d="M27.375 15.6971L28.6955 10.5619C28.9156 9.87721 29.8546 8.50781 31.85 8.50781C33.8454 8.50781 34.7844 9.87721 35.0045 10.5619L36.1049 15.6971" stroke="white" stroke-width="1.12279" stroke-linecap="round"/>
<circle cx="31.7086" cy="18.0484" r="4.6472" stroke="white" stroke-width="1.12279"/>
<path d="M29.2118 17.6062C29.1873 16.8481 29.6813 15.332 31.8528 15.332" stroke="white" stroke-width="1.12279" stroke-linecap="round"/>
<path d="M13.5859 11.1521L17.474 6.45703" stroke="white" stroke-width="1.12279" stroke-linecap="round"/>
</svg>
