<svg width="16" height="16" viewBox="0 0 16 16" fill="none" xmlns="http://www.w3.org/2000/svg">
<g id="Phone">
<path id="Vector" d="M13.8981 9.90375L10.9538 8.58437L10.9456 8.58062C10.7928 8.51524 10.626 8.48901 10.4605 8.50428C10.2949 8.51956 10.1358 8.57587 9.99751 8.66812C9.98122 8.67888 9.96557 8.69056 9.95063 8.70312L8.42938 10C7.46563 9.53187 6.47063 8.54437 6.00251 7.59312L7.30126 6.04875C7.31376 6.03312 7.32563 6.0175 7.33688 6.00062C7.42715 5.86268 7.48192 5.70457 7.49631 5.54035C7.5107 5.37614 7.48428 5.21091 7.41938 5.05937V5.05187L6.09626 2.1025C6.01047 1.90454 5.86296 1.73963 5.67575 1.63239C5.48854 1.52516 5.27166 1.48135 5.05751 1.5075C4.21061 1.61894 3.43324 2.03485 2.87059 2.67756C2.30794 3.32026 1.99847 4.1458 2.00001 5C2.00001 9.9625 6.03751 14 11 14C11.8542 14.0015 12.6797 13.6921 13.3224 13.1294C13.9651 12.5668 14.3811 11.7894 14.4925 10.9425C14.5187 10.7284 14.475 10.5116 14.3679 10.3244C14.2607 10.1372 14.096 9.98963 13.8981 9.90375ZM11 13C8.87898 12.9977 6.8455 12.1541 5.34571 10.6543C3.84592 9.1545 3.00232 7.12102 3.00001 5C2.99765 4.38968 3.21754 3.79937 3.61859 3.33931C4.01964 2.87926 4.57444 2.58091 5.17938 2.5C5.17913 2.50249 5.17913 2.505 5.17938 2.5075L6.49188 5.445L5.20001 6.99125C5.18689 7.00633 5.17498 7.02242 5.16438 7.03937C5.07033 7.18369 5.01515 7.34987 5.0042 7.52178C4.99325 7.6937 5.0269 7.86553 5.10188 8.02062C5.66813 9.17875 6.83501 10.3369 8.00563 10.9025C8.16186 10.9768 8.33468 11.0093 8.50722 10.9968C8.67976 10.9843 8.8461 10.9272 8.99001 10.8312C9.00605 10.8204 9.02149 10.8088 9.03626 10.7962L10.5556 9.5L13.4931 10.8156C13.4931 10.8156 13.4981 10.8156 13.5 10.8156C13.4201 11.4214 13.1222 11.9773 12.662 12.3794C12.2019 12.7814 11.611 13.0021 11 13Z" fill="#606C7D"/>
</g>
</svg>
