<svg width="24" height="25" viewBox="0 0 24 25" fill="none" xmlns="http://www.w3.org/2000/svg">
<g id="ArrowRight">
<path id="Vector" d="M20.7806 13.031L14.0306 19.781C13.8899 19.9218 13.699 20.0008 13.5 20.0008C13.301 20.0008 13.1101 19.9218 12.9694 19.781C12.8286 19.6403 12.7496 19.4494 12.7496 19.2504C12.7496 19.0514 12.8286 18.8605 12.9694 18.7198L18.4397 13.2504H3.75C3.55109 13.2504 3.36032 13.1714 3.21967 13.0307C3.07902 12.8901 3 12.6993 3 12.5004C3 12.3015 3.07902 12.1107 3.21967 11.9701C3.36032 11.8294 3.55109 11.7504 3.75 11.7504H18.4397L12.9694 6.28104C12.8286 6.14031 12.7496 5.94944 12.7496 5.75042C12.7496 5.55139 12.8286 5.36052 12.9694 5.21979C13.1101 5.07906 13.301 5 13.5 5C13.699 5 13.8899 5.07906 14.0306 5.21979L20.7806 11.9698C20.8504 12.0394 20.9057 12.1222 20.9434 12.2132C20.9812 12.3043 21.0006 12.4019 21.0006 12.5004C21.0006 12.599 20.9812 12.6966 20.9434 12.7876C20.9057 12.8787 20.8504 12.9614 20.7806 13.031Z" fill="#14004E"/>
</g>
</svg>
