<svg width="24" height="25" viewBox="0 0 24 25" fill="none" xmlns="http://www.w3.org/2000/svg">
<g id="Check">
<path id="Vector" d="M21.531 7.78104L9.53104 19.781C9.46139 19.8508 9.37867 19.9061 9.28762 19.9438C9.19657 19.9816 9.09898 20.001 9.00042 20.001C8.90186 20.001 8.80426 19.9816 8.71321 19.9438C8.62216 19.9061 8.53945 19.8508 8.46979 19.781L3.21979 14.531C3.07906 14.3903 3 14.1994 3 14.0004C3 13.8014 3.07906 13.6105 3.21979 13.4698C3.36052 13.3291 3.55139 13.25 3.75042 13.25C3.94944 13.25 4.14031 13.3291 4.28104 13.4698L9.00042 18.1901L20.4698 6.71979C20.6105 6.57906 20.8014 6.5 21.0004 6.5C21.1994 6.5 21.3903 6.57906 21.531 6.71979C21.6718 6.86052 21.7508 7.05139 21.7508 7.25042C21.7508 7.44944 21.6718 7.64031 21.531 7.78104Z" fill="#14004E"/>
</g>
</svg>
