<svg width="24" height="24" viewBox="0 0 24 24" fill="none" xmlns="http://www.w3.org/2000/svg">
<path d="M4.71945 18.2198C4.64976 18.2895 4.59449 18.3722 4.55678 18.4632C4.51906 18.5543 4.49965 18.6519 4.49965 18.7504C4.49965 18.849 4.51906 18.9465 4.55678 19.0376C4.59449 19.1286 4.64976 19.2114 4.71945 19.281C4.78913 19.3507 4.87185 19.406 4.9629 19.4437C5.05394 19.4814 5.15153 19.5008 5.25007 19.5008C5.34862 19.5008 5.4462 19.4814 5.53724 19.4437C5.62829 19.406 5.71101 19.3507 5.7807 19.281L12.0001 13.0607L18.2194 19.281C18.3602 19.4218 18.551 19.5008 18.7501 19.5008C18.9491 19.5008 19.14 19.4218 19.2807 19.281C19.4214 19.1403 19.5005 18.9494 19.5005 18.7504C19.5005 18.5514 19.4214 18.3605 19.2807 18.2198L13.0604 12.0004L19.2807 5.78104C19.4214 5.64031 19.5005 5.44944 19.5005 5.25042C19.5005 5.05139 19.4214 4.86052 19.2807 4.71979C19.14 4.57906 18.9491 4.5 18.7501 4.5C18.551 4.5 18.3602 4.57906 18.2194 4.71979L12.0001 10.9401L5.7807 4.71979C5.63997 4.57906 5.44909 4.5 5.25007 4.5C5.05105 4.5 4.86018 4.57906 4.71945 4.71979C4.57872 4.86052 4.49965 5.05139 4.49965 5.25042C4.49965 5.44944 4.57872 5.64031 4.71945 5.78104L10.9398 12.0004L4.71945 18.2198Z" fill="#14004E"/>
</svg>
