<svg width="24" height="25" viewBox="0 0 24 25" fill="none" xmlns="http://www.w3.org/2000/svg">
<g id="ThumbsDown">
<path id="Vector" d="M22.4831 15.2188L21.3581 6.21875C21.2896 5.67489 21.0249 5.17475 20.6137 4.81224C20.2025 4.44974 19.6732 4.24981 19.125 4.25H3C2.60218 4.25 2.22064 4.40804 1.93934 4.68934C1.65804 4.97064 1.5 5.35218 1.5 5.75V14C1.5 14.3978 1.65804 14.7794 1.93934 15.0607C2.22064 15.342 2.60218 15.5 3 15.5H7.03687L10.5787 22.5856C10.6411 22.7102 10.7369 22.815 10.8555 22.8882C10.9741 22.9614 11.1107 23.0001 11.25 23C12.2446 23 13.1984 22.6049 13.9017 21.9016C14.6049 21.1984 15 20.2446 15 19.25V17.75H20.25C20.5693 17.7501 20.8849 17.6823 21.176 17.551C21.467 17.4197 21.7268 17.228 21.938 16.9885C22.1492 16.7491 22.3071 16.4675 22.4011 16.1623C22.4951 15.8572 22.523 15.5355 22.4831 15.2188ZM6.75 14H3V5.75H6.75V14ZM20.8125 15.9959C20.7426 16.0763 20.6561 16.1407 20.5591 16.1845C20.462 16.2284 20.3565 16.2507 20.25 16.25H14.25C14.0511 16.25 13.8603 16.329 13.7197 16.4697C13.579 16.6103 13.5 16.8011 13.5 17V19.25C13.5001 19.7702 13.32 20.2744 12.9903 20.6767C12.6606 21.0791 12.2016 21.3548 11.6916 21.4569L8.25 14.5728V5.75H19.125C19.3077 5.74994 19.4842 5.81658 19.6212 5.93742C19.7583 6.05825 19.8465 6.22496 19.8694 6.40625L20.9944 15.4062C21.0084 15.5118 20.9994 15.6192 20.9681 15.721C20.9367 15.8228 20.8836 15.9166 20.8125 15.9959Z" fill="#14004E"/>
</g>
</svg>
