<svg width="15" height="16" viewBox="0 0 15 16" fill="none" xmlns="http://www.w3.org/2000/svg">
<path id="Vector" d="M9.50006 1.5V0.5C9.50006 0.367392 9.55274 0.240215 9.6465 0.146447C9.74027 0.0526784 9.86745 0 10.0001 0C10.1327 0 10.2598 0.0526784 10.3536 0.146447C10.4474 0.240215 10.5001 0.367392 10.5001 0.5V1.5C10.5001 1.63261 10.4474 1.75979 10.3536 1.85355C10.2598 1.94732 10.1327 2 10.0001 2C9.86745 2 9.74027 1.94732 9.6465 1.85355C9.55274 1.75979 9.50006 1.63261 9.50006 1.5ZM11.7394 2.5625C11.8181 2.6098 11.9083 2.63426 12.0001 2.63313C12.0859 2.63326 12.1703 2.61131 12.2451 2.56939C12.32 2.52747 12.3828 2.46698 12.4276 2.39375L12.9276 1.57438C12.9624 1.5183 12.9857 1.4559 12.9963 1.39076C13.0068 1.32563 13.0044 1.25904 12.9891 1.19485C12.9738 1.13066 12.9459 1.07013 12.9071 1.01675C12.8683 0.963378 12.8194 0.918209 12.763 0.883853C12.7067 0.849497 12.6441 0.826632 12.5789 0.816578C12.5137 0.806524 12.4471 0.809479 12.383 0.825273C12.319 0.841067 12.2587 0.869387 12.2056 0.9086C12.1525 0.947814 12.1077 0.997145 12.0738 1.05375L11.5738 1.8725C11.5391 1.92861 11.5159 1.99103 11.5055 2.05616C11.4951 2.12129 11.4976 2.18784 11.513 2.25197C11.5284 2.31611 11.5563 2.37657 11.5952 2.42986C11.6341 2.48315 11.6831 2.52823 11.7394 2.5625ZM14.7044 3.34938C14.6843 3.28687 14.652 3.22894 14.6095 3.17891C14.567 3.12887 14.515 3.0877 14.4565 3.05776C14.3981 3.02781 14.3343 3.00967 14.2689 3.00437C14.2034 2.99907 14.1376 3.00672 14.0751 3.02688L13.1376 3.33C13.0239 3.36634 12.927 3.44213 12.8643 3.54368C12.8017 3.64523 12.7774 3.76584 12.7959 3.88373C12.8144 4.00162 12.8744 4.109 12.9651 4.18649C13.0559 4.26398 13.1714 4.30645 13.2907 4.30625C13.3429 4.30605 13.3947 4.29783 13.4444 4.28188L14.3819 3.97875C14.4447 3.95862 14.5029 3.92628 14.5531 3.88357C14.6034 3.84086 14.6447 3.78864 14.6747 3.72991C14.7046 3.67118 14.7227 3.60711 14.7278 3.54137C14.7329 3.47563 14.725 3.40953 14.7044 3.34687V3.34938ZM12.8294 5.84562C13.3823 6.79651 13.6049 7.90362 13.4625 8.99428C13.3202 10.0849 12.8209 11.0978 12.0426 11.875C11.7725 12.8188 11.2306 13.6622 10.4844 14.3C9.73825 14.9379 8.82081 15.342 7.84652 15.462C6.87222 15.5819 5.88416 15.4125 5.00554 14.9746C4.12692 14.5368 3.39662 13.8501 2.90568 13L0.718182 9.21062C0.584621 8.97896 0.510296 8.71791 0.501797 8.45064C0.493299 8.18337 0.550891 7.91813 0.669465 7.67844C0.788039 7.43876 0.96393 7.23204 1.18154 7.07663C1.39915 6.92121 1.65174 6.8219 1.91693 6.7875L1.66693 6.35375C1.53544 6.12599 1.4612 5.86972 1.45057 5.60695C1.43995 5.34417 1.49326 5.08274 1.60593 4.84511C1.7186 4.60748 1.88726 4.40074 2.09743 4.24266C2.3076 4.08457 2.553 3.97985 2.81256 3.9375C2.68237 3.57904 2.68241 3.1862 2.81267 2.82776C2.94293 2.46933 3.1951 2.16812 3.52506 1.97687C3.82761 1.80283 4.17809 1.73063 4.5248 1.77092C4.87151 1.8112 5.19609 1.96185 5.45068 2.20062C5.60661 1.97553 5.8169 1.7935 6.06201 1.67142C6.30712 1.54934 6.5791 1.49118 6.8527 1.50234C7.1263 1.51351 7.39264 1.59362 7.62699 1.73526C7.86134 1.8769 8.0561 2.07546 8.19318 2.3125L8.94318 3.61188C9.10557 3.39924 9.31794 3.22999 9.56145 3.11915C9.80495 3.00831 10.0721 2.95931 10.3391 2.9765C10.6061 2.99369 10.8647 3.07654 11.092 3.21769C11.3192 3.35884 11.5082 3.55392 11.6419 3.78562L12.8294 5.84562ZM6.24506 3.4375L6.61568 4.07937C6.73943 4.19239 6.84486 4.32397 6.92818 4.46938L7.67818 5.76625C7.92469 5.4461 8.28085 5.2284 8.67818 5.155L7.32756 2.8125C7.24467 2.66895 7.10816 2.56421 6.94806 2.52131C6.78795 2.47841 6.61736 2.50087 6.47381 2.58375C6.33026 2.66663 6.22552 2.80314 6.18262 2.96325C6.13972 3.12336 6.16218 3.29395 6.24506 3.4375ZM3.79631 3.69688L4.16693 4.33938L4.18693 4.3575C4.30819 4.18193 4.46292 4.03204 4.64225 3.91642C4.82158 3.8008 5.02197 3.72173 5.23193 3.68375L4.87881 3.07188C4.81701 2.96481 4.72486 2.87848 4.614 2.82379C4.50313 2.7691 4.37854 2.74852 4.25598 2.76464C4.13342 2.78076 4.01839 2.83287 3.92545 2.91437C3.8325 2.99587 3.76581 3.1031 3.73381 3.2225C3.71228 3.30177 3.70672 3.38452 3.71745 3.46596C3.72818 3.54739 3.75499 3.62589 3.79631 3.69688ZM11.0994 11.5356C11.2367 11.0283 11.2721 10.4988 11.2034 9.97776C11.1347 9.45671 10.9634 8.95443 10.6994 8.5L9.51193 6.44312C9.43117 6.30466 9.30029 6.20252 9.14635 6.15782C8.99241 6.11312 8.82719 6.12928 8.68482 6.20295C8.54246 6.27662 8.43384 6.40217 8.38142 6.55365C8.329 6.70514 8.33679 6.87097 8.40318 7.01687L9.11693 8.25C9.18324 8.36495 9.20116 8.50154 9.16676 8.62971C9.13236 8.75788 9.04845 8.86713 8.93349 8.93344C8.81854 8.99974 8.68195 9.01766 8.55378 8.98326C8.42561 8.94886 8.31636 8.86495 8.25006 8.75L6.06256 4.97062C5.97674 4.83473 5.84186 4.73712 5.68595 4.69807C5.53004 4.65903 5.36508 4.68154 5.22534 4.76095C5.0856 4.84035 4.98182 4.97054 4.93556 5.12446C4.8893 5.27839 4.90412 5.44422 4.97693 5.5875L6.51631 8.25C6.55121 8.30692 6.57437 8.37025 6.5844 8.43626C6.59444 8.50227 6.59115 8.56962 6.57473 8.63434C6.55831 8.69906 6.5291 8.75984 6.48881 8.81308C6.44853 8.86633 6.39798 8.91097 6.34017 8.94436C6.28235 8.97776 6.21843 8.99924 6.15218 9.00753C6.08592 9.01582 6.01868 9.01076 5.95442 8.99265C5.89015 8.97453 5.83017 8.94373 5.778 8.90205C5.72584 8.86038 5.68254 8.80868 5.65068 8.75L3.61506 5.22875C3.57432 5.1571 3.51981 5.09421 3.45467 5.04371C3.38952 4.99321 3.31503 4.95609 3.23549 4.93449C3.15594 4.9129 3.07291 4.90725 2.99117 4.91787C2.90944 4.9285 2.83061 4.95518 2.75923 4.9964C2.68785 5.03761 2.62532 5.09254 2.57525 5.15801C2.52518 5.22349 2.48856 5.29822 2.46749 5.37791C2.44643 5.4576 2.44133 5.54066 2.4525 5.62233C2.46366 5.70399 2.49087 5.78264 2.53256 5.85375L4.78256 9.75125C4.81539 9.80813 4.83669 9.87092 4.84526 9.93603C4.85382 10.0011 4.84948 10.0673 4.83247 10.1307C4.81547 10.1942 4.78614 10.2536 4.74615 10.3057C4.70617 10.3578 4.65631 10.4015 4.59943 10.4344C4.54255 10.4672 4.47976 10.4885 4.41465 10.4971C4.34954 10.5056 4.28338 10.5013 4.21994 10.4843C4.15651 10.4673 4.09705 10.438 4.04495 10.398C3.99285 10.358 3.94914 10.3081 3.91631 10.2513L2.66631 8.08625C2.58284 7.94387 2.44644 7.84029 2.28688 7.7981C2.12732 7.75592 1.95755 7.77856 1.81462 7.86108C1.67169 7.9436 1.56721 8.07931 1.52396 8.23858C1.48072 8.39786 1.50223 8.56778 1.58381 8.71125L3.77131 12.5006C4.16685 13.1859 4.75673 13.7384 5.46633 14.0884C6.17593 14.4383 6.97337 14.57 7.75781 14.4667C8.54224 14.3634 9.27842 14.0298 9.87323 13.508C10.468 12.9863 10.8948 12.2999 11.0994 11.5356ZM11.9632 6.34312L10.7757 4.28625C10.6922 4.14387 10.5558 4.04029 10.3963 3.9981C10.2367 3.95592 10.0669 3.97856 9.924 4.06108C9.78107 4.1436 9.67658 4.27931 9.63334 4.43858C9.5901 4.59786 9.61161 4.76778 9.69318 4.91125L10.0626 5.55188C10.1863 5.6654 10.2917 5.79738 10.3751 5.94312L11.5626 8C11.8962 8.57667 12.1115 9.21411 12.1957 9.875C12.4313 9.30811 12.533 8.69446 12.4926 8.08186C12.4523 7.46926 12.2711 6.87423 11.9632 6.34312Z" fill="#FF6F00"/>
</svg>
