<svg width="52" height="52" viewBox="0 0 52 52" fill="none" xmlns="http://www.w3.org/2000/svg">
<path d="M46.9995 33.0004V39.3666C46.9995 45.1416 42.3933 49.9354 36.6245 49.9991C35.2244 50.018 33.8348 49.7557 32.5379 49.2277C31.241 48.6997 30.0633 47.9168 29.0745 46.9254C26.3483 44.0416 23.2683 37.0004 23.2683 37.0004C23.1328 36.7659 23.0463 36.5063 23.0142 36.2374C22.982 35.9686 23.0048 35.6959 23.0811 35.4361C23.1574 35.1763 23.2857 34.9347 23.4582 34.7259C23.6307 34.5171 23.8438 34.3456 24.0845 34.2216C25.042 33.7216 26.222 34.1166 26.7595 35.0491L29.3845 39.6041C29.4575 39.7353 29.5677 39.8419 29.7011 39.9106C29.8346 39.9794 29.9854 40.0071 30.1345 39.9904H30.1495C30.3897 39.949 30.6073 39.8233 30.7631 39.6359C30.9189 39.4485 31.0028 39.2116 30.9995 38.9679V24.0004C30.9992 23.7294 31.054 23.4612 31.1604 23.2121C31.2669 22.9629 31.4229 22.738 31.6189 22.551C31.815 22.364 32.047 22.2187 32.3008 22.1241C32.5547 22.0294 32.8252 21.9873 33.0958 22.0004C34.172 22.0504 34.9995 22.9779 34.9995 24.0541V33.0004C34.9992 33.1375 35.0271 33.2731 35.0815 33.399C35.1358 33.5248 35.2155 33.6382 35.3154 33.732C35.4154 33.8257 35.5336 33.898 35.6627 33.9441C35.7918 33.9903 35.929 34.0094 36.0658 34.0004C36.3229 33.9783 36.5622 33.8596 36.7354 33.6683C36.9086 33.477 37.003 33.2272 36.9995 32.9691V31.0004C36.9992 30.7294 37.054 30.4612 37.1604 30.2121C37.2669 29.9629 37.4229 29.738 37.6189 29.551C37.815 29.364 38.047 29.2187 38.3008 29.1241C38.5547 29.0294 38.8252 28.9873 39.0958 29.0004C40.172 29.0504 40.9995 29.9779 40.9995 31.0541V34.0004C40.9992 34.1375 41.0271 34.2731 41.0815 34.399C41.1358 34.5248 41.2155 34.6382 41.3154 34.732C41.4154 34.8257 41.5336 34.898 41.6627 34.9441C41.7918 34.9903 41.929 35.0094 42.0658 35.0004C42.3229 34.9783 42.5622 34.8596 42.7354 34.6683C42.9086 34.477 43.003 34.2272 42.9995 33.9691V33.0591C42.9995 31.9829 43.827 31.0591 44.9033 31.0054C45.1735 30.9923 45.4435 31.0343 45.6971 31.1286C45.9506 31.223 46.1824 31.3678 46.3783 31.5543C46.5743 31.7408 46.7304 31.9651 46.8372 32.2136C46.9439 32.4622 46.9992 32.7298 46.9995 33.0004Z" fill="#14004E"/>
<path d="M26.7075 8.2925L21.7075 3.2925C21.6146 3.19967 21.5042 3.12605 21.3829 3.07586C21.2615 3.02568 21.1314 2.9999 21 3H11C10.4696 3 9.96086 3.21071 9.58579 3.58579C9.21071 3.96086 9 4.46957 9 5V7H7C6.46957 7 5.96086 7.21071 5.58579 7.58579C5.21071 7.96086 5 8.46957 5 9V27C5 27.5304 5.21071 28.0391 5.58579 28.4142C5.96086 28.7893 6.46957 29 7 29H21C21.5304 29 22.0391 28.7893 22.4142 28.4142C22.7893 28.0391 23 27.5304 23 27V25H25C25.5304 25 26.0391 24.7893 26.4142 24.4142C26.7893 24.0391 27 23.5304 27 23V9C27.0001 8.86864 26.9743 8.73855 26.9241 8.61715C26.8739 8.49576 26.8003 8.38544 26.7075 8.2925ZM21 27H7V9H16.5863L21 13.4137V23.98C21 23.9875 21 23.9937 21 24C21 24.0063 21 24.0125 21 24.02V27ZM25 23H23V13C23.0001 12.8686 22.9743 12.7385 22.9241 12.6172C22.8739 12.4958 22.8003 12.3854 22.7075 12.2925L17.7075 7.2925C17.6146 7.19967 17.5042 7.12605 17.3829 7.07586C17.2615 7.02568 17.1314 6.9999 17 7H11V5H20.5863L25 9.41375V23ZM18 19C18 19.2652 17.8946 19.5196 17.7071 19.7071C17.5196 19.8946 17.2652 20 17 20H11C10.7348 20 10.4804 19.8946 10.2929 19.7071C10.1054 19.5196 10 19.2652 10 19C10 18.7348 10.1054 18.4804 10.2929 18.2929C10.4804 18.1054 10.7348 18 11 18H17C17.2652 18 17.5196 18.1054 17.7071 18.2929C17.8946 18.4804 18 18.7348 18 19ZM18 23C18 23.2652 17.8946 23.5196 17.7071 23.7071C17.5196 23.8946 17.2652 24 17 24H11C10.7348 24 10.4804 23.8946 10.2929 23.7071C10.1054 23.5196 10 23.2652 10 23C10 22.7348 10.1054 22.4804 10.2929 22.2929C10.4804 22.1054 10.7348 22 11 22H17C17.2652 22 17.5196 22.1054 17.7071 22.2929C17.8946 22.4804 18 22.7348 18 23Z" fill="#606C7D"/>
</svg>
