<svg width="24" height="25" viewBox="0 0 24 25" fill="none" xmlns="http://www.w3.org/2000/svg">
<g id="ThumbsUp">
<path id="Vector" d="M21.9375 8.01125C21.7263 7.77193 21.4666 7.58028 21.1757 7.44903C20.8847 7.31778 20.5692 7.24994 20.25 7.25H15V5.75C15 4.75544 14.6049 3.80161 13.9017 3.09835C13.1984 2.39509 12.2446 2 11.25 2C11.1107 1.9999 10.9741 2.03862 10.8555 2.11181C10.7369 2.185 10.6411 2.28977 10.5787 2.41438L7.03687 9.5H3C2.60218 9.5 2.22064 9.65804 1.93934 9.93934C1.65804 10.2206 1.5 10.6022 1.5 11V19.25C1.5 19.6478 1.65804 20.0294 1.93934 20.3107C2.22064 20.592 2.60218 20.75 3 20.75H19.125C19.6732 20.7502 20.2025 20.5503 20.6137 20.1878C21.0249 19.8253 21.2896 19.3251 21.3581 18.7812L22.4831 9.78125C22.523 9.4644 22.495 9.14268 22.4009 8.8375C22.3068 8.53232 22.1488 8.25066 21.9375 8.01125ZM3 11H6.75V19.25H3V11ZM20.9944 9.59375L19.8694 18.5938C19.8465 18.775 19.7583 18.9418 19.6212 19.0626C19.4842 19.1834 19.3077 19.2501 19.125 19.25H8.25V10.4272L11.6916 3.54313C12.2016 3.64521 12.6606 3.9209 12.9903 4.32326C13.32 4.72562 13.5001 5.2298 13.5 5.75V8C13.5 8.19891 13.579 8.38968 13.7197 8.53033C13.8603 8.67098 14.0511 8.75 14.25 8.75H20.25C20.3564 8.74996 20.4616 8.77258 20.5587 8.81634C20.6557 8.86011 20.7423 8.92402 20.8127 9.00383C20.8831 9.08363 20.9357 9.17752 20.967 9.27923C20.9984 9.38094 21.0077 9.48816 20.9944 9.59375Z" fill="#14004E"/>
</g>
</svg>
