<svg width="33" height="32" viewBox="0 0 33 32" fill="none" xmlns="http://www.w3.org/2000/svg">
<path d="M29.8334 24.0446C29.8334 24.0446 29.8029 24.0381 29.7487 24.022V24.0155C29.7487 24.0187 29.7453 24.0187 29.7453 24.022C29.5284 23.9671 28.9219 23.8218 28.0815 23.6313C28.0036 23.2954 23.9272 19.2785 23.7612 18.7973C23.7578 18.7909 23.7544 18.7812 23.751 18.7683C25.9705 19.6046 27.7529 20.1083 27.8003 20.0631C27.8342 20.0308 25.7096 17.6445 23.2461 15.0451C23.2495 15.0387 23.2529 15.0355 23.2563 15.029L23.2258 15.0193C21.5213 13.2239 19.6576 11.3349 18.2311 10.0498C18.143 9.98517 18.004 9.89153 17.8278 9.80111L17.8346 9.51373C17.8346 9.51373 18.0616 8.11554 17.7499 6.84974C17.411 5.5581 16.5368 5.39665 16.2522 5.37082C15.998 5.34498 15.3203 5.15447 14.6426 5.96174C13.6532 6.14903 13.8531 7.03702 13.8531 7.03702C13.8531 7.03702 13.8666 7.00473 13.9039 6.95952C13.8971 6.98536 13.887 7.00796 13.8802 7.03702L14.5274 6.79807C14.6799 6.81745 14.7849 6.87557 14.8629 6.94984L14.8696 6.98213C14.8696 6.9789 14.873 6.97244 14.8764 6.96275C15.0425 7.13712 15.0492 7.39222 15.0662 7.46649C15.1238 7.57305 15.1509 8.59667 14.9815 8.97447C14.0225 9.27155 13.5684 10.1595 13.5142 10.2661C12.1859 13.4952 15.7744 15.8621 15.8591 15.9428C15.8828 15.9654 16.0285 16.0784 16.2183 16.227C16.2352 16.4272 16.242 16.6661 16.2251 16.9374C16.1675 17.8254 15.8591 19.0912 15.9709 19.3592C16.0251 19.4819 16.1708 19.6207 16.3538 19.7596L16.2827 19.9759C16.2827 19.9759 16.1132 21.132 15.605 21.429C15.5135 21.4872 15.4288 21.5227 15.3474 21.5453C15.2729 21.5227 15.1746 21.5098 15.0391 21.5098C14.9747 21.5098 14.9171 21.5162 14.8663 21.5291C14.7341 21.4904 14.6155 21.4484 14.5037 21.4581C14.3207 21.4581 14.1818 21.5711 14.1174 21.6325C14.0022 21.5808 13.8361 21.5227 13.6837 21.5388C13.3617 21.5776 13.3109 21.8746 13.3109 22.0426C13.0602 22.0458 12.9212 22.0522 12.9212 22.0522L12.8433 22.1265C12.8738 22.0716 12.9111 21.9973 12.8941 21.9973C12.5248 21.9812 11.9792 21.8553 11.3896 21.6809C11.4337 21.584 11.4947 21.4452 11.5116 21.3774C11.5387 21.2966 11.5692 20.9479 11.2575 20.8381C10.9457 20.7025 10.495 20.7315 10.3256 20.6218C10.1562 20.541 10.0139 20.4054 9.87494 20.3537C9.73263 20.3279 9.30906 20.4603 9.17013 20.4345C9.0007 20.4086 8.80417 20.2181 8.60424 20.1665C8.37721 20.1116 8.09596 20.3279 8.03836 20.4086C7.98075 20.4894 7.95364 20.7864 8.09596 20.9188C8.20779 21.0254 8.23828 20.8639 8.40771 21.0254C8.55003 21.161 8.40771 21.3225 8.60424 21.429C8.71607 21.4839 8.85838 21.3741 9.0007 21.4549C9.17013 21.5614 9.25484 21.8585 9.42427 21.9651C9.56659 22.0716 9.76312 21.9392 9.95966 22.0458C10.1867 22.1265 10.1291 22.3687 10.4408 22.4753C10.7221 22.6109 10.9762 22.3396 11.0609 22.2331C11.0948 22.1653 11.1965 22.0038 11.2676 21.8908C11.7217 22.0587 12.1385 22.1846 12.4435 22.2331C12.5078 22.2557 12.5621 22.2621 12.6129 22.2589L10.102 22.7982C10.102 22.7982 10.0613 22.8757 9.99693 22.9176L10.0478 22.7982C10.0478 22.7982 9.38361 22.6561 8.51275 22.4171C8.5568 22.3784 8.60763 22.3138 8.63474 22.2331C8.66185 22.0716 8.74656 21.7487 8.3806 21.5614C8.18407 21.4258 7.78761 21.5356 7.50636 21.4258C7.22511 21.3192 7.27933 21.1836 7.02519 21.1287C6.77105 21.0738 6.62873 21.2643 6.37459 21.2353C6.14756 21.1804 5.97813 20.9931 5.86631 20.9382C5.75449 20.9124 5.27331 20.8026 5.16149 21.1255C5.04967 21.4742 5.2191 21.6357 5.24621 21.6357C5.24621 21.6615 5.41563 21.6906 5.50035 21.7713C5.58506 21.852 5.55795 22.0393 5.69688 22.1491C5.8392 22.2557 5.95102 22.0942 6.14756 22.2298C6.31698 22.3655 6.34409 22.6593 6.57112 22.74C6.76766 22.8208 6.90998 22.7142 7.0794 22.7949C7.24883 22.8757 7.13701 23.0113 7.56057 23.2535C7.91637 23.4569 8.29589 22.8563 8.40432 22.6658C8.90243 22.8401 9.34972 22.9725 9.64114 23.008C8.6754 23.247 7.82488 23.5118 7.08618 23.783C6.97097 23.6119 6.76427 23.3116 6.68294 23.2567C6.59823 23.176 6.31698 22.9596 6.03235 23.0694C5.77821 23.176 5.7511 23.473 5.52407 23.6345C5.26992 23.7701 5.04289 23.6603 4.84636 23.7701C4.61933 23.8767 4.59222 24.2803 4.36519 24.3901C4.16865 24.5257 4.05344 24.3901 3.85691 24.4967C3.68748 24.6323 3.7993 24.8454 3.62987 25.0068C3.46045 25.1425 3.46045 25.0617 3.34863 25.1425C3.26052 25.2006 3.06399 25.4169 3.23342 25.7657C3.37573 26.1144 3.91112 26.0337 4.02294 26.0079C4.13477 25.982 4.44651 25.685 4.67354 25.6301C4.90057 25.6042 5.09711 25.7657 5.43596 25.7108C5.74771 25.6559 5.94424 25.362 6.11367 25.3072C6.25599 25.2523 6.62195 25.2523 6.9337 25.1457C7.24544 25.065 7.49958 24.6872 7.41487 24.4192C7.38098 24.2448 7.27933 24.1189 7.20139 24.0414C8.12646 23.754 9.39716 23.3923 10.3493 23.2083C10.5662 23.1824 12.3045 22.782 12.4299 22.753C12.0978 22.9564 11.5929 23.2664 11.0508 23.6054C10.9661 23.5279 10.8068 23.4052 10.6306 23.4246C10.4036 23.4246 10.4341 23.5861 10.1799 23.6409C9.95288 23.6958 9.69874 23.5861 9.52931 23.6958C9.35989 23.7766 9.4446 23.9122 9.19046 24.0446C8.93632 24.1511 8.76689 24.0446 8.57036 24.1802C8.40093 24.3158 8.45854 24.5289 8.37382 24.7195C8.28911 24.9067 7.83843 25.1489 7.86554 25.4202C7.86554 25.6882 8.17729 25.8238 8.262 25.8496C8.31961 25.8755 8.54325 25.9562 8.74317 25.9045C8.93971 25.8787 8.99731 25.6365 9.30906 25.5558C9.6208 25.5009 9.6208 25.7172 10.0444 25.6365C10.4679 25.53 10.5255 25.2071 10.6645 25.0714C10.8068 24.91 10.9762 25.0165 11.1999 24.7227C11.454 24.3449 11.3422 23.8896 11.2575 23.8089C11.2371 23.7798 11.2168 23.7572 11.1965 23.741C12.9924 22.6948 13.5718 22.598 13.5718 22.598C13.5718 22.598 14.0767 22.4849 15.4626 22.5075C15.2424 22.669 14.8866 22.9435 14.5138 23.2567C14.3309 23.163 14.0191 22.9951 13.9412 22.9209C13.8294 22.8401 13.6294 22.7336 13.3482 22.9209C13.0669 23.0823 13.2059 23.4311 13.0093 23.6474C12.8128 23.8638 12.5858 23.7023 12.4163 23.9445C12.2469 24.1608 12.3892 24.4547 12.2469 24.6452C12.1046 24.8325 11.8505 24.7808 11.7962 24.9423C11.7386 25.0779 11.881 25.2393 11.7691 25.4266C11.6844 25.5881 11.515 25.6139 11.4879 25.7237C11.4608 25.8303 11.4608 26.0208 11.6302 26.2081C11.9691 26.4761 12.5621 26.1822 12.6739 26.0724C12.7857 25.9368 12.928 25.6946 13.0127 25.5881C13.0974 25.4815 13.5786 25.4525 13.8023 25.3201C14.0293 25.1844 14.0293 24.9713 14.1987 24.8099C14.3953 24.6226 14.8493 24.6226 15.0458 24.1899C15.2424 23.7863 14.8493 23.5441 14.8493 23.5441L14.7002 23.4569C15.3711 22.9596 15.9065 22.5947 15.9506 22.5754C15.9675 22.5592 15.9845 22.5431 15.998 22.5269C16.6859 22.5527 17.5466 22.6076 18.6072 22.711C18.9766 22.7433 19.3425 22.7852 19.7085 22.8272C19.5052 22.9919 19.1155 23.3019 18.7258 23.6151C18.4513 23.3955 18.3666 23.3245 18.2107 23.2761C18.0142 23.1953 17.7601 23.1146 17.5601 23.2502C17.3602 23.3859 17.4178 23.7604 17.2484 23.9509C17.079 24.1382 16.8248 24.0317 16.6554 24.2738C16.486 24.516 16.5978 24.8131 16.486 24.9455C16.3742 25.107 16.0895 25.1328 16.0048 25.2426C15.9472 25.3491 16.0048 25.672 15.9777 25.7818C15.9506 25.8626 15.7812 25.8626 15.7236 25.9982C15.6388 26.1047 15.6388 26.3469 15.8659 26.5374C16.2623 26.7796 16.5436 26.644 16.8553 26.4309C17.1942 26.2145 16.94 26.1338 17.2518 25.9465C17.533 25.7302 17.6754 25.8658 17.9871 25.7043C18.2988 25.5429 18.2141 25.4073 18.4378 25.1392C18.6648 24.8712 19.1155 25.0585 19.2578 24.5742C19.4069 24.1511 19.2307 24.0155 18.9393 23.7927C19.4137 23.4375 19.7966 23.1695 19.8779 23.1211C20.0067 23.0242 20.1354 22.9467 20.1795 22.895C24.4456 23.4375 28.0917 24.5838 29.2336 24.9649C29.237 24.9778 29.2404 24.9842 29.2404 24.9842L29.2472 24.9681C29.481 25.0456 29.6064 25.0908 29.6064 25.0908C29.6064 25.0908 29.7487 24.7937 29.7182 24.5515C29.7182 24.3126 29.8334 24.0446 29.8334 24.0446ZM12.7247 22.2363L12.7213 22.2395L12.7078 22.2428C12.7145 22.2428 12.7179 22.2395 12.7247 22.2363ZM15.483 21.9973C15.4864 21.9973 15.4864 22.0006 15.483 21.9973C15.5406 22.0006 15.6626 22.0199 15.8083 22.0458C15.6388 22.0426 15.4728 22.0393 15.3135 22.0393C15.3745 22.007 15.4186 22.0006 15.4559 22.0006C15.466 21.9973 15.4728 21.9973 15.483 21.9973ZM16.8723 22.0619L17.184 22.0781L17.2315 21.9812C17.2416 22.0167 17.2586 22.0522 17.2958 22.0845C17.1467 22.0781 16.9976 22.0748 16.8553 22.0684C16.8587 22.0684 16.8655 22.0652 16.8723 22.0619ZM16.6452 20.8155L16.8926 20.1277C17.0553 20.2278 17.2077 20.3118 17.3162 20.3699C17.2348 20.6121 17.079 21.0189 16.8723 21.2708C16.6554 21.5324 16.5199 21.6002 16.3843 21.6163L16.2793 21.5679L16.6452 20.8155ZM13.8802 22.0393C13.9886 21.9941 14.1004 21.9618 14.1309 21.9489C14.1885 21.9489 14.8663 21.9747 14.8663 21.9747L15.0357 21.9812C15.0289 21.9973 15.0187 22.0167 15.0154 22.0393C14.5816 22.0329 14.1987 22.0361 13.8802 22.0393ZM17.8211 22.1071C18.0176 22.0845 18.1972 22.0522 18.1972 22.0522L18.4513 22.0748V22.0781L18.4547 22.0748L18.4818 22.0781C18.4818 22.0781 18.7936 21.9425 18.9901 22.1588C18.9325 21.9425 18.8207 21.8101 18.6784 21.7293C18.3395 21.513 17.7736 21.6228 17.6618 21.5679C17.5398 21.4968 17.5432 21.1707 17.9092 20.5798C18.4988 20.9834 19.1866 21.2902 19.2985 21.245C19.4408 21.1642 19.3832 20.7348 19.3561 20.5733C19.3561 20.5475 19.3561 20.5184 19.3561 20.5184C19.3561 20.5184 19.5526 20.7348 19.722 20.5992C19.8643 20.4926 19.6949 19.8177 19.6949 19.8177C19.6949 19.8177 19.8372 19.8984 20.0338 19.8177C20.2608 19.7112 20.0609 19.0363 20.0609 19.0363C20.0609 19.0363 20.2574 19.117 20.4268 18.9556C20.4641 18.9265 20.4912 18.8845 20.5082 18.8393L20.5692 18.9007C20.5692 18.9007 21.2198 19.4657 21.9517 20.5959C22.1719 20.9285 22.9208 21.9941 23.4155 22.6948C22.687 22.5721 21.9517 22.4591 21.2435 22.3719C20.1151 22.2428 18.9291 22.1588 17.8211 22.1071Z" fill="#606C7D"/>
</svg>
