<svg width="33" height="32" viewBox="0 0 33 32" fill="none" xmlns="http://www.w3.org/2000/svg">
<path d="M24.5 23.8269C24.4904 23.7819 24.4648 23.6757 24.4328 23.5469C24.4232 23.4568 24.4072 23.3634 24.3848 23.2636C24.3272 22.9481 24.2088 22.5844 24.0808 22.2496C24.0424 22.1402 23.9976 22.0339 23.9496 21.9277C23.9112 21.8376 23.876 21.7539 23.8408 21.6734C23.828 21.638 23.8152 21.6058 23.8024 21.5704C23.796 21.5511 23.7864 21.535 23.78 21.5157C23.7704 21.4899 23.7608 21.4609 23.748 21.4352C23.4056 20.5371 22.8232 19.478 22.2824 18.5766C22.2824 18.5734 22.2824 18.5702 22.2792 18.567H22.2728C22.228 18.4897 22.18 18.4125 22.1352 18.3384C22.084 18.2483 22.036 18.1614 21.9848 18.0745C21.9752 18.0487 21.9688 18.0262 21.956 18.0036H21.9432C21.876 17.8845 21.8088 17.7719 21.7416 17.656V17.6528C21.6968 17.5755 21.652 17.5015 21.6104 17.4274C21.6008 17.3985 21.5912 17.3727 21.5848 17.3598L21.5784 17.3695C21.54 17.2922 21.4952 17.2182 21.4536 17.1474C21.4216 17.0959 21.3864 17.0444 21.3544 16.9929C21.2648 16.8416 21.1784 16.6967 21.0952 16.5615C21.0984 16.5583 21.1016 16.5583 21.1048 16.5551L21.0856 16.5486C20.6216 15.7857 20.2888 15.2674 20.2504 15.2159C20.2024 15.1676 19.9912 14.8586 19.6744 14.4079C19.6104 14.3146 19.5432 14.218 19.4792 14.1247C19.4792 14.1215 19.4792 14.1182 19.4792 14.115L19.4728 14.1118C19.1304 13.6257 18.788 13.1654 18.4776 12.7759C18.4744 12.7662 18.4712 12.7566 18.468 12.7469L18.452 12.7437C18.3464 12.6117 18.2472 12.4926 18.1512 12.3799C18.068 12.2769 17.9848 12.1771 17.8984 12.0741C17.9464 12.0677 17.892 12.0484 17.8472 12.013C17.7992 11.9582 17.7512 11.9035 17.7064 11.8456C17.4984 11.5623 16.8648 10.9088 16.5928 10.677C16.5448 10.632 16.4936 10.5869 16.4456 10.5418C16.1832 10.2264 15.7512 9.87872 15.3224 9.54072C15.0344 9.28641 14.8232 9.0997 14.6536 8.94841L14.7432 9.08039C14.3944 8.79711 14.1128 8.5428 14.0136 8.34322C13.9976 8.31425 13.9848 8.2885 13.972 8.25953C13.988 8.27884 14.0008 8.29816 14.0136 8.31747C14.0136 8.30459 14.02 8.29816 14.0232 8.29172C14.1992 8.51705 14.3528 8.67479 14.6568 8.94841L13.6488 7.43223C13.5944 7.23586 13.5496 7.03306 13.508 6.81738C13.428 6.71115 13.348 6.63068 13.3224 6.49548C13.268 6.46972 13.2168 6.46972 13.1624 6.44075C13.188 6.2798 13.0024 6.2798 13.028 6.1446C12.948 6.11885 12.868 6.08987 12.8136 6.06412C12.7336 5.87742 12.548 5.82269 12.3336 5.74221V5.66174C12.068 5.58126 11.8792 5.47503 11.6136 5.44606V5.39777C11.2392 5.34305 10.9736 5.3173 10.5992 5.34305V5.39777C10.4392 5.39777 10.3336 5.4525 10.1992 5.4525V5.50722C10.1192 5.53297 10.0936 5.53297 10.0392 5.53297C10.0136 5.55873 9.9848 5.61345 9.9848 5.66818L9.94 5.6392C9.9144 5.66496 9.9144 5.69393 9.9144 5.71968C9.6744 5.80016 9.5688 6.01584 9.54 6.25727C9.5496 6.25083 9.5624 6.24761 9.5752 6.24439C9.5688 6.25083 9.5688 6.25405 9.5688 6.25727C8.9544 6.30877 8.5256 6.8206 8.5 7.27449V7.30024C8.5 7.49017 8.5544 7.65112 8.66 7.75735C9.54 6.79163 10.26 7.49017 10.42 8.42692C10.4904 8.90656 10.452 9.42483 10.3976 9.94954C10.3656 10.1749 10.324 10.3809 10.2856 10.5451C10.34 10.6513 10.3112 10.8412 10.2312 10.9217L10.2856 10.867C10.2856 10.941 10.2952 11.0086 10.3048 11.0794C10.3016 11.1889 10.3016 11.2983 10.3016 11.4046C10.3016 11.3949 10.3016 11.3852 10.3048 11.3788C10.3048 11.3917 10.3048 11.4078 10.3048 11.4207C10.3048 11.4239 10.3048 11.4271 10.3016 11.4303C10.3016 11.4239 10.3016 11.4142 10.3016 11.4078C10.3016 11.4207 10.2984 11.4303 10.2984 11.4432C10.2952 11.4561 10.2888 11.4722 10.2856 11.4883C10.2728 11.5365 10.276 11.5848 10.2856 11.6331C10.2856 11.6395 10.2856 11.6428 10.2856 11.6492C10.2888 11.6524 10.292 11.6556 10.292 11.6589C10.2984 11.6846 10.308 11.7136 10.3176 11.7393C10.3208 11.7876 10.324 11.8391 10.3304 11.8906C10.3176 11.9389 10.3176 11.9647 10.34 11.9969C10.3336 12.0162 10.324 12.0323 10.3112 12.0516C10.34 12.1353 10.3624 12.2222 10.3816 12.3123C10.3944 12.3896 10.4072 12.4669 10.4232 12.5441C10.436 12.6439 10.4424 12.7373 10.4424 12.8274C10.468 12.8531 10.4968 12.8821 10.4968 12.9336C10.5224 13.0109 10.5544 13.0914 10.5896 13.175C10.628 13.2877 10.6696 13.4036 10.7176 13.5163C10.74 13.5903 10.756 13.6643 10.7656 13.7384C10.788 13.7448 10.82 13.7738 10.852 13.8092C11.0088 14.1247 11.2072 14.4369 11.46 14.7299C11.4824 14.7588 11.5016 14.7878 11.524 14.8168C11.7544 15.1451 12.0008 15.4541 12.3112 15.6956C12.4104 15.7825 12.4712 15.8276 12.5 15.8565C12.5352 15.9241 12.5736 16.0014 12.6152 16.0883C12.6408 16.1752 12.66 16.2589 12.6888 16.3394C12.7624 16.5422 12.8264 16.6774 12.8904 16.7933C12.8904 16.7933 12.8904 16.7965 12.8936 16.8029C12.8936 16.8126 12.9 16.8223 12.9064 16.8319C13.0248 17.0572 13.7832 18.2676 13.9976 18.6764C14.2376 19.1593 14.2376 19.507 14.132 20.1797C14.292 20.1797 14.292 20.2345 14.452 20.1797C14.4648 20.154 14.4776 20.1282 14.4872 20.1025L14.7432 20.0799C14.7432 20.1057 14.7464 20.1411 14.7464 20.1862C14.7464 20.2151 14.7336 20.4405 14.7048 20.7334C14.7016 20.727 14.6952 20.7205 14.692 20.7141L14.6952 20.6916C14.6952 20.6916 14.6696 20.6723 14.6248 20.6433C14.5832 20.6111 14.5352 20.5853 14.484 20.5628C14.3496 20.4952 14.18 20.434 14.0552 20.4759C14.0104 20.492 13.9784 20.5145 13.9528 20.5467C13.6744 20.3729 13.0088 20.6143 13.3608 21.0682C13.4408 20.9362 13.5464 20.7238 13.8856 20.8783C13.8888 20.9137 13.8952 20.9362 13.8952 20.9362C14.0328 20.9137 14.3624 21.007 14.5064 20.9845C14.4904 20.9942 14.4712 21.0038 14.4488 21.0135C14.4168 21.0167 14.3848 21.0167 14.3496 21.0167C14.2536 21.0811 14.132 21.1101 14.0072 21.1261C13.988 21.1261 13.9688 21.1261 13.9496 21.1229C13.6616 21.0972 13.3448 21.1229 13.3352 21.2517C13.3096 21.2903 13.3 21.3418 13.3352 21.3901C13.3352 21.4062 13.3352 21.4255 13.3352 21.4416C13.3256 21.4835 13.3128 21.5221 13.3032 21.5639C13.2904 21.4963 13.2776 21.4255 13.3096 21.3644C13.0152 21.0167 12.1896 21.4448 12.644 22.0629C12.644 21.8537 12.9448 21.4931 13.2808 21.6959C13.2808 21.712 13.2808 21.7281 13.284 21.741C13.2872 21.7506 13.2968 21.7571 13.316 21.7603C13.3416 21.7925 13.4664 21.7635 13.6328 21.7056C13.9784 21.6122 14.4744 21.4287 14.6088 21.3772C14.564 21.5607 14.5224 21.7313 14.4872 21.8858C14.4616 21.9599 14.4328 22.0243 14.4008 22.0822C14.3496 22.1305 14.276 22.211 14.2248 22.2657C14.2152 22.2689 14.2024 22.2754 14.1928 22.2754C13.6872 22.3816 13.2328 22.2206 12.6984 22.3816C12.6632 22.4106 12.6248 22.446 12.5864 22.4878C12.5736 22.4943 12.5608 22.5071 12.5512 22.5297C12.532 22.5554 12.5096 22.5812 12.4936 22.6069C12.5256 22.5554 12.5576 22.5071 12.5928 22.4621C12.2984 22.0597 11.2584 22.4363 11.7672 23.1864C11.8216 22.9707 11.9816 22.5683 12.3816 22.8097C12.4104 22.755 12.4456 22.6906 12.484 22.6262C12.4264 22.7196 12.3976 22.8258 12.436 22.916C12.4904 23.0769 12.916 23.1831 12.9704 22.8097C13.0056 22.8194 13.0408 22.8226 13.076 22.829C13.1528 22.8516 13.236 22.8548 13.3224 22.8483C13.636 22.8483 13.8728 22.7711 13.9528 22.8097C13.956 22.8129 13.9592 22.8162 13.9592 22.8194C13.9528 22.829 13.9176 22.8451 13.8696 22.8677C13.8344 22.8644 13.8088 22.8612 13.8344 22.8838C13.8248 22.887 13.8152 22.8934 13.8024 22.8966C13.684 22.916 13.6136 22.9578 13.5688 23.0093C13.5016 23.0512 13.4568 23.093 13.4728 23.1348C13.524 23.2894 13.1624 23.1509 13.0376 23.4374C12.9992 23.4889 12.9704 23.5533 12.948 23.6402C12.9416 23.6499 12.932 23.6596 12.9256 23.6692C12.8648 23.6756 12.6472 23.7143 12.4648 23.769C12.3112 23.7851 12.1416 23.8366 12.1416 23.9943C12.1448 24.033 12.1512 24.0748 12.164 24.1231C11.9048 24.2422 11.4792 24.7734 12.1704 25.121C12.1704 24.8184 12.196 24.6317 12.3048 24.4643C12.4264 24.6478 12.6088 24.7186 12.836 24.371C12.8488 24.3549 12.8584 24.3356 12.868 24.3195C13.0568 24.078 13.2264 23.9782 13.4344 23.8945C13.5048 23.8817 13.5528 23.8785 13.5816 23.8302C13.6584 23.7014 14.0328 23.2475 14.1544 23.3119C14.1736 23.3634 14.1544 23.4728 14.1288 23.5791C14.0552 23.7754 13.9272 24.0104 13.9272 24.0458C13.9176 24.0716 13.8952 24.1263 13.8792 24.1939C13.6904 24.3645 13.5368 24.812 14.0584 25.1178C14.0424 24.8313 14.0264 24.6607 14.0808 24.5094C14.1448 24.5255 14.2248 24.5319 14.324 24.5287C14.3304 24.519 14.3368 24.5094 14.3432 24.4997C14.3784 24.4643 14.4392 24.416 14.404 24.3967C14.4936 24.2197 14.5192 24.0362 14.5608 23.8849C14.5768 23.8205 14.5928 23.7593 14.6088 23.7046C14.676 23.5598 14.7368 23.4793 14.7464 23.3344C14.7656 23.3055 14.7816 23.2829 14.8008 23.27C14.9608 23.1896 15.1752 22.9224 15.2264 22.8934C15.2296 22.8902 15.236 22.8838 15.2424 22.8805C15.2808 22.8902 15.2904 22.887 15.4152 22.8741C15.4408 22.8805 15.4664 22.887 15.4952 22.8934C15.6008 22.9192 16.1096 23.3505 16.2952 22.9996C16.324 22.9514 16.3464 22.9095 16.3656 22.8741C16.3624 22.9063 16.356 22.9417 16.3496 22.9739C16.804 22.9996 16.724 23.4568 16.644 23.6435C17.4696 23.3216 16.8584 22.4106 16.404 22.5715C16.4008 22.5844 16.4008 22.5973 16.3976 22.6101C16.3912 22.5297 16.3592 22.4653 16.2824 22.4299C16.228 22.3784 16.1608 22.3655 16.0968 22.4073C16.084 22.4073 16.0712 22.4106 16.0584 22.4106C16.0584 22.4202 16.0584 22.4299 16.0584 22.4363C16.036 22.4588 16.0136 22.4717 15.9912 22.4782C15.9784 22.4299 15.9784 22.4556 15.9784 22.4363C15.9144 22.4492 15.8536 22.4556 15.8056 22.4556C15.7704 22.446 15.732 22.4395 15.6872 22.4363H15.684C15.5016 22.4363 15.5464 22.3365 15.1848 22.256C15.1784 22.2206 15.1752 22.1756 15.1752 22.1208C15.2104 21.9406 15.2392 21.77 15.2616 21.6058C15.2744 21.6058 15.3256 21.6122 15.3992 21.6219C15.6392 21.6605 15.9016 21.7442 16.1128 21.815C16.1832 21.8601 16.3176 21.8987 16.4424 21.9052C16.596 21.9341 16.7112 21.9341 16.6728 21.873C16.692 21.8376 16.7048 21.8022 16.7176 21.7667C17.044 21.8054 16.9672 22.1691 16.9128 22.3558C17.5272 22.0597 17.0728 21.3096 16.7272 21.4448C16.7272 21.4738 16.7272 21.5028 16.7272 21.5317C16.7176 21.4899 16.6984 21.4513 16.676 21.4191C16.66 21.3837 16.644 21.3547 16.6216 21.3354C16.5928 21.3064 16.5416 21.2903 16.484 21.2839C16.3656 21.2485 16.2056 21.2581 16.0008 21.3289C15.9816 21.3257 15.9528 21.3161 15.924 21.3096C15.7992 21.2581 15.6392 21.2034 15.492 21.1712C15.4056 21.1422 15.3448 21.1197 15.3448 21.1197L15.3416 21.1487C15.332 21.1487 15.3224 21.1487 15.316 21.1487C15.3288 20.9266 15.3224 20.7044 15.2936 20.4791C15.2936 20.4405 15.2968 20.4019 15.3032 20.36C15.3128 20.3182 15.3224 20.2763 15.3288 20.228C15.3192 20.3278 15.3192 20.4147 15.3192 20.5306C15.3192 20.5338 15.3224 20.5338 15.3224 20.5371C15.3352 20.8654 15.4056 21.0907 15.4248 21.0135C15.428 21.0038 15.4312 20.9942 15.4344 20.9813C15.4568 20.9555 15.4824 20.8493 15.5048 20.8268C15.5048 20.7978 15.508 20.7688 15.5144 20.7366C15.5304 20.6884 15.5464 20.6368 15.5624 20.5853C15.5656 20.624 15.572 20.6594 15.5848 20.6948C15.5848 20.7077 15.5848 20.7238 15.5848 20.7366C15.5752 20.7656 15.572 20.7914 15.5848 20.83C15.5848 20.83 15.588 20.83 15.5912 20.83C15.6104 21.0714 15.6648 21.2324 15.7192 21.1229C15.796 20.9909 15.8568 20.6175 15.8664 20.3825C15.8696 20.418 15.876 20.4598 15.8824 20.5016C15.8664 20.7302 15.8792 20.9169 16.0104 21.1487C16.02 21.168 16.0296 21.1809 16.0392 21.1777C16.0712 21.168 16.084 21.1004 16.0936 21.0135C16.132 20.8944 16.1192 20.756 16.1192 20.6401C16.1192 20.6401 16.2536 21.0167 16.2792 21.1229C16.3048 21.1229 16.3336 21.1229 16.356 21.1229C16.3816 21.1616 16.4072 21.197 16.4392 21.2292C16.564 20.7173 16.516 20.4566 16.4648 20.3343C16.4584 20.3053 16.4488 20.2828 16.4392 20.2634L16.5192 20.3439C16.6248 20.4244 16.6792 20.5596 16.8136 20.5853C16.8168 20.5853 16.8168 20.5821 16.82 20.5821C16.8552 20.5886 16.8904 20.5757 16.9224 20.5306C16.9832 20.4437 16.9768 20.3343 16.948 20.2119C16.9288 20.1057 16.8872 19.9963 16.8552 19.8932L16.9032 19.89C16.8776 19.8578 16.852 19.8256 16.8264 19.7902C16.8232 19.7774 16.82 19.7645 16.8168 19.7516C16.8328 19.7741 16.8744 19.8256 16.9288 19.8868L16.9032 19.89C17.0312 20.051 17.1528 20.183 17.2552 20.2473C17.2648 20.257 17.268 20.2634 17.268 20.2634C17.3896 20.3439 17.4344 20.3182 17.4632 20.2409C17.5016 20.1894 17.524 20.096 17.5336 19.9512C17.5336 19.948 17.5368 19.9447 17.5368 19.9415C17.5496 19.9415 17.5432 19.919 17.5368 19.8997C17.5368 19.8868 17.5368 19.8739 17.5368 19.8611V19.8578C17.5368 19.8514 17.5368 19.8417 17.5368 19.8353H17.5336C17.5336 19.8289 17.5336 19.8224 17.5336 19.816C17.5464 19.8417 17.5592 19.8675 17.5752 19.8965L17.5656 19.89C17.5656 19.89 17.6264 20.1862 17.7992 20.4888C17.8472 20.5821 17.9016 20.6723 17.94 20.7495C18.02 20.7753 18.1256 21.1777 18.7656 21.1261C18.9256 21.1036 19.0632 21.0811 19.1016 21.0585C21.0216 25.7777 23.2456 28.0922 23.2456 25.7326L22.1992 23.5855C22.2408 23.5405 22.2728 23.4889 22.2376 23.4085C22.244 23.3924 22.2472 23.3795 22.2504 23.3634C22.2728 23.3087 22.2856 23.27 22.2888 23.2379L22.356 23.2443C22.4456 23.2668 22.5928 23.2765 22.7112 23.2765L22.9032 23.2926L22.8648 23.2379C22.868 23.2379 22.8712 23.2379 22.8776 23.2379C22.8232 23.1574 22.7976 23.0769 22.7432 22.9707C22.7304 22.9836 22.724 22.99 22.7144 22.9932C22.4392 22.4556 22.1096 21.8923 21.8344 21.3869C21.8152 21.3225 21.812 21.2613 21.8152 21.2066C21.8472 21.2388 21.876 21.2742 21.908 21.3064C21.9208 21.3354 21.9304 21.3579 21.9432 21.3579C22.2856 21.7378 23.0664 22.5715 23.684 23.122C23.7352 23.1703 23.7864 23.2153 23.8344 23.2572C23.8632 23.2926 23.9112 23.3248 23.892 23.3441C24.1256 23.5308 24.2856 23.6917 24.5 23.8269ZM18.612 19.8675L18.5736 19.7709C18.5736 19.7645 18.5736 19.7613 18.5768 19.7548C18.5896 19.7935 18.6056 19.8289 18.6184 19.8675C18.6152 19.8675 18.612 19.8675 18.612 19.8675ZM18.5704 19.7806L18.6056 19.8675C18.5896 19.8675 18.5768 19.8675 18.5608 19.8643C18.564 19.8417 18.5672 19.8128 18.5704 19.7806ZM14.74 19.7774C14.7496 19.7774 14.772 19.787 14.7976 19.8063C14.7944 19.816 14.7912 19.8224 14.788 19.8321C14.7688 19.8643 14.7496 19.8932 14.724 19.919C14.7528 19.8611 14.7688 19.8031 14.74 19.7774ZM15.62 19.9995V19.9898C15.6232 19.993 15.6232 19.993 15.6264 19.9963L15.62 19.9995Z" fill="#606C7D"/>
</svg>
