<svg width="33" height="32" viewBox="0 0 33 32" fill="none" xmlns="http://www.w3.org/2000/svg">
<path d="M29.0837 14.1615C29.0837 14.1615 29.5466 12.2314 27.0306 11.4182C26.8294 11.4182 25.5009 11.2998 24.1675 12.7461C23.7297 12.3498 23.307 12.1285 23.1762 12.0616C22.044 11.5469 19.9055 11.763 19.7394 11.8042C16.4284 12.7049 15.8397 12.5351 15.7139 12.5351C14.1188 12.5763 12.9463 11.2483 12.8205 10.991C11.8142 9.40571 12.5689 7.38809 12.5689 7.38809C12.5689 7.38809 12.8608 8.11896 13.1577 8.24764C14.0785 8.63366 14.2496 8.93219 14.2496 9.06086C14.1641 10.4763 14.4157 10.5175 14.5012 10.605C14.6672 10.6925 14.793 10.7748 14.8383 10.6925C14.9239 10.605 14.7125 9.57556 14.8383 9.53439C14.9641 9.49321 15.0044 10.5638 15.0899 10.605C15.6787 10.8623 16.0561 10.2601 16.0561 10.1314C15.9705 8.97336 15.5931 8.41749 15.6384 7.85646C15.5981 7.38294 15.6384 6.69839 15.6384 6.39986C15.6384 6.36383 15.6233 6.31751 15.6032 6.27119C15.895 6.18884 16.3278 5.90575 16.2674 5.84399C16.2674 5.8131 15.6334 5.75134 15.2962 5.71016C15.8598 5.61237 16.1869 5.24693 16.1869 5.24693C16.1869 5.24693 15.5378 5.08738 14.8484 4.92782C14.7025 4.72709 14.4257 4.40797 14.0483 4.21753C13.4193 3.91901 12.4532 4.08886 12.4532 4.08886C12.4532 4.08886 11.9098 4.17636 11.6582 4.17636C11.4066 4.17636 10.5662 3.96018 10.1888 4.00651C9.90203 4.07857 9.49948 4.3668 9.25795 4.48003L8.80507 4.52121C8.83527 4.5315 8.86042 4.53665 8.89062 4.5418C8.65915 4.55209 8.3673 4.55724 8.005 4.64988C7.62258 4.77856 7.48168 5.03591 7.23009 5.28811C7.22505 5.29326 7.21499 5.29326 7.20996 5.29326H7.22505C7.1697 5.34987 7.10429 5.40649 7.02881 5.45796L6.94327 5.45281C6.95836 5.45796 6.97346 5.45796 6.99359 5.46311C6.97849 5.4734 6.9634 5.4837 6.94327 5.49399C6.44008 5.75134 6.81747 5.32414 5.14185 6.61089C5.14185 6.65207 5.55949 6.90942 5.51924 6.90942C5.47898 6.90942 5.14185 7.03809 5.01605 6.99691C4.89528 6.95574 5.20223 7.27485 5.60478 7.29544H5.55949C5.58465 7.29544 5.60981 7.29544 5.64 7.29544C5.3079 7.41897 4.93051 7.37779 4.84999 7.37779C4.80974 7.37779 5.26764 7.63514 5.51924 7.63514C5.51924 7.65058 5.50917 7.66088 5.49408 7.67117L5.4337 7.68661C5.44376 7.69176 5.45382 7.69176 5.46892 7.69691C5.31293 7.75867 4.84999 7.73294 4.84999 7.73294C4.84999 7.94911 5.47898 7.99029 5.47898 8.03146C5.48905 8.0469 5.48401 8.06234 5.46389 8.07264H5.43873C5.44376 8.07264 5.44879 8.07779 5.45382 8.07779C5.2928 8.15499 4.58834 8.15499 4.76948 8.15499C4.68394 8.15499 5.18713 8.45352 5.27267 8.45352C5.31293 8.45352 4.93554 8.58219 4.76948 8.54102C4.80974 8.79837 5.52427 8.83954 5.52427 8.83954C5.52427 9.09689 4.76948 8.88072 4.72923 8.88072C4.72923 9.22557 5.48401 9.22557 5.48401 9.22557C5.47898 9.24101 5.46892 9.25645 5.45382 9.26674H5.44376C5.44376 9.26674 5.44879 9.26674 5.44879 9.27189C5.34312 9.35424 5.03618 9.35424 4.85503 9.35424C4.93051 9.50865 5.28777 9.56012 5.37835 9.56527H5.35822C5.37331 9.56527 5.38841 9.56527 5.4035 9.56527C5.39847 9.58586 5.13178 9.73512 4.89528 9.73512C5.27267 9.99247 5.60981 9.90497 5.60981 9.90497C5.56956 10.0748 4.98082 10.1211 5.02108 10.1211C5.10159 10.4145 5.6702 10.255 5.73058 10.291C5.71548 10.291 5.70542 10.291 5.69032 10.291H5.73058C5.73058 10.3785 5.01605 10.5072 5.01605 10.5072C5.4337 10.7645 5.77083 10.5483 5.77083 10.5483C5.77587 10.5741 5.77083 10.5947 5.7658 10.6101C5.73561 10.6256 5.72051 10.6307 5.73058 10.6307H5.75574C5.66516 10.7697 5.27771 10.8057 5.10159 10.8417C5.22739 11.0991 5.77083 11.0116 5.77083 11.0116C5.77083 11.0116 5.75574 11.027 5.73058 11.0528C5.6551 11.1248 5.47395 11.2689 5.22739 11.2689C5.39344 11.4388 5.77083 11.3976 5.77083 11.3564C5.77083 11.3667 5.77083 11.377 5.7658 11.3822C5.73058 11.3873 5.69032 11.3925 5.64504 11.3976L5.75574 11.4027C5.66516 11.5263 5.22739 11.5263 5.22739 11.5263C5.37835 11.7219 5.95198 11.7373 5.95701 11.7733C5.93689 11.7785 5.92179 11.7785 5.90166 11.7836H5.94192C5.97714 11.9123 5.43873 11.9535 5.39847 11.9535C5.59472 12.2366 6.1281 12.1388 6.18848 12.0924C5.93689 12.4682 5.65007 12.3858 5.56453 12.3858C5.52427 12.6432 6.02746 12.6844 6.02746 12.6844C6.02746 12.6998 6.02243 12.7152 6.0174 12.7255C6.00733 12.7255 5.99727 12.7255 5.98721 12.7255H6.0174C5.95701 12.8542 5.64504 12.8542 5.60981 12.8542C5.73561 13.0704 6.19855 13.0704 6.15326 13.1116C6.15326 13.1167 6.15829 13.127 6.15829 13.1321C6.14319 13.1373 6.1281 13.1476 6.113 13.1527H6.15326C6.10797 13.2454 5.81109 13.2814 5.73561 13.2814C5.92179 13.4358 6.20861 13.4152 6.29918 13.4101H6.31931C6.23377 13.5388 6.10797 13.5799 5.86141 13.6623C6.05262 13.8579 6.28409 13.8373 6.3495 13.8321H6.3646C6.27906 14.0432 6.02746 13.9608 6.02746 13.9608C6.02746 13.9608 6.06268 14.1101 6.34447 14.1667C6.33441 14.1718 6.32938 14.1718 6.31931 14.177L6.39982 14.1821C6.38976 14.2645 6.10797 14.3468 6.14823 14.3468C6.31428 14.3829 6.61619 14.3314 6.73193 14.3108L6.77722 14.3211C6.75206 14.4755 6.39982 14.4755 6.27906 14.4755C6.37466 14.5733 6.55078 14.599 6.62123 14.6042C6.61619 14.6042 6.61619 14.6042 6.61116 14.6042L6.64639 14.6145C6.59607 14.6968 6.39982 14.774 6.39982 14.774C6.65142 14.774 6.86276 14.8152 6.98856 14.8615C7.0741 14.9027 7.11435 15.0777 7.49175 15.1601C7.62258 15.1755 7.72825 15.1909 7.81379 15.2064C7.66786 15.7931 7.74837 16.1483 7.81379 16.4056C7.58735 16.4571 7.27537 16.5395 6.86276 16.663C5.60478 17.049 4.76445 17.8211 4.4726 17.9497C4.18075 18.0784 3.25488 18.1505 3.16934 18.9225C3.08379 19.4784 5.14185 21.4085 5.77083 22.1806C6.10797 22.5254 6.02243 22.7364 6.31428 22.8651C6.69167 22.8651 7.06907 22.8239 7.06907 22.8239C7.06907 22.8239 7.4062 22.9938 7.82385 23.1225C8.1157 23.21 8.4931 23.2511 8.99629 23.2511C9.12208 23.2511 7.9899 21.8357 7.9899 21.8357C7.9899 21.8357 7.82385 21.9644 7.52697 22.0519C7.31563 22.0931 7.02378 22.1394 6.73193 22.0107C6.69167 21.9695 7.02378 21.7122 7.10932 21.5835C7.10932 21.5423 6.48033 21.5835 6.48033 21.5835C6.48033 21.5835 6.89798 21.3262 6.81747 21.3673C6.44008 21.4085 5.01605 20.6828 4.51286 19.4372C4.38706 18.624 7.57226 18.6652 7.99494 18.4078C8.34717 18.3872 8.67928 18.2431 8.91074 18.1144C8.94094 18.1402 8.96106 18.1505 8.96106 18.1505C8.96106 18.1505 9.46425 20.5078 9.46425 20.8115C9.424 21.11 9.12712 21.5835 9.1724 21.9284C9.25795 22.2269 9.76114 23.3438 9.50954 24.1158C9.34349 25.2739 9.09189 25.7474 9.04661 25.8298C9.00635 25.9173 9.1724 26.0871 9.1724 26.3445C9.1724 26.5607 8.96106 26.6893 8.66921 27.1577C8.58367 27.1989 8.41762 27.6312 8.25156 27.9298C8.29182 28.0584 9.80139 27.9709 9.80139 27.9709L9.76114 27.4151C9.72088 27.0702 9.67559 26.6842 9.72088 26.643C9.84668 26.6018 10.1385 26.8592 10.1385 26.8592L9.92719 26.1746L10.3046 26.3908C10.3046 26.3908 9.96744 25.3202 10.1788 24.5019C10.219 22.4019 10.5964 22.2732 10.682 21.7585C10.3448 21.2026 10.4304 20.8578 10.4304 20.7291C10.4706 20.6004 10.682 18.8865 10.682 18.8865C10.682 18.8865 11.8142 19.36 12.9061 19.2725C14.0785 19.2725 16.0108 18.413 16.3429 18.3306C16.8159 18.1402 17.4046 18.0115 17.9732 17.9291C18.0889 18.3821 18.2802 19.0357 18.4814 19.4012C18.8588 20.0034 19.6539 21.1615 19.6539 21.7173C19.6539 22.2732 19.6136 22.7056 17.5153 25.4901C17.4298 25.7474 17.475 26.0048 17.304 26.2621C17.2184 26.432 17.0524 26.3033 16.5492 26.9055C16.3831 27.1217 16.212 27.379 15.9604 27.7187C16.046 27.8062 17.5958 27.8474 17.6361 27.7187C17.6763 27.6312 17.6763 27.4202 17.6763 27.1629C17.6763 26.9467 17.6763 26.6893 17.8021 26.5607C18.0135 26.2621 18.0537 26.7305 18.1393 26.9055C18.1393 27.0342 18.1795 26.046 18.1795 26.046C18.1795 26.0871 18.3053 26.5195 18.3456 26.6018C19.0601 24.1982 21.3647 21.7997 21.3647 21.7997C21.3647 21.7997 20.8615 21.1975 20.776 20.5129C20.7408 20.2196 20.8716 19.5556 21.0326 18.8916C21.2138 19.0718 21.3899 19.2313 21.5308 19.3137C21.9082 19.6122 24.1323 20.7703 24.3386 21.1563C25.0531 21.7122 23.0403 25.0577 23.0403 25.1864C23.0001 25.3151 23.0403 25.6599 23.0403 25.7886C23.0001 25.8761 22.6227 26.2621 22.2856 26.6018C22.2453 26.6893 21.7421 27.2452 21.6566 27.5026C21.6566 27.6312 23.3322 27.4614 23.4177 27.3739C23.3775 27.204 23.4177 27.0754 23.3775 26.9467C23.4177 26.1746 23.7146 25.8761 23.7146 25.8761L23.926 26.046V25.3614C23.926 25.3614 24.1776 25.9173 24.2178 25.8349C23.926 24.332 26.3161 20.8166 26.2708 20.3019C26.2708 20.2144 25.0531 19.7872 24.8871 19.5299C24.2983 18.799 24.6757 17.5997 24.8015 17.4711C25.5563 15.5873 25.1789 14.5579 25.1789 14.3417L26.4671 15.9784C26.3161 16.7453 26.5224 17.7336 26.6029 17.9034C26.6885 18.0321 27.4835 19.4887 29.8334 18.9328C28.2886 17.5071 29.0837 14.1615 29.0837 14.1615Z" fill="#606C7D"/>
</svg>
