<svg width="33" height="32" viewBox="0 0 33 32" fill="none" xmlns="http://www.w3.org/2000/svg">
<path d="M31.8196 15.4194C31.7949 15.3727 31.7394 15.3541 31.6901 15.3696C31.7147 15.3355 31.7178 15.2889 31.6962 15.2516C31.6685 15.205 31.6099 15.1832 31.5606 15.205C31.5359 15.2081 31.317 15.2329 30.5492 14.8384C30.244 14.683 29.9726 14.3972 29.6859 14.0958C29.5163 13.9187 29.3344 13.7261 29.1278 13.5428C29.2727 13.664 29.4084 13.7851 29.5379 13.9063C29.8586 14.1983 30.1607 14.4749 30.5122 14.624C31.4218 15.0092 31.6746 14.9471 31.7394 14.9005C31.7887 14.8663 31.8011 14.798 31.7702 14.7483C31.7394 14.7017 31.6808 14.6861 31.6315 14.711C31.6068 14.7172 31.391 14.7576 30.5955 14.422C30.4937 14.3785 30.3951 14.3226 30.2964 14.2574C30.3488 14.2822 30.4012 14.3071 30.4567 14.3288C31.3786 14.6768 31.6284 14.6053 31.6931 14.5587C31.7425 14.5246 31.7517 14.4562 31.7178 14.4065C31.687 14.363 31.6253 14.3475 31.5791 14.3754C31.5544 14.3816 31.3416 14.4314 30.5338 14.1269C30.2131 14.0057 29.9141 13.7541 29.5965 13.4838C28.9921 12.9742 28.2398 12.3373 26.9695 12.3187C26.9541 12.3187 26.9386 12.3187 26.9232 12.3187C26.137 12.3187 25.3939 12.6449 24.768 13.2601C24.5336 13.49 24.3579 13.723 24.2376 13.9001C24.1143 13.8597 24.0033 13.8224 23.8923 13.7851C22.8039 13.4185 22.3075 13.2507 19.3968 14.2915C18.3978 14.6582 17.7102 14.6209 17.1213 14.3661C17.1398 14.3692 17.1552 14.3723 17.1737 14.3785C17.2323 14.391 17.2909 14.3568 17.3032 14.2978C17.3155 14.2387 17.2816 14.1797 17.223 14.1673C17.2045 14.1642 17.1891 14.1611 17.1706 14.1548C17.2107 14.1486 17.2508 14.1331 17.2909 14.1051C17.3402 14.071 17.3525 14.0026 17.3217 13.9529C17.3155 13.9436 17.3063 13.9343 17.3001 13.928C17.3001 13.928 17.3032 13.928 17.3032 13.9249C17.3587 13.9001 17.3803 13.8348 17.3556 13.782C17.3371 13.7416 17.297 13.7199 17.2569 13.7199C17.3032 13.7168 17.3494 13.7074 17.3957 13.695C17.4543 13.6795 17.4882 13.6205 17.4728 13.5614C17.4574 13.5024 17.3988 13.4682 17.3402 13.4838C17.2415 13.5086 17.1583 13.5086 17.0658 13.4993C17.1583 13.49 17.2693 13.4713 17.408 13.434C17.4666 13.4185 17.5005 13.3595 17.4851 13.3004C17.4697 13.2414 17.4111 13.2072 17.3525 13.2228C16.9579 13.3284 16.8499 13.2787 16.7482 13.229C16.6989 13.2041 16.6403 13.1793 16.5632 13.17C16.4738 13.1606 16.335 13.1793 16.1963 13.2041C16.1901 13.1731 16.1839 13.1389 16.1778 13.1078C16.2795 13.0643 16.4029 13.0301 16.5324 13.0395C16.668 13.0488 16.7729 13.0892 16.8746 13.1327C17.0442 13.201 17.223 13.2725 17.4913 13.1668C17.5468 13.1451 17.5745 13.083 17.5529 13.027C17.5314 12.9711 17.4697 12.9432 17.4142 12.9649C17.223 13.0395 17.112 12.9929 16.9548 12.9307C16.8438 12.8841 16.7143 12.8344 16.5447 12.822C16.3936 12.8127 16.2549 12.8437 16.1346 12.8903C16.1284 12.8593 16.1223 12.8282 16.1161 12.794C16.2364 12.7661 16.3443 12.7505 16.4214 12.7536C16.5139 12.7567 16.5879 12.7847 16.6773 12.8158C16.8438 12.8748 17.0288 12.94 17.3649 12.8624C17.4234 12.8499 17.4604 12.7909 17.445 12.7319C17.4327 12.6729 17.3741 12.6356 17.3155 12.6511C17.0411 12.7132 16.8993 12.6635 16.7482 12.6107C16.6526 12.5765 16.557 12.5424 16.4306 12.5361C16.335 12.533 16.2086 12.5517 16.0791 12.5796C16.0729 12.5393 16.0637 12.4989 16.0575 12.4554C16.1685 12.4367 16.2764 12.4243 16.3597 12.4274C16.446 12.4305 16.5046 12.4585 16.5786 12.4927C16.6834 12.5424 16.8129 12.6014 17.038 12.6014C17.1028 12.6014 17.1768 12.5952 17.2569 12.5859C17.3155 12.5765 17.3587 12.5237 17.3494 12.4647C17.3402 12.4057 17.2878 12.3622 17.2292 12.3715C16.9209 12.415 16.7944 12.3559 16.6711 12.2969C16.5848 12.2565 16.4984 12.2161 16.3689 12.2099C16.2703 12.2068 16.1469 12.2192 16.0205 12.241C16.0174 12.2224 16.0144 12.2006 16.0113 12.182C16.1315 12.1509 16.2579 12.1291 16.3659 12.1416C16.5077 12.1571 16.5971 12.1944 16.6896 12.2348C16.8284 12.2938 16.9733 12.3591 17.2569 12.3187C17.3155 12.3093 17.3556 12.2565 17.3494 12.1944C17.3433 12.1478 17.3094 12.1136 17.2693 12.1043C17.297 12.1043 17.3248 12.1074 17.3556 12.1074C17.4142 12.1074 17.4635 12.0577 17.4635 11.9987C17.4635 11.9396 17.4142 11.8899 17.3556 11.8899C17.1644 11.8899 17.0442 11.8557 16.9085 11.8153C16.779 11.7781 16.631 11.7346 16.4029 11.7159C16.3689 11.7128 16.335 11.7128 16.3011 11.7128C16.4306 11.688 16.5539 11.6662 16.6495 11.6631C16.8068 11.6538 16.8592 11.6849 16.9209 11.7284C17.001 11.7812 17.1028 11.8464 17.3556 11.8247C17.4142 11.8185 17.4574 11.7656 17.4543 11.7066C17.4481 11.6476 17.3957 11.6041 17.3371 11.6072C17.1583 11.6227 17.1059 11.5885 17.0411 11.545C16.964 11.4953 16.8654 11.4301 16.6372 11.4456C16.4984 11.4549 16.3165 11.486 16.1346 11.5264C16.2949 11.4798 16.4645 11.4425 16.6094 11.4363C16.8191 11.4301 16.9486 11.4643 17.0627 11.4922C17.1706 11.5202 17.2724 11.5482 17.4049 11.5326C17.4635 11.5264 17.5067 11.4736 17.5005 11.4146C17.4944 11.3555 17.4419 11.312 17.3834 11.3182C17.2878 11.3276 17.2169 11.3089 17.1182 11.2841C16.9949 11.253 16.8438 11.2126 16.6033 11.2188C16.5478 11.2219 16.4861 11.2281 16.4244 11.2375C16.4954 11.2188 16.5694 11.2064 16.6372 11.2002C16.9054 11.1753 17.001 11.2002 17.0874 11.2219C17.1891 11.2468 17.2878 11.2716 17.5622 11.2219C17.6208 11.2126 17.6609 11.1536 17.6485 11.0945C17.6362 11.0355 17.5807 10.9951 17.5221 11.0076C17.2939 11.0479 17.223 11.0324 17.1367 11.0107C17.0411 10.9858 16.9209 10.9578 16.6156 10.9827C16.3535 11.0044 16.0729 11.107 15.8386 11.2157C15.8324 11.1846 15.8263 11.1505 15.8201 11.1194C16.0729 11.0138 16.3782 10.9019 16.5817 10.8895C16.7266 10.8833 16.8499 10.8895 16.9733 10.8988C17.2076 10.9143 17.4296 10.9268 17.7256 10.8242C17.7811 10.8056 17.8119 10.7435 17.7904 10.6844C17.7719 10.6285 17.7102 10.5974 17.6516 10.6192C17.3988 10.7093 17.2076 10.6969 16.9856 10.6844C16.8592 10.6751 16.7266 10.6689 16.5694 10.6751C16.3474 10.6875 16.0359 10.7963 15.7739 10.905C15.7615 10.8491 15.7492 10.7932 15.7368 10.7372C15.9434 10.6658 16.1839 10.6005 16.3597 10.6068C16.4553 10.6099 16.5539 10.6161 16.6619 10.6223C17.0257 10.644 17.4049 10.6658 17.6516 10.5602C17.7071 10.5384 17.7318 10.4732 17.7102 10.4172C17.6886 10.3613 17.6239 10.3365 17.5684 10.3582C17.3649 10.4452 16.9979 10.4235 16.6742 10.4048C16.5663 10.3986 16.4614 10.3924 16.3659 10.3893C16.1654 10.3831 15.9095 10.4483 15.6875 10.5229C15.6844 10.5104 15.6813 10.5011 15.6783 10.4887C15.78 10.4638 15.8941 10.4359 16.0144 10.4048C16.2333 10.3489 16.483 10.2836 16.5601 10.293C16.6187 10.2992 16.6865 10.3116 16.7544 10.3209C16.9794 10.3582 17.2138 10.3955 17.3772 10.3054C17.4296 10.2743 17.4481 10.2091 17.4173 10.1563C17.3864 10.1034 17.3217 10.0848 17.2693 10.1159C17.1737 10.1718 16.9702 10.1376 16.7883 10.1065C16.7174 10.0941 16.6464 10.0817 16.5786 10.0755C16.4707 10.0662 16.2734 10.1128 15.9589 10.1935C15.8694 10.2153 15.7492 10.2464 15.6259 10.2743C15.6228 10.2619 15.6197 10.2495 15.6166 10.237C15.9434 10.1532 16.3165 10.0568 16.4368 10.0258C16.5139 10.004 16.668 10.0227 16.8191 10.0382C17.0627 10.0662 17.3155 10.0941 17.4851 10.0071C17.5375 9.97917 17.5591 9.91392 17.5344 9.8611C17.5067 9.80829 17.4419 9.78654 17.3895 9.81139C17.2754 9.86732 17.0473 9.84246 16.8438 9.82071C16.6588 9.79897 16.4984 9.78343 16.3813 9.8145C16.2641 9.84557 15.891 9.94188 15.5642 10.0258C15.8694 9.91703 16.2271 9.79586 16.3689 9.76479C16.4923 9.73683 16.6434 9.75236 16.7914 9.76479C16.9609 9.78032 17.1398 9.79586 17.2909 9.75236C17.3494 9.73683 17.3803 9.67469 17.3649 9.61876C17.3494 9.55973 17.2878 9.52867 17.2323 9.5442C17.1182 9.57838 16.9671 9.56284 16.8099 9.55041C16.6464 9.53488 16.4799 9.52245 16.3258 9.55663C16.1747 9.5908 15.817 9.71197 15.5087 9.82071C15.4994 9.79275 15.4933 9.76168 15.484 9.73372C15.6567 9.70887 15.8664 9.67158 15.9527 9.64362C16.002 9.62809 16.0791 9.59391 16.1654 9.55973C16.3289 9.49138 16.6002 9.37643 16.6989 9.37643C16.7544 9.37643 16.8469 9.38885 16.9455 9.39818C17.1922 9.42924 17.3618 9.44478 17.4666 9.4075C17.5221 9.38575 17.5529 9.32361 17.5314 9.26768C17.5098 9.21176 17.4481 9.18069 17.3926 9.20244C17.3309 9.22419 17.112 9.19933 16.9702 9.18069C16.8654 9.16826 16.7667 9.15584 16.6989 9.15584C16.5663 9.15584 16.3504 9.24283 16.0822 9.35779C15.9989 9.39196 15.928 9.42303 15.8849 9.43546C15.817 9.45721 15.6413 9.48828 15.4748 9.51313C15.8078 9.32982 16.2703 9.08748 16.4491 9.08748C16.5909 9.08748 16.6896 9.10923 16.7975 9.13098C16.9455 9.16205 17.0997 9.19312 17.3525 9.16205C17.4111 9.15584 17.4543 9.09991 17.4481 9.04088C17.4419 8.98185 17.3864 8.93835 17.3279 8.94457C17.3001 8.94767 17.2724 8.95078 17.2446 8.95389C17.2569 8.95389 17.2662 8.95078 17.2785 8.95078C17.3371 8.94457 17.3803 8.88864 17.371 8.82961C17.3649 8.77058 17.3094 8.72708 17.2508 8.7364C17.1398 8.75194 17.0627 8.75505 17.0041 8.75815C17.0349 8.7364 17.0534 8.69601 17.0504 8.65252C17.0411 8.59349 16.9887 8.5531 16.927 8.55931C16.7821 8.58106 16.6649 8.55931 16.5385 8.53756C16.372 8.5096 16.2024 8.48164 15.9928 8.5531C15.9897 8.5531 15.9835 8.5562 15.9804 8.55931C15.7677 8.66184 15.4593 8.74883 15.2096 8.82029C15.1942 8.8234 15.1788 8.82961 15.1633 8.83272C15.1603 8.8265 15.1603 8.8234 15.1572 8.81718C15.4748 8.62766 15.854 8.4195 16.0174 8.376C16.1408 8.34183 16.1994 8.35426 16.2919 8.36979C16.4183 8.39154 16.5724 8.41639 16.9116 8.35426C16.9702 8.34183 17.0072 8.2859 16.9979 8.22687C16.9856 8.16784 16.9301 8.13056 16.8715 8.13988C16.5724 8.1958 16.4429 8.17405 16.3289 8.15541C16.2271 8.13677 16.1284 8.12124 15.9619 8.16784C15.7739 8.21755 15.3823 8.43503 15.0678 8.61834C15.0493 8.57795 15.0308 8.53756 15.0092 8.49717C15.225 8.34183 15.5241 8.16163 15.8232 8.1057C16.1038 8.05289 16.2734 8.06221 16.4121 8.07153C16.5601 8.08085 16.6865 8.09017 16.8623 8.00939C16.9178 7.98453 16.9394 7.91929 16.9147 7.86647C16.89 7.81055 16.8253 7.7888 16.7729 7.81365C16.6495 7.86958 16.5663 7.86647 16.4275 7.85715C16.2857 7.84783 16.0945 7.8354 15.7862 7.89443C15.4593 7.95657 15.1418 8.13988 14.9136 8.30454C14.9013 8.2828 14.892 8.26105 14.8797 8.24241C15.151 8.09638 15.4902 7.9255 15.6999 7.86958C15.891 7.81676 16.0174 7.82919 16.1408 7.83851C16.261 7.85094 16.3874 7.86026 16.5478 7.80433C16.6033 7.78569 16.6341 7.72355 16.6125 7.66452C16.594 7.6086 16.5324 7.57753 16.4738 7.59928C16.3751 7.63345 16.2949 7.63345 16.2055 7.62724C16.3227 7.61481 16.4399 7.59306 16.5539 7.54025C16.6094 7.51539 16.6341 7.45325 16.6094 7.39733C16.5909 7.35383 16.5447 7.32898 16.5015 7.33208C16.5324 7.30723 16.5478 7.26684 16.5385 7.22334C16.5262 7.16431 16.4676 7.12703 16.409 7.14256C16.2826 7.17363 16.1624 7.16431 16.0113 7.1581C15.8139 7.14567 15.5704 7.13324 15.2219 7.19849C14.9352 7.2513 14.6453 7.40976 14.4141 7.56821C14.3894 7.54025 14.3648 7.51228 14.3401 7.48743C14.5405 7.34762 14.7841 7.18917 14.9167 7.13946C15.0277 7.09907 15.2096 7.09285 15.3823 7.08664C15.595 7.07732 15.817 7.0711 15.9835 7.00275C16.039 6.981 16.0668 6.91887 16.0452 6.86294C16.0236 6.80702 15.9619 6.77906 15.9064 6.8008C15.7738 6.85362 15.5734 6.85983 15.3761 6.86916C15.1757 6.87537 14.9876 6.88469 14.8458 6.9344C14.6762 6.99654 14.3894 7.18606 14.1828 7.33208C14.1767 7.32587 14.1674 7.31966 14.1613 7.31344C14.3678 7.13014 14.6022 6.95304 14.781 6.89712C14.9753 6.83498 15.1541 6.81945 15.299 6.80702C15.4902 6.78838 15.6289 6.77595 15.6968 6.6641C15.7276 6.61128 15.7122 6.54604 15.6598 6.51497C15.6073 6.4839 15.5426 6.49943 15.5118 6.54914C15.4902 6.57089 15.3668 6.58021 15.2774 6.58953C15.1233 6.60507 14.9321 6.6206 14.7163 6.68896C14.4912 6.76041 14.2137 6.97479 13.9917 7.17363C13.9855 7.16742 13.9793 7.16431 13.9732 7.1581C14.1736 6.94683 14.4141 6.72313 14.5837 6.67031C14.7193 6.62992 14.8488 6.60818 14.9629 6.58643C15.1603 6.55225 15.3329 6.52429 15.4532 6.40933C15.4964 6.36894 15.4994 6.30059 15.4593 6.2571C15.4193 6.2136 15.3514 6.21049 15.3083 6.25088C15.2373 6.31613 15.114 6.34098 14.9568 6.36894C15.0215 6.3472 15.0863 6.31613 15.1572 6.27263C15.2065 6.23845 15.2219 6.17321 15.188 6.1235C15.1541 6.07379 15.0893 6.05825 15.04 6.09243C14.9753 6.13282 14.9167 6.15767 14.8519 6.17632C14.8797 6.14835 14.892 6.10796 14.8797 6.06757C14.8643 6.00854 14.8026 5.97747 14.7471 5.99301C14.5713 6.04272 14.4696 6.04583 14.3617 6.04893C14.189 6.05515 14.0256 6.05825 13.6402 6.24777C13.5754 6.27884 13.5138 6.31302 13.4521 6.3472C13.4552 6.34409 13.4583 6.34098 13.4644 6.33788C13.4798 6.32234 13.4983 6.30681 13.5168 6.28816C13.6433 6.16389 13.8375 5.97747 14.1736 5.96815C14.2322 5.96505 14.2815 5.91534 14.2784 5.85631C14.2753 5.79727 14.226 5.75067 14.1674 5.75067C14.0009 5.75688 13.8622 5.79727 13.745 5.8532C13.7913 5.80349 13.8313 5.7631 13.8653 5.75688C13.9238 5.74756 13.9639 5.69164 13.9547 5.63261C13.9454 5.57358 13.8899 5.53319 13.8313 5.54251C13.7203 5.56115 13.6402 5.64504 13.5662 5.72582C13.5014 5.79417 13.4367 5.86563 13.3442 5.91223C13.2393 5.96505 13.116 5.99612 12.9958 6.02718C12.9803 6.03029 12.968 6.0334 12.9526 6.03961C12.9896 6.01165 13.0266 5.98058 13.0636 5.94641C13.1808 5.84698 13.3041 5.74446 13.4367 5.70096C13.4922 5.68232 13.5261 5.62018 13.5076 5.56426C13.4891 5.50833 13.4274 5.47416 13.3719 5.4928C13.1962 5.54872 13.0543 5.66989 12.9248 5.77863C12.8416 5.85009 12.7614 5.91844 12.6967 5.9433C12.4932 6.02718 12.3698 6.09864 12.1263 6.28195C11.9844 6.38759 11.895 6.574 11.8395 6.73245C11.7963 6.73556 11.7532 6.74177 11.71 6.74799C11.7439 6.62371 11.7809 6.50254 11.8148 6.43419C11.8703 6.32855 12.0708 6.23224 12.228 6.15457C12.3298 6.10486 12.4253 6.05825 12.4932 6.00854L12.4963 6.00544C12.7429 5.81281 12.9156 5.66678 12.9156 5.51455C12.9156 5.45551 12.8663 5.4058 12.8077 5.4058C12.7491 5.4058 12.6998 5.45241 12.6998 5.51455C12.6874 5.5829 12.45 5.76931 12.3637 5.83766L12.3606 5.84077C12.3113 5.87805 12.2249 5.92155 12.1355 5.96505C11.9382 6.06136 11.7162 6.1701 11.6268 6.33788C11.5713 6.44662 11.5188 6.62992 11.4788 6.79148C11.4109 6.80391 11.3431 6.81945 11.2783 6.83187C11.3893 6.57089 11.5404 6.28816 11.7223 6.13282C11.9166 5.96505 12.0615 5.8998 12.1818 5.84388C12.3143 5.78174 12.4315 5.72892 12.524 5.57358C12.5548 5.52076 12.5394 5.45551 12.487 5.42445C12.4346 5.39338 12.3698 5.40891 12.339 5.46173C12.2804 5.56115 12.2126 5.59222 12.0923 5.64814C11.969 5.70407 11.7994 5.78174 11.5836 5.96815C11.3338 6.18253 11.1427 6.58332 11.0193 6.90022C10.97 6.91265 10.9238 6.92819 10.8744 6.94372C10.9916 6.63924 11.1488 6.28816 11.2938 6.14214C11.4048 6.03029 11.5281 5.95262 11.6329 5.88427C11.8087 5.77242 11.9752 5.66678 12.0029 5.45862C12.0122 5.39959 11.9721 5.34367 11.9135 5.33435C11.8549 5.32502 11.7994 5.36541 11.7902 5.42445C11.7748 5.52697 11.6823 5.59222 11.5158 5.69785C11.3986 5.77242 11.266 5.85631 11.1396 5.98679C10.9268 6.20117 10.7233 6.71692 10.6093 7.03382C10.5137 7.0711 10.4212 7.10839 10.3287 7.14878C10.4458 7.03071 10.5661 6.89401 10.6247 6.73556C10.6401 6.69517 10.6555 6.65478 10.6678 6.6175C10.785 6.29438 10.8498 6.11418 11.266 5.79727C11.3123 5.75999 11.3215 5.69164 11.2876 5.64504C11.2506 5.59843 11.1828 5.58911 11.1365 5.62329C10.6678 5.98058 10.5877 6.20428 10.4643 6.54293C10.452 6.58021 10.4366 6.6175 10.4212 6.65789C10.3718 6.79459 10.2485 6.91887 10.1283 7.04004C10.0265 7.14256 9.91242 7.25752 9.85692 7.3849C9.823 7.40354 9.79217 7.42218 9.76133 7.44083C9.77058 7.40044 9.78292 7.35383 9.80142 7.30412C9.85075 7.23577 9.94017 7.15188 10.0265 7.068C10.1159 6.981 10.2023 6.90022 10.2608 6.82255C10.3071 6.76041 10.3503 6.65167 10.4058 6.50875C10.4983 6.27263 10.6247 5.94951 10.7788 5.85009C10.8282 5.81902 10.8436 5.75067 10.8128 5.70096C10.7819 5.65125 10.7141 5.63571 10.6648 5.66678C10.4551 5.80038 10.3163 6.14835 10.2084 6.42798C10.1653 6.53672 10.119 6.65167 10.0913 6.68896C10.045 6.75109 9.96175 6.82877 9.88158 6.90644C9.77983 7.00275 9.67808 7.10217 9.61642 7.19227C9.61025 7.20159 9.60717 7.20781 9.60408 7.21713C9.55475 7.36626 9.53008 7.49054 9.52391 7.59306C9.49 7.61792 9.453 7.63967 9.42216 7.66452C9.40675 7.67695 9.38825 7.68938 9.37283 7.70181C9.44375 7.3849 9.69042 6.95926 9.84767 6.78527C9.99567 6.62371 10.0974 6.40623 10.1776 6.22913C10.2177 6.13903 10.2732 6.01786 10.3009 5.99612C10.3503 5.96194 10.3626 5.89359 10.3287 5.84388C10.2948 5.79417 10.2269 5.78174 10.1776 5.81592C10.1036 5.86563 10.0512 5.98058 9.98025 6.13593C9.90625 6.29749 9.81375 6.49633 9.68733 6.63303C9.6565 6.66721 9.62258 6.7076 9.58867 6.7542C9.65033 6.62992 9.6935 6.48701 9.70275 6.29127C9.70583 6.23224 9.65958 6.17942 9.601 6.17942C9.54241 6.17632 9.49 6.22292 9.49 6.28195C9.47766 6.58021 9.37283 6.72002 9.231 6.91265C9.19091 6.96547 9.15083 7.02139 9.10766 7.08664C8.87641 7.43772 8.787 7.75462 8.84558 8.02803C8.84866 8.04356 8.85175 8.0591 8.85791 8.07463C8.83941 8.09328 8.81783 8.11192 8.79625 8.13056C8.75 7.92861 8.72225 7.6552 8.79316 7.3849C8.87025 7.09596 9.00283 6.96547 9.12925 6.83809C9.23716 6.72934 9.34816 6.6206 9.40058 6.43108C9.416 6.37205 9.38208 6.31302 9.3235 6.29749C9.26491 6.28195 9.20633 6.31613 9.19091 6.37516C9.157 6.50565 9.07683 6.58643 8.97816 6.68274C8.8425 6.81634 8.676 6.981 8.5835 7.32898C8.48483 7.70802 8.54958 8.07774 8.61741 8.31076C8.491 8.44436 8.34608 8.61834 8.18266 8.84204C8.16416 8.86689 8.15799 8.89796 8.16416 8.92593C8.17033 8.95389 8.18574 8.98185 8.21349 8.99738C8.30291 9.05642 8.44783 9.02535 8.75308 8.94146C8.53725 9.12166 8.343 9.36711 8.31525 9.40439C8.2875 9.43856 8.28441 9.48828 8.30908 9.52556C8.32758 9.55973 8.36458 9.57837 8.40158 9.57837C8.40775 9.57837 8.41083 9.57837 8.417 9.57837C8.55266 9.55973 8.69758 9.54109 8.82708 9.53177V9.53488C9.16625 10.4266 9.32658 11.4581 9.44375 12.213C9.55475 12.9338 9.61025 13.2538 9.73667 13.3595C9.75517 13.375 9.77367 13.3905 9.79525 13.403C9.79833 13.4061 9.80142 13.4123 9.8045 13.4154C9.83842 13.462 9.88775 13.49 9.94325 13.4993C9.9525 13.4993 9.96175 13.5024 9.971 13.5024C10.156 13.5863 10.3626 13.6267 10.489 13.6111C10.5538 13.6018 10.6031 13.577 10.6308 13.5366C10.6463 13.5148 10.6555 13.49 10.6617 13.4558C10.6894 13.5086 10.7295 13.5521 10.7788 13.5739C10.8652 13.6111 10.9638 13.5863 11.0656 13.5024C11.4294 13.2103 11.3523 12.5703 11.2691 11.8961C11.2506 11.7439 11.2321 11.5885 11.2167 11.4363C11.4973 11.3493 11.7501 11.0852 11.9012 10.7124C11.9166 10.672 11.932 10.6285 11.9474 10.585C12.1448 11.4705 11.5836 13.2166 11.2907 13.9591C11.1766 14.0399 10.7511 14.3661 10.3595 14.9005C10.0265 15.3572 9.81375 15.845 9.72742 16.3483C8.87333 15.9786 7.88358 15.7425 7.40566 15.6275C7.28849 15.5996 7.19599 15.5778 7.15283 15.5654C7.05107 15.5343 6.98941 15.497 6.92157 15.4504C6.80132 15.3727 6.66874 15.2858 6.33574 15.2298C5.92257 15.1615 5.05615 15.8605 4.20207 16.5844C4.05098 16.7118 3.93073 16.8144 3.87215 16.8547C3.72106 16.9635 3.48056 17.0815 3.2709 17.1872C3.1044 17.2711 2.96256 17.3425 2.88548 17.3985C2.71898 17.5165 2.46306 17.9608 2.38906 18.0944C2.29964 18.1596 1.92656 18.4424 1.69531 18.6661C1.63056 18.7282 1.57197 18.7903 1.53189 18.8494C1.18039 19.3775 1.13722 19.5329 1.18039 19.6323C1.20197 19.6789 1.24206 19.71 1.29139 19.7162L1.30372 19.7193H1.31606C2.64498 19.5826 3.01806 19.101 3.03348 19.0824L3.06431 19.042L3.05198 18.9923C3.05198 18.9923 3.02423 18.8804 3.03348 18.7375V18.7344C3.03656 18.663 3.0489 18.5915 3.07048 18.5231C3.09515 18.4455 3.1414 18.3958 3.18456 18.3678L3.16915 18.4952C3.16606 18.5325 3.18148 18.5698 3.20923 18.5915C3.23698 18.6164 3.27706 18.6226 3.31098 18.6101C3.35106 18.5946 3.72106 18.4641 3.85673 18.2746C4.46415 17.4264 5.44157 16.4508 6.22166 16.4508C6.23091 16.4508 6.23707 16.4508 6.24632 16.4508C6.73657 16.5938 7.38408 17.0909 7.95141 17.532C8.00383 17.5724 8.05624 17.6128 8.10866 17.6532C8.02233 17.6532 7.95449 17.6532 7.92058 17.647C7.85274 17.6377 7.74791 17.6128 7.62766 17.5849C7.26074 17.501 6.80441 17.3953 6.55157 17.4637C6.24324 17.5445 6.04282 17.9515 5.94724 18.1472C5.93182 18.1783 5.91641 18.2062 5.91024 18.2187C5.90716 18.2218 5.90407 18.2311 5.8979 18.2404C5.71907 18.5604 5.43232 18.9581 5.0839 19.3558C4.23598 20.3283 3.81048 20.9652 3.60698 21.2697C3.58848 21.2976 3.57306 21.3194 3.56073 21.3411C3.54531 21.3629 3.53298 21.3846 3.51756 21.4064C3.51448 21.4126 3.50831 21.4188 3.50523 21.425L3.47748 21.4685C3.26781 21.7947 3.13523 22.065 3.06123 22.2359C2.91015 22.5714 2.93173 22.6243 2.94406 22.6553C2.96256 22.7019 3.00573 22.7299 3.05815 22.733C3.06123 22.733 3.06431 22.733 3.0674 22.733C3.1784 22.733 3.46823 22.6212 3.9369 22.4006C4.64915 22.065 4.68307 21.9998 4.6954 21.978V21.9749C4.71698 21.9314 4.7139 21.8817 4.70465 21.7823C4.69848 21.7046 4.69232 21.6114 4.69848 21.5151C4.71082 21.338 4.76015 21.2324 4.85265 21.1889C4.91432 21.1578 4.94207 21.1733 4.95132 21.1764C5.02532 21.2168 5.07774 21.3908 5.09007 21.4996C5.09315 21.5431 5.12399 21.5772 5.16407 21.5897C5.17949 21.5959 5.3059 21.6332 5.43849 21.5524C5.56182 21.4778 5.64199 21.3287 5.67899 21.1081C5.69132 21.0304 5.70365 20.9527 5.71599 20.872C5.84549 20.0486 5.9904 19.1135 6.89999 18.9364C7.40258 18.8401 8.33683 19.0451 9.24025 19.2471C10.267 19.4739 11.1581 19.6727 11.5373 19.4801C11.6021 19.4583 11.6607 19.4366 11.7131 19.4117C12.7121 19.9554 14.3154 20.4587 16.6341 20.1636C16.6372 20.1636 16.6372 20.1636 16.6403 20.1636C17.6115 19.9834 18.3238 19.6913 18.9497 19.4273C19.2056 19.7504 19.6126 20.1636 20.1306 20.3593C20.5037 20.5022 20.8768 20.5892 21.2715 20.6793C21.8049 20.8036 22.4061 20.9434 23.1122 21.251C24.0341 21.6518 25.0701 23.6123 25.5141 24.4511C25.6899 24.7805 25.7515 24.8985 25.7947 24.942C25.881 25.0321 26.0075 25.0942 26.1246 25.1533C26.2387 25.2123 26.359 25.2713 26.4422 25.3521C26.581 25.5665 26.7259 25.7591 26.8677 25.9269L26.8924 25.9549C27.3426 26.4675 27.7434 26.657 27.95 26.6663C27.9531 26.6663 27.9561 26.6663 27.9592 26.6663C28.0086 26.6663 28.0456 26.6539 28.0733 26.626C28.1165 26.5825 28.1165 26.5265 28.0918 26.3805C28.0363 26.0605 27.7156 24.7245 27.2562 24.507C27.247 24.5008 27.2346 24.4977 27.2254 24.4915C27.2131 24.4635 27.1884 24.4387 27.1576 24.4294C27.0866 24.4076 27.025 24.4014 26.9726 24.3983L26.8955 24.3734V24.3983C26.8523 24.4014 26.8184 24.4076 26.7875 24.4138C26.7598 24.4169 26.7259 24.4232 26.7136 24.42C26.6704 24.3828 26.5841 24.2771 26.4916 24.156C26.5717 24.1839 26.6488 24.2088 26.7105 24.2212C26.7567 24.2305 26.803 24.2088 26.8246 24.1653C26.8369 24.1404 26.84 24.1125 26.8338 24.0876C26.8523 24.0565 26.8585 24.0193 26.8431 23.9851C26.8307 23.9571 26.8153 23.8981 26.7999 23.8391C26.7536 23.6713 26.7136 23.5346 26.6611 23.46C26.584 23.3544 26.4175 23.2519 26.2418 23.1431C26.1246 23.0717 26.0044 22.9971 25.952 22.9443C25.9458 22.9381 25.9427 22.935 25.9365 22.9318C25.844 22.8604 25.582 22.2173 25.3908 21.7481C24.9838 20.7508 24.7834 20.3003 24.6107 20.2195C24.4905 20.1512 24.4504 20.1481 24.3209 20.1605C24.2685 20.1667 24.2006 20.1729 24.0896 20.176C23.7905 20.176 23.5716 20.0114 23.4082 19.797C23.806 19.8436 24.1821 19.8715 24.5213 19.8964C25.2952 19.9523 25.9643 20.002 26.473 20.2475C27.2901 20.639 28.4649 22.733 28.6036 23.0561C28.6684 23.2053 28.6931 23.342 28.7177 23.4724C28.7424 23.6029 28.7671 23.7365 28.8287 23.8763C28.9274 24.0845 29.1155 24.1932 29.2296 24.2585C29.2481 24.2709 29.2727 24.2833 29.2851 24.2927C29.3467 24.4201 29.5626 24.6717 29.8031 24.9047L29.8524 24.9513C30.1237 25.2061 30.4721 25.4702 30.7342 25.4702C30.8051 25.4702 30.8699 25.4515 30.9254 25.4049C31.1135 25.2496 31.0672 24.9109 30.7836 24.3331C30.6016 23.9633 30.3889 23.634 30.3611 23.5905C30.3365 23.547 30.2286 23.3886 29.9202 23.3792H29.9048L29.8894 23.3823C29.8709 23.3886 29.8493 23.3886 29.8277 23.3917H29.8246C29.6211 23.401 29.4762 23.1555 29.4022 22.9971C29.4485 22.994 29.504 22.9909 29.5564 22.9847C29.8555 22.9598 29.9418 22.9412 29.9634 22.848C29.9726 22.8107 29.9634 22.7548 29.9079 22.7206C28.6191 21.804 27.765 18.7593 27.7557 18.7282C27.7465 18.6909 27.7187 18.6599 27.6817 18.6505C27.6447 18.6412 27.6077 18.6505 27.58 18.6754C27.5615 18.6878 27.3364 18.8338 26.6858 18.7313C25.9859 18.6164 25.952 17.5383 25.9581 17.212C25.9643 16.9448 25.918 16.3204 25.7176 15.6865C25.5419 15.1273 25.289 14.6861 24.9653 14.363C25.5665 14.1145 26.2572 13.8752 26.4792 13.9187C26.5871 13.9405 26.6981 13.9871 26.8091 14.0523C26.988 14.248 27.1761 14.5215 27.3641 14.7918C27.7341 15.3261 28.1134 15.8761 28.5173 15.991C28.5851 16.0097 28.6622 16.0252 28.7455 16.0407C29.3837 16.5565 30.2748 16.5907 30.3149 16.5907H30.318C30.3735 16.5907 30.4166 16.5503 30.4259 16.4974C30.466 16.4912 30.503 16.4633 30.5153 16.4198C30.5215 16.4011 30.5215 16.3825 30.5184 16.367C30.8791 16.4291 31.1351 16.426 31.1566 16.4229C31.2152 16.4198 31.2646 16.3701 31.2615 16.311C31.2615 16.2924 31.2553 16.2738 31.2461 16.2582C31.3416 16.2613 31.4002 16.2613 31.4126 16.2613C31.4711 16.2613 31.5205 16.2116 31.5174 16.1495C31.5174 16.1339 31.5143 16.1184 31.5081 16.106C31.5667 16.1091 31.6006 16.0998 31.6191 16.0904C31.6592 16.0718 31.6808 16.0314 31.6808 15.991C31.6808 15.9755 31.6777 15.96 31.6716 15.9444C31.6469 15.8947 31.5914 15.8699 31.5421 15.8854C31.5359 15.8854 31.5081 15.8885 31.4526 15.8761C31.5636 15.873 31.6346 15.8699 31.6469 15.8667C31.7055 15.8605 31.7517 15.8077 31.7456 15.7487C31.7394 15.6897 31.6901 15.643 31.6284 15.6493C31.6222 15.6493 31.2923 15.6741 30.8699 15.6244C30.8545 15.6151 30.836 15.6058 30.8206 15.5964C30.9223 15.6058 31.0117 15.6058 31.0826 15.5871C31.1351 15.5747 31.1721 15.525 31.1659 15.4691C31.5976 15.6368 31.7486 15.6058 31.8011 15.5747C31.8288 15.5374 31.8473 15.4722 31.8196 15.4194ZM16.8469 12.0204C16.964 12.0546 17.0781 12.0888 17.2323 12.0981H17.2292C17.0041 12.1291 16.9054 12.0856 16.7759 12.0297C16.7019 11.9987 16.6218 11.9614 16.5108 11.9396C16.6495 11.9614 16.7513 11.9924 16.8469 12.0204ZM16.4368 13.9436C16.4337 13.9405 16.4337 13.9405 16.4306 13.9374C16.4491 13.9343 16.4676 13.9311 16.4861 13.928C16.4676 13.9311 16.4522 13.9374 16.4368 13.9436ZM12.7707 6.7076C12.7892 6.67653 12.8108 6.64857 12.8323 6.62992C12.8848 6.58021 13.0112 6.53361 13.1253 6.49011C13.1962 6.46215 13.264 6.4373 13.3257 6.40933C13.1561 6.51808 13.0204 6.62992 12.9125 6.72624C12.8663 6.71692 12.82 6.7107 12.7707 6.7076ZM16.6495 14.1051C16.6742 14.0989 16.6989 14.0958 16.7204 14.0958C16.7698 14.0927 16.8284 14.1082 16.8931 14.1238C16.8962 14.1238 16.8993 14.1238 16.9024 14.1269C16.8345 14.13 16.7729 14.1393 16.7235 14.1517C16.6989 14.1362 16.6742 14.1207 16.6495 14.1051ZM16.8068 13.6671C16.9517 13.7012 17.0935 13.7323 17.2477 13.7199C17.2354 13.7199 17.2261 13.723 17.2138 13.7292C17.0966 13.7851 17.0041 13.7603 16.89 13.7292C16.8407 13.7168 16.7883 13.7012 16.7297 13.695C16.6341 13.6826 16.4799 13.7074 16.3381 13.7385C16.3319 13.7199 16.3258 13.6981 16.3165 13.6764C16.4337 13.6422 16.557 13.6173 16.6464 13.636C16.7019 13.6422 16.7544 13.6546 16.8068 13.6671ZM16.5385 13.3843C16.5724 13.3874 16.5971 13.3968 16.6279 13.4123C16.5108 13.403 16.3782 13.4278 16.2579 13.4651C16.2549 13.4496 16.2518 13.434 16.2456 13.4185C16.3659 13.3905 16.4769 13.3781 16.5385 13.3843ZM16.1562 11.9303C16.0976 11.9396 16.0359 11.952 15.9774 11.9645C15.9774 11.9614 15.9774 11.9583 15.9774 11.9552C16.0329 11.9458 16.0945 11.9365 16.1562 11.9303ZM16.0729 8.74573C16.1624 8.71776 16.2425 8.71155 16.3227 8.71776C16.3011 8.72087 16.2795 8.72087 16.2579 8.72398C16.1901 8.73019 16.1223 8.74262 16.0575 8.75505C16.0606 8.75194 16.0668 8.74883 16.0729 8.74573ZM16.0205 8.98185C15.8232 9.06884 15.595 9.19001 15.3576 9.3174C15.3483 9.28633 15.336 9.25526 15.3237 9.22419C15.5241 9.13719 15.7677 9.04088 16.0205 8.98185ZM15.6474 7.63967C15.4162 7.70491 15.0585 7.88511 14.7748 8.03424C14.7656 8.01871 14.7563 8.00318 14.7471 7.98764C15.0153 7.8323 15.3299 7.66142 15.4686 7.62413C15.558 7.59928 15.6721 7.60238 15.7924 7.60549C15.7461 7.61792 15.6999 7.62724 15.6474 7.63967ZM15.2651 7.39422C15.5919 7.33208 15.8109 7.34451 16.0051 7.35694C16.15 7.36626 16.2764 7.37247 16.4121 7.34762C16.2333 7.40665 16.039 7.40044 15.854 7.39422C15.6968 7.38801 15.5488 7.3849 15.4162 7.41908C15.2435 7.46568 14.8951 7.6552 14.6268 7.81365C14.6053 7.78258 14.5806 7.75152 14.559 7.72355C14.7656 7.57753 15.0184 7.44083 15.2651 7.39422ZM14.6145 6.41865C14.5837 6.42798 14.5528 6.43419 14.5189 6.44351C14.2877 6.51497 14.0009 6.78838 13.7882 7.01829C13.7419 6.99032 13.6957 6.96547 13.6494 6.94061C13.8067 6.76041 14.0133 6.56468 14.2229 6.50254C14.3802 6.45904 14.5035 6.4373 14.6145 6.41865ZM13.7327 6.42487C14.0626 6.26331 14.1983 6.25399 14.3463 6.24777C14.2877 6.2602 14.226 6.27574 14.1582 6.29749C13.8807 6.38137 13.6186 6.63924 13.4398 6.85362C13.3565 6.82255 13.2733 6.79459 13.1869 6.77284C13.3288 6.65789 13.5138 6.53361 13.7327 6.42487ZM12.7799 6.30681C12.8416 6.27263 12.9403 6.24777 13.0482 6.21981C13.1438 6.19496 13.2517 6.167 13.3534 6.12661C13.3411 6.13903 13.3288 6.14835 13.3195 6.16078C13.2733 6.20117 13.1561 6.24777 13.0513 6.28816C12.9156 6.34098 12.7738 6.3938 12.6905 6.47147C12.6288 6.5305 12.5733 6.61439 12.5333 6.69517C12.4993 6.69517 12.4654 6.69206 12.4346 6.69206C12.4808 6.58643 12.5795 6.45283 12.7799 6.30681ZM12.2527 6.4404C12.3359 6.37516 12.4038 6.32855 12.4654 6.28816C12.3113 6.4373 12.2373 6.574 12.2003 6.69206C12.1571 6.69206 12.117 6.69517 12.0738 6.69828C12.1201 6.59264 12.1787 6.49633 12.2527 6.4404ZM9.28341 7.19538C9.3235 7.13635 9.3605 7.08353 9.40058 7.03071C9.40675 7.0245 9.40983 7.01518 9.416 7.00897C9.26183 7.27927 9.12925 7.61171 9.13541 7.86026C9.11383 7.86958 9.08608 7.88822 9.046 7.91307C9.0275 7.74841 9.07375 7.51228 9.28341 7.19538ZM31.206 16.0221C31.132 16.019 31.0364 16.0097 30.9285 15.9972C30.9346 15.9817 30.9377 15.9662 30.9346 15.9506C30.9346 15.9289 30.9254 15.9071 30.9131 15.8916C31.0271 15.9506 31.1258 15.9941 31.206 16.0221ZM26.9325 13.869C26.8739 13.8069 26.8184 13.7541 26.7598 13.7074C27.0805 13.8814 27.4597 14.2729 27.8606 14.683C27.9099 14.7358 27.9623 14.7855 28.0116 14.8384C28.024 14.857 28.0363 14.8756 28.0486 14.8943C28.1165 14.9968 28.1843 15.0962 28.2491 15.1894C28.2398 15.177 28.2306 15.1646 28.2182 15.1522C27.8421 14.6954 27.395 14.1517 26.9325 13.869ZM27.5861 14.742C27.7496 14.9222 27.9068 15.1149 28.0517 15.2889C28.1627 15.4256 28.2737 15.5561 28.3755 15.6741C28.1196 15.5001 27.8513 15.1242 27.5861 14.742ZM28.1781 14.6986C27.9592 14.3754 27.728 14.0337 27.4721 13.7727C27.8606 14.0368 28.0949 14.4251 28.3107 14.7793C28.3385 14.8259 28.3662 14.8725 28.3971 14.9191C28.3231 14.8446 28.2521 14.7731 28.1781 14.6986ZM28.6314 14.885C28.7085 14.9906 28.7825 15.0931 28.8626 15.1894C28.7825 15.1087 28.7085 15.003 28.6314 14.885ZM29.2203 16.0811C29.2419 16.0811 29.2635 16.0842 29.2851 16.0842C29.4361 16.1526 29.5903 16.2116 29.7321 16.2675C29.5718 16.224 29.393 16.165 29.2203 16.0811ZM29.3683 15.7176C29.393 15.7269 29.4176 15.7331 29.4423 15.7425C29.5194 15.7922 29.5965 15.8357 29.6766 15.8761C29.5718 15.8295 29.4701 15.7766 29.3683 15.7176ZM29.5348 15.5436C29.4947 15.5157 29.4546 15.4877 29.4176 15.4566C29.1617 15.2547 28.949 14.9564 28.7208 14.6395C28.6622 14.5587 28.6067 14.478 28.5451 14.3972C28.5944 14.4562 28.6406 14.5121 28.69 14.5712C28.9459 14.8819 29.1895 15.177 29.4824 15.379C29.6581 15.5001 29.8493 15.5902 30.0436 15.6586C29.8863 15.6306 29.7075 15.5933 29.5348 15.5436ZM29.6057 15.2019C29.3375 15.0155 29.1062 14.7358 28.8596 14.4345C28.727 14.276 28.5913 14.1082 28.4433 13.9498C28.6561 14.1362 28.8256 14.3319 28.9829 14.5121C29.1186 14.6675 29.2481 14.8166 29.3837 14.9347C29.6057 15.1273 29.874 15.2858 30.133 15.4007C30.17 15.4349 30.207 15.466 30.244 15.497C30.0189 15.4287 29.7969 15.3355 29.6057 15.2019ZM28.468 13.6888C28.9336 13.9995 29.2604 14.4003 29.5626 14.77C29.5903 14.8042 29.6181 14.8384 29.6458 14.8725C29.6026 14.8415 29.5595 14.8073 29.5194 14.77C29.393 14.6613 29.2696 14.5184 29.1371 14.3661C28.9521 14.1517 28.7424 13.9125 28.468 13.6888ZM30.8298 15.8512C30.8267 15.8512 30.8236 15.8512 30.8206 15.8512C30.8175 15.8512 30.7589 15.8543 30.6602 15.8605C30.6602 15.8574 30.6633 15.8512 30.6633 15.8481C30.6633 15.8357 30.6633 15.8233 30.6602 15.8139C30.7034 15.8201 30.7466 15.8264 30.7866 15.8326C30.8021 15.8388 30.8144 15.845 30.8298 15.8512ZM30.2501 15.2143C30.0713 15.0496 29.9048 14.8446 29.7321 14.6333C29.319 14.13 28.8256 13.5241 27.9716 13.1855C28.7393 13.4527 29.2203 13.9591 29.652 14.4158C29.9511 14.7327 30.2347 15.0279 30.5739 15.2019C30.7096 15.2733 30.8329 15.3293 30.9408 15.379C30.7805 15.3852 30.5246 15.3293 30.2501 15.2143Z" fill="#606C7D"/>
</svg>
