<svg width="33" height="32" viewBox="0 0 33 32" fill="none" xmlns="http://www.w3.org/2000/svg">
<path d="M28.8222 14.9102C28.8147 14.8913 28.811 14.8723 28.8035 14.8534C28.9825 14.7095 29.031 14.5542 28.8184 14.4823C28.6319 14.452 28.5387 14.3573 28.755 14.2627C29.2511 13.8462 29.1914 13.2365 28.8669 13.0131C29.3257 12.8048 29.2996 12.0286 28.5685 11.7408C28.3522 11.6764 28.4119 11.5817 28.5984 11.4871C28.7699 11.3659 28.7065 11.2447 28.5238 11.1614C29.2996 10.9872 29.3481 10.3208 29.1877 9.91185C29.0758 9.51425 28.6095 8.9614 27.8151 9.38929C27.968 9.16209 27.9792 8.96519 27.7293 8.99927C27.5428 9.02956 27.4197 8.96898 27.5726 8.80994C28.05 7.96931 27.2705 7.18926 26.6886 7.81784C26.8415 7.35966 26.4909 7.0643 26.0955 7.13625C26.4611 6.73865 26.0508 6.00784 25.2712 6.09493C25.0213 6.1593 25.0548 6.03055 25.1481 5.8753C25.2563 5.68597 25.1444 5.61024 24.9429 5.62917C25.5248 5.10662 25.2525 4.50833 24.9317 4.23569V4.2054C24.6483 3.91762 23.947 3.65634 23.4733 4.45532C23.5069 4.15996 23.4323 3.96306 23.2197 4.11074C23.063 4.23569 22.9399 4.26977 23.0033 4.01607C23.0033 3.05805 21.9701 2.76648 21.7463 3.57304C21.6158 2.91038 20.7056 3.05427 20.6087 3.89111C20.6087 4.11074 20.5154 4.05015 20.3923 3.9214C20.0902 3.67149 20.0566 4.30385 20.2655 4.80369C20.258 4.87942 20.2282 4.90971 20.1909 4.89835C20.2058 4.72417 20.1648 4.56513 20.0827 4.44396C20.1461 4.32657 20.1238 4.23569 19.9596 4.23569C19.7731 4.23569 19.6799 4.2054 19.8365 4.04636C20.3103 3.37234 19.7694 2.66046 19.2248 3.00883C19.5419 2.2818 18.5833 1.80468 17.9715 2.50142C17.8484 2.72104 17.785 2.62638 17.7552 2.40675C17.688 2.15684 17.5015 2.25908 17.3374 2.50899C17.5277 1.59263 16.8451 1.30485 16.4198 1.33514C16.0133 1.30863 15.4015 1.56612 15.4873 2.37646C15.3493 2.22878 15.215 2.20228 15.174 2.40675C15.1442 2.59609 15.0509 2.72104 14.9241 2.50142C14.3049 1.7706 13.3277 2.26665 13.7007 3.00883C13.1374 2.55443 12.5332 3.30797 13.0293 3.98199C13.1859 4.14103 13.0927 4.20161 12.9062 4.17132C12.8875 4.17132 12.8689 4.17511 12.8539 4.1789C12.8465 3.94791 12.7607 3.81159 12.5928 3.9517C12.4698 4.11074 12.3765 4.14103 12.3765 3.9214C12.3056 3.08835 11.3918 2.92174 11.2463 3.58061C11.0188 2.80056 9.98929 3.09971 10.0154 4.04636C10.0452 4.30007 9.92215 4.26599 9.76549 4.14103C9.55288 3.98956 9.47828 4.19404 9.51931 4.49318C9.04932 3.68285 8.37046 3.94791 8.05714 4.26599C7.73636 4.53862 7.46034 5.13691 8.0646 5.65947C7.86318 5.64432 7.74755 5.71627 7.8408 5.9056C7.96389 6.06463 7.96389 6.21989 7.74755 6.12522C7.03511 6.04949 6.63973 6.61748 6.81877 7.03022C6.47188 7.01129 6.17721 7.28393 6.29284 7.6891C5.72215 7.08702 4.94257 7.87086 5.41629 8.68119C5.57295 8.90082 5.4797 8.9349 5.25962 8.90082C4.99852 8.86674 5.02836 9.06743 5.19994 9.3022C4.41291 8.85538 3.9392 9.41201 3.79746 9.81339C3.66318 10.2223 3.7154 10.885 4.48378 11.063C4.29728 11.1463 4.23014 11.2712 4.42037 11.3924C4.57703 11.4871 4.67028 11.5817 4.42037 11.6461C3.7154 11.9301 3.6781 12.6912 4.12197 12.9109C3.82357 13.1532 3.78627 13.7212 4.26371 14.1074C4.48005 14.2324 4.3868 14.3271 4.2003 14.3611C3.99142 14.4179 4.03245 14.5542 4.19657 14.6906C4.18538 14.7095 4.17419 14.7322 4.16673 14.7549C3.34985 14.6868 3.11859 15.3419 3.17454 15.7811C3.17454 16.1863 3.45057 16.7808 4.2376 16.6596C4.09586 16.8035 4.07721 16.9398 4.29355 16.9815C4.50989 17.0118 4.60314 17.0761 4.3868 17.2352C3.71913 17.8903 4.23387 18.8445 4.94257 18.4355C4.51735 19.03 5.29692 19.617 5.93849 19.0641C6.09515 18.9051 6.12499 18.9997 6.12499 19.1891C6.14737 19.4844 6.43085 19.314 6.65465 18.9997C6.68449 19.2421 7.03138 19.0414 7.28129 18.7006C7.21415 19.1777 7.35963 19.6662 7.58343 19.4087C7.67668 19.2497 7.76993 19.1891 7.79977 19.4087C7.94524 19.9464 8.40403 20.1319 8.70243 19.9918C9.15376 20.2153 9.72073 19.8442 9.29178 18.8407C9.19852 18.6514 9.32162 18.6211 9.41487 18.6817C9.91096 19.0906 9.78787 18.019 9.29178 17.6706C9.10527 17.576 9.07543 17.3866 9.29178 17.3866C9.75803 17.6706 9.54169 17.1329 9.19852 16.5347C9.15003 16.4627 9.12392 16.3226 9.09781 16.1749C11.3433 16.1181 12.8017 16.7429 13.7678 17.86C14.4504 18.871 13.9543 25.1492 13.0218 27.5462C12.8651 28.4928 11.8394 29.5644 11.0001 30.3218C11.9625 30.2574 13.2083 29.7538 13.7976 29.0267C13.8275 29.6894 13.641 30.1627 13.3612 30.6663C14.5735 30.1627 15.7223 29.3713 16.4683 28.4587C17.2442 29.3751 18.3632 30.1627 19.5754 30.6663C19.2957 30.1627 19.139 29.6894 19.1726 29.0267C19.7619 29.7841 21.0078 30.2574 21.9701 30.3218C21.1309 29.5644 20.0753 28.4928 19.9484 27.5462C19.0159 25.1492 18.4863 18.8672 19.1726 17.86C20.1387 16.7429 21.5934 16.1181 23.8538 16.1749C23.8277 16.3605 23.7941 16.5195 23.7419 16.6293C23.4323 17.1973 23.1824 17.7653 23.6785 17.4813C23.865 17.451 23.8351 17.6404 23.6785 17.7653C23.1488 18.1137 23.0257 19.1853 23.5218 18.7763C23.6449 18.6817 23.7381 18.712 23.6449 18.9354C23.2458 19.9199 23.7866 20.2796 24.2268 20.0827C24.5177 20.2834 25.0436 20.113 25.1966 19.5337C25.1966 19.3443 25.3197 19.3746 25.4129 19.5337C25.633 19.8063 25.7747 19.3368 25.7225 18.8634C25.9724 19.1588 26.282 19.3216 26.2857 19.0641C26.5133 19.4352 26.8527 19.67 26.8751 19.3443C26.8751 19.155 26.9049 19.0603 27.0616 19.2194C27.6957 19.7419 28.4678 19.1701 28.0724 18.5946C28.7737 18.9732 29.281 18.0077 28.617 17.3564C28.4007 17.2314 28.5238 17.167 28.7103 17.1367C28.9303 17.0951 28.9079 16.9474 28.7513 16.7921C29.5495 16.936 29.8293 16.315 29.8293 15.9061C29.8666 15.4895 29.654 14.8269 28.8222 14.9102ZM22.4699 12.1422C22.4699 12.146 22.4662 12.146 22.4625 12.1422H22.4699ZM25.3309 7.38995C25.3271 7.38617 25.3234 7.38238 25.3234 7.37859C25.3383 7.37859 25.3495 7.37859 25.3644 7.37859C25.3532 7.38238 25.342 7.38617 25.3309 7.38995ZM21.6792 4.19404C21.6904 4.15618 21.7015 4.1221 21.709 4.08423C21.7127 4.11074 21.7165 4.14103 21.7202 4.16754C21.709 4.17511 21.6941 4.18647 21.6792 4.19404ZM10.0713 13.6341C10.4145 14.0771 10.3809 13.4751 10.2579 12.8465C10.2429 12.7707 10.2429 12.6874 10.2541 12.6004C10.9964 13.0245 11.5634 13.3918 11.5335 13.5697C11.5111 13.7894 10.6383 13.8007 9.9035 13.8386C9.83636 13.6985 9.88858 13.5508 10.0713 13.6341ZM12.2049 9.69601L12.4623 10.3511L11.7499 9.96865C11.9252 9.91563 12.0818 9.80961 12.2049 9.69601ZM12.4362 9.37036C12.4698 9.26433 12.4436 9.18481 12.3243 9.17345L12.2012 8.95762C12.4698 8.72285 12.6078 8.49943 12.6525 8.30632L12.5294 9.5294L12.4362 9.37036ZM14.3609 7.73075C14.4168 7.61336 14.5101 7.55657 14.5735 7.58307C14.5548 7.72696 14.525 7.83678 14.484 7.88979C14.428 7.89736 14.3609 7.87464 14.2863 7.8292C14.3161 7.79512 14.3385 7.76483 14.3609 7.73075ZM15.45 7.63608C15.4538 7.63608 15.4538 7.6323 15.4575 7.6323C15.4127 8.08669 15.3792 8.39341 15.2337 8.45778C15.077 8.45778 15.0472 8.42749 14.9838 8.26845L14.9166 7.92765C15.0696 7.8595 15.2561 7.75726 15.45 7.63608ZM18.0126 8.19651L17.9976 8.26466C17.9044 8.4237 17.9044 8.454 17.7477 8.454C17.6134 8.40477 17.5612 8.19651 17.5277 7.88222C17.7104 8.02232 17.8783 8.13592 18.0126 8.19651ZM20.7206 9.02199L20.5863 9.25297C20.5266 9.27569 20.5042 9.32492 20.5079 9.38551L20.4222 9.5294L20.314 8.454C20.3662 8.62439 20.493 8.81751 20.7206 9.02199ZM20.7206 9.75281C20.825 9.85883 20.9555 9.95729 21.0973 10.0254L20.4856 10.3549L20.7206 9.75281ZM22.6863 12.6117C22.7049 12.7291 22.7124 12.8313 22.6937 12.9071C22.6154 13.3084 22.5744 13.6947 22.6415 13.8196C22.0261 13.7894 21.4404 13.7477 21.4181 13.5697C21.3882 13.3918 21.9515 13.0282 22.6863 12.6117ZM22.8765 13.7288C23.0257 13.6644 23.0854 13.7326 23.0705 13.8424C22.9735 13.8386 22.8765 13.8348 22.7795 13.8272C22.8094 13.8045 22.8392 13.7704 22.8765 13.7288ZM27.6733 18.2235C27.6808 18.2348 27.692 18.2462 27.6994 18.2576C27.677 18.2462 27.6584 18.2348 27.636 18.2197C27.6472 18.2235 27.6621 18.2235 27.6733 18.2235ZM26.4312 8.23058C26.3939 8.31768 26.3603 8.41234 26.3305 8.51837C26.3193 8.55623 26.3119 8.58653 26.3007 8.61303C26.144 8.64333 26.0843 8.54866 26.2373 8.4237C26.3081 8.35933 26.3753 8.29496 26.4312 8.23058ZM14.4243 16.3453C14.3198 16.8489 12.2049 15.8152 10.0788 14.9632C10.1982 14.736 10.2019 14.2097 9.94826 13.9143C9.94453 13.9105 9.94453 13.9105 9.9408 13.9067C10.7539 13.937 11.6976 13.9787 11.9662 13.9787C12.7122 14.0431 14.4541 15.9667 14.4243 16.3453ZM14.9838 14.5467C14.8607 15.02 13.9879 13.5356 12.7159 13.1911C12.2236 13.1191 11.4589 12.2368 10.7129 11.4454C10.7614 11.3546 10.8024 11.2485 10.8285 11.1311C10.8845 11.0668 10.9479 11.01 11.0076 10.9797C11.5671 10.601 12.0035 10.2224 11.4738 10.2526C11.4291 10.2299 11.403 10.2072 11.388 10.1807C11.3992 10.1428 11.4104 10.105 11.4216 10.0633C11.4328 10.0557 11.4477 10.0444 11.4626 10.0368L12.7793 10.9759C12.9621 12.2747 15.23 13.9181 14.9838 14.5467ZM15.603 12.9071C15.2934 13.4448 13.3948 11.4871 13.0218 10.4458L12.8204 8.20786C12.8241 8.20786 12.8316 8.20408 12.8353 8.20408C12.9845 8.17379 13.13 8.13971 13.2605 8.10184C13.3053 8.26845 13.723 8.2268 14.0513 8.02232C14.8159 8.9046 16.0245 9.61649 15.8827 10.601C16.0095 11.1084 15.8529 12.4337 15.603 12.9071ZM16.0692 9.30977C15.8529 9.30977 15.6962 9.09015 15.6962 8.90082C15.6328 8.57138 15.6253 8.09805 15.5992 7.5755C15.7074 7.53763 15.8342 7.51113 15.976 7.51113L16.2706 7.58686L16.2893 7.67016H16.3676C16.2893 8.50322 16.1849 9.30977 16.0692 9.30977ZM16.5989 7.72318L16.6325 7.73075L16.6623 7.64744L16.9122 7.60579C17.0912 7.6323 17.2516 7.70046 17.3523 7.76104C17.3262 8.20786 17.3225 8.60925 17.2852 8.90082C17.2554 9.09015 17.1285 9.30977 16.9122 9.30977C16.7966 9.30977 16.6847 8.5373 16.5989 7.72318ZM17.3449 12.9071C17.095 12.4337 16.942 11.1084 17.0651 10.6048C16.957 9.71873 17.9305 9.05607 18.684 8.28738C19.0756 8.65469 19.7507 8.77586 19.4896 8.29874C19.4262 8.20408 19.4598 8.07912 19.6463 8.20408C19.8179 8.3101 19.9708 8.37826 20.1088 8.41613L19.9261 10.4458C19.5531 11.4871 17.6545 13.4448 17.3449 12.9071ZM17.9678 14.5467C17.7179 13.9143 20.0193 12.305 20.176 10.9797L21.4106 10.1012C21.4666 10.1088 21.515 10.1277 21.5486 10.1504C21.5598 10.1996 21.571 10.2489 21.5822 10.2905C21.5673 10.3094 21.5449 10.3284 21.5113 10.3473C20.9518 10.317 21.3882 10.6957 21.9477 11.0403C22.0111 11.0895 22.0746 11.1463 22.1342 11.2144C22.1566 11.3053 22.1902 11.3886 22.2238 11.4644C21.4777 12.2482 20.7243 13.1115 20.2357 13.1835C18.9936 13.5394 18.0909 15.02 17.9678 14.5467ZM18.5273 16.3453C18.5273 15.9667 20.2357 14.0431 20.9817 13.9787C21.2801 13.9787 22.2275 13.937 23.0555 13.9067C23.0444 13.9408 23.0257 13.9749 23.0033 14.009C22.7683 14.2816 22.7534 14.7474 22.8504 14.9859C20.7355 15.8341 18.6504 16.8452 18.5273 16.3453Z" fill="#606C7D"/>
</svg>
