<svg width="24" height="24" viewBox="0 0 24 24" fill="none" xmlns="http://www.w3.org/2000/svg">
<g id="ReadCvLogo">
<path id="Vector" d="M19.7606 3.67896L7.54962 1.52271C7.1579 1.45377 6.75483 1.54324 6.42906 1.77144C6.10329 1.99964 5.88149 2.34788 5.81244 2.73958L3.02338 18.5833C2.98926 18.7774 2.99373 18.9763 3.03653 19.1687C3.07932 19.3611 3.15961 19.5431 3.27279 19.7045C3.38597 19.8658 3.52983 20.0032 3.69616 20.1089C3.86248 20.2146 4.048 20.2865 4.24213 20.3205L16.4531 22.4768C16.6472 22.511 16.8462 22.5066 17.0387 22.4639C17.2312 22.4212 17.4134 22.3409 17.5748 22.2277C17.7362 22.1145 17.8738 21.9706 17.9795 21.8042C18.0853 21.6378 18.1572 21.4522 18.1912 21.258L20.9802 5.41427C21.0486 5.02242 20.9585 4.61947 20.7297 4.29405C20.501 3.96863 20.1524 3.74738 19.7606 3.67896ZM16.7118 20.9993L4.49994 18.843L7.289 2.99927L19.4999 5.15552L16.7118 20.9993ZM8.37556 5.47614C8.4103 5.28037 8.52136 5.1064 8.68433 4.99248C8.8473 4.87856 9.04883 4.83402 9.24463 4.86864L17.0259 6.24208C17.2108 6.27448 17.3769 6.37505 17.4912 6.52394C17.6056 6.67283 17.66 6.8592 17.6436 7.04623C17.6272 7.23326 17.5413 7.40735 17.4028 7.5341C17.2643 7.66086 17.0833 7.73106 16.8956 7.73083C16.8516 7.73077 16.8077 7.72701 16.7643 7.71958L8.98306 6.34521C8.78729 6.31046 8.61332 6.1994 8.4994 6.03644C8.38548 5.87347 8.34094 5.67194 8.37556 5.47614ZM7.85619 8.43114C7.87328 8.33412 7.90932 8.24141 7.96225 8.15832C8.01518 8.07523 8.08397 8.00338 8.16467 7.94688C8.24538 7.89038 8.33642 7.85033 8.43261 7.82903C8.52879 7.80772 8.62823 7.80557 8.72525 7.8227L16.5065 9.19708C16.6927 9.22823 16.8604 9.32847 16.9759 9.4778C17.0915 9.62712 17.1465 9.81454 17.1299 10.0026C17.1133 10.1907 17.0264 10.3656 16.8865 10.4925C16.7466 10.6193 16.5641 10.6887 16.3752 10.6868C16.3309 10.6869 16.2866 10.6828 16.2431 10.6746L8.46181 9.30114C8.26619 9.26598 8.09252 9.1546 7.97897 8.99147C7.86541 8.82834 7.82125 8.62681 7.85619 8.43114ZM7.33588 11.3852C7.37127 11.1899 7.4826 11.0167 7.64549 10.9033C7.80838 10.79 8.00955 10.7458 8.20494 10.7805L12.0937 11.464C12.2785 11.4963 12.4445 11.5968 12.5589 11.7456C12.6733 11.8944 12.7277 12.0807 12.7115 12.2676C12.6952 12.4546 12.6095 12.6287 12.4711 12.7555C12.3328 12.8823 12.152 12.9527 11.9643 12.9527C11.9203 12.9527 11.8764 12.9489 11.8331 12.9415L7.94244 12.2543C7.74683 12.2193 7.5731 12.1082 7.45937 11.9452C7.34565 11.7823 7.30123 11.5809 7.33588 11.3852Z" fill="#606C7D"/>
</g>
</svg>
