<svg width="12" height="13" viewBox="0 0 12 13" fill="none" xmlns="http://www.w3.org/2000/svg">
<path d="M6 1.625C5.03582 1.625 4.09329 1.91091 3.2916 2.44659C2.48991 2.98226 1.86507 3.74363 1.49609 4.63442C1.12711 5.52521 1.03057 6.50541 1.21867 7.45107C1.40678 8.39672 1.87108 9.26536 2.55286 9.94715C3.23464 10.6289 4.10328 11.0932 5.04894 11.2813C5.99459 11.4694 6.97479 11.3729 7.86558 11.0039C8.75637 10.6349 9.51775 10.0101 10.0534 9.2084C10.5891 8.40671 10.875 7.46418 10.875 6.5C10.8736 5.20749 10.3596 3.96831 9.44564 3.05436C8.5317 2.14042 7.29251 1.62636 6 1.625ZM5.625 4.25C5.625 4.15054 5.66451 4.05516 5.73484 3.98484C5.80516 3.91451 5.90055 3.875 6 3.875C6.09946 3.875 6.19484 3.91451 6.26517 3.98484C6.33549 4.05516 6.375 4.15054 6.375 4.25V6.875C6.375 6.97446 6.33549 7.06984 6.26517 7.14017C6.19484 7.21049 6.09946 7.25 6 7.25C5.90055 7.25 5.80516 7.21049 5.73484 7.14017C5.66451 7.06984 5.625 6.97446 5.625 6.875V4.25ZM6 9.125C5.88875 9.125 5.78 9.09201 5.68749 9.0302C5.59499 8.96839 5.52289 8.88054 5.48032 8.77776C5.43775 8.67498 5.42661 8.56188 5.44831 8.45276C5.47001 8.34365 5.52359 8.24342 5.60225 8.16475C5.68092 8.08609 5.78115 8.03251 5.89026 8.01081C5.99938 7.9891 6.11248 8.00024 6.21526 8.04282C6.31804 8.08539 6.4059 8.15749 6.4677 8.24999C6.52951 8.34249 6.5625 8.45125 6.5625 8.5625C6.5625 8.71168 6.50324 8.85476 6.39775 8.96025C6.29226 9.06574 6.14919 9.125 6 9.125Z" fill="#EF036C"/>
</svg>
