<svg width="24" height="25" viewBox="0 0 24 25" fill="none" xmlns="http://www.w3.org/2000/svg">
<g filter="url(#filter0_d_2968_54089)">
<rect x="4" y="2.5" width="16" height="16" rx="8" fill="#FFEDF5" shape-rendering="crispEdges"/>
<path d="M12 5.625C11.0358 5.625 10.0933 5.91091 9.2916 6.44659C8.48991 6.98226 7.86507 7.74363 7.49609 8.63442C7.12711 9.52521 7.03057 10.5054 7.21867 11.4511C7.40678 12.3967 7.87108 13.2654 8.55286 13.9471C9.23464 14.6289 10.1033 15.0932 11.0489 15.2813C11.9946 15.4694 12.9748 15.3729 13.8656 15.0039C14.7564 14.6349 15.5177 14.0101 16.0534 13.2084C16.5891 12.4067 16.875 11.4642 16.875 10.5C16.8736 9.20749 16.3596 7.96831 15.4456 7.05436C14.5317 6.14042 13.2925 5.62636 12 5.625ZM11.625 8.25C11.625 8.15054 11.6645 8.05516 11.7348 7.98484C11.8052 7.91451 11.9005 7.875 12 7.875C12.0995 7.875 12.1948 7.91451 12.2652 7.98484C12.3355 8.05516 12.375 8.15054 12.375 8.25V10.875C12.375 10.9745 12.3355 11.0698 12.2652 11.1402C12.1948 11.2105 12.0995 11.25 12 11.25C11.9005 11.25 11.8052 11.2105 11.7348 11.1402C11.6645 11.0698 11.625 10.9745 11.625 10.875V8.25ZM12 13.125C11.8888 13.125 11.78 13.092 11.6875 13.0302C11.595 12.9684 11.5229 12.8805 11.4803 12.7778C11.4377 12.675 11.4266 12.5619 11.4483 12.4528C11.47 12.3436 11.5236 12.2434 11.6023 12.1648C11.6809 12.0861 11.7811 12.0325 11.8903 12.0108C11.9994 11.9891 12.1125 12.0002 12.2153 12.0428C12.318 12.0854 12.4059 12.1575 12.4677 12.25C12.5295 12.3425 12.5625 12.4512 12.5625 12.5625C12.5625 12.7117 12.5032 12.8548 12.3977 12.9602C12.2923 13.0657 12.1492 13.125 12 13.125Z" fill="#EF036C"/>
</g>
<defs>
<filter id="filter0_d_2968_54089" x="0" y="0.5" width="24" height="24" filterUnits="userSpaceOnUse" color-interpolation-filters="sRGB">
<feFlood flood-opacity="0" result="BackgroundImageFix"/>
<feColorMatrix in="SourceAlpha" type="matrix" values="0 0 0 0 0 0 0 0 0 0 0 0 0 0 0 0 0 0 127 0" result="hardAlpha"/>
<feOffset dy="2"/>
<feGaussianBlur stdDeviation="2"/>
<feComposite in2="hardAlpha" operator="out"/>
<feColorMatrix type="matrix" values="0 0 0 0 0 0 0 0 0 0 0 0 0 0 0 0 0 0 0.15 0"/>
<feBlend mode="normal" in2="BackgroundImageFix" result="effect1_dropShadow_2968_54089"/>
<feBlend mode="normal" in="SourceGraphic" in2="effect1_dropShadow_2968_54089" result="shape"/>
</filter>
</defs>
</svg>
